  0
SECTION
  2
HEADER
  9
$ACADVER
  1
AC1014
  9
$ACADMAINTVER
 70
     9
  9
$DWGCODEPAGE
  3
UNDEFINED
  9
$INSBASE
 10
0.0
 20
0.0
 30
0.0
  9
$EXTMIN
 10
1.000000000000000E+20
 20
1.000000000000000E+20
 30
1.000000000000000E+20
  9
$EXTMAX
 10
-1.000000000000000E+20
 20
-1.000000000000000E+20
 30
-1.000000000000000E+20
  9
$LIMMIN
 10
0.0
 20
0.0
  9
$LIMMAX
 10
12.0
 20
9.0
  9
$ORTHOMODE
 70
     0
  9
$REGENMODE
 70
     1
  9
$FILLMODE
 70
     1
  9
$QTEXTMODE
 70
     0
  9
$MIRRTEXT
 70
     1
  9
$DRAGMODE
 70
     2
  9
$LTSCALE
 40
1.0
  9
$OSMODE
 70
    37
  9
$ATTMODE
 70
     1
  9
$TEXTSIZE
 40
0.2
  9
$TRACEWID
 40
0.05
  9
$TEXTSTYLE
  7
STANDARD
  9
$CLAYER
  8
0
  9
$CELTYPE
  6
BYLAYER
  9
$CECOLOR
 62
   256
  9
$CELTSCALE
 40
1.0
  9
$DELOBJ
 70
     1
  9
$DISPSILH
 70
     0
  9
$DIMSCALE
 40
1.0
  9
$DIMASZ
 40
0.18
  9
$DIMEXO
 40
0.0625
  9
$DIMDLI
 40
0.38
  9
$DIMRND
 40
0.0
  9
$DIMDLE
 40
0.0
  9
$DIMEXE
 40
0.18
  9
$DIMTP
 40
0.0
  9
$DIMTM
 40
0.0
  9
$DIMTXT
 40
0.18
  9
$DIMCEN
 40
0.09
  9
$DIMTSZ
 40
0.0
  9
$DIMTOL
 70
     0
  9
$DIMLIM
 70
     0
  9
$DIMTIH
 70
     1
  9
$DIMTOH
 70
     1
  9
$DIMSE1
 70
     0
  9
$DIMSE2
 70
     0
  9
$DIMTAD
 70
     0
  9
$DIMZIN
 70
     0
  9
$DIMBLK
  1

  9
$DIMASO
 70
     1
  9
$DIMSHO
 70
     1
  9
$DIMPOST
  1

  9
$DIMAPOST
  1

  9
$DIMALT
 70
     0
  9
$DIMALTD
 70
     2
  9
$DIMALTF
 40
25.4
  9
$DIMLFAC
 40
1.0
  9
$DIMTOFL
 70
     0
  9
$DIMTVP
 40
0.0
  9
$DIMTIX
 70
     0
  9
$DIMSOXD
 70
     0
  9
$DIMSAH
 70
     0
  9
$DIMBLK1
  1

  9
$DIMBLK2
  1

  9
$DIMSTYLE
  2
STANDARD
  9
$DIMCLRD
 70
     0
  9
$DIMCLRE
 70
     0
  9
$DIMCLRT
 70
     0
  9
$DIMTFAC
 40
1.0
  9
$DIMGAP
 40
0.09
  9
$DIMJUST
 70
     0
  9
$DIMSD1
 70
     0
  9
$DIMSD2
 70
     0
  9
$DIMTOLJ
 70
     1
  9
$DIMTZIN
 70
     0
  9
$DIMALTZ
 70
     0
  9
$DIMALTTZ
 70
     0
  9
$DIMFIT
 70
     3
  9
$DIMUPT
 70
     0
  9
$DIMUNIT
 70
     2
  9
$DIMDEC
 70
     4
  9
$DIMTDEC
 70
     4
  9
$DIMALTU
 70
     2
  9
$DIMALTTD
 70
     2
  9
$DIMTXSTY
  7
STANDARD
  9
$DIMAUNIT
 70
     0
  9
$LUNITS
 70
     2
  9
$LUPREC
 70
     4
  9
$SKETCHINC
 40
0.1
  9
$FILLETRAD
 40
0.5
  9
$AUNITS
 70
     0
  9
$AUPREC
 70
     0
  9
$MENU
  1
.
  9
$ELEVATION
 40
0.0
  9
$PELEVATION
 40
0.0
  9
$THICKNESS
 40
0.0
  9
$LIMCHECK
 70
     0
  9
$CHAMFERA
 40
0.5
  9
$CHAMFERB
 40
0.5
  9
$CHAMFERC
 40
1.0
  9
$CHAMFERD
 40
0.0
  9
$SKPOLY
 70
     0
  9
$TDCREATE
 40
2458442.661053241
  9
$TDUPDATE
 40
2458442.661053241
  9
$TDINDWG
 40
0.0000000116
  9
$TDUSRTIMER
 40
0.0000000116
  9
$USRTIMER
 70
     1
  9
$ANGBASE
 50
0.0
  9
$ANGDIR
 70
     0
  9
$PDMODE
 70
     0
  9
$PDSIZE
 40
0.0
  9
$PLINEWID
 40
0.0
  9
$COORDS
 70
     1
  9
$SPLFRAME
 70
     0
  9
$SPLINETYPE
 70
     6
  9
$SPLINESEGS
 70
     8
  9
$ATTDIA
 70
     0
  9
$ATTREQ
 70
     1
  9
$HANDLING
 70
     1
  9
$HANDSEED
  5
77
  9
$SURFTAB1
 70
     6
  9
$SURFTAB2
 70
     6
  9
$SURFTYPE
 70
     6
  9
$SURFU
 70
     6
  9
$SURFV
 70
     6
  9
$UCSNAME
  2

  9
$UCSORG
 10
0.0
 20
0.0
 30
0.0
  9
$UCSXDIR
 10
1.0
 20
0.0
 30
0.0
  9
$UCSYDIR
 10
0.0
 20
1.0
 30
0.0
  9
$PUCSNAME
  2

  9
$PUCSORG
 10
0.0
 20
0.0
 30
0.0
  9
$PUCSXDIR
 10
1.0
 20
0.0
 30
0.0
  9
$PUCSYDIR
 10
0.0
 20
1.0
 30
0.0
  9
$USERI1
 70
     0
  9
$USERI2
 70
     0
  9
$USERI3
 70
     0
  9
$USERI4
 70
     0
  9
$USERI5
 70
     0
  9
$USERR1
 40
0.0
  9
$USERR2
 40
0.0
  9
$USERR3
 40
0.0
  9
$USERR4
 40
0.0
  9
$USERR5
 40
0.0
  9
$WORLDVIEW
 70
     1
  9
$SHADEDGE
 70
     3
  9
$SHADEDIF
 70
    70
  9
$TILEMODE
 70
     1
  9
$MAXACTVP
 70
    64
  9
$PINSBASE
 10
0.0
 20
0.0
 30
0.0
  9
$PLIMCHECK
 70
     0
  9
$PEXTMIN
 10
1.000000000000000E+20
 20
1.000000000000000E+20
 30
1.000000000000000E+20
  9
$PEXTMAX
 10
-1.000000000000000E+20
 20
-1.000000000000000E+20
 30
-1.000000000000000E+20
  9
$PLIMMIN
 10
0.0
 20
0.0
  9
$PLIMMAX
 10
12.0
 20
9.0
  9
$UNITMODE
 70
     0
  9
$VISRETAIN
 70
     1
  9
$PLINEGEN
 70
     0
  9
$PSLTSCALE
 70
     1
  9
$TREEDEPTH
 70
  3020
  9
$PICKSTYLE
 70
     1
  9
$CMLSTYLE
  2
STANDARD
  9
$CMLJUST
 70
     0
  9
$CMLSCALE
 40
1.0
  9
$PROXYGRAPHICS
 70
     1
  9
$MEASUREMENT
 70
     0
  0
ENDSEC
  0
SECTION
  2
CLASSES
  0
CLASS
  1
ACDBDICTIONARYWDFLT
  2
AcDbDictionaryWithDefault
  3
ObjectDBX Classes
 90
        0
280
     0
281
     0
  0
CLASS
  1
VISUALSTYLE
  2
AcDbVisualStyle
  3
ObjectDBX Classes
 90
     4095
280
     0
281
     0
  0
CLASS
  1
MATERIAL
  2
AcDbMaterial
  3
ObjectDBX Classes
 90
     1153
280
     0
281
     0
  0
CLASS
  1
SUN
  2
AcDbSun
  3
SCENEOE
 90
     1024
280
     0
281
     0
  0
CLASS
  1
DICTIONARYVAR
  2
AcDbDictionaryVar
  3
ObjectDBX Classes
 90
        0
280
     0
281
     0
  0
CLASS
  1
XRECORD
  2
AcDbXrecord
  3
AutoCAD 2000
 90
        0
280
     0
281
     0
  0
CLASS
  1
LWPOLYLINE
  2
AcDbPolyline
  3
AutoCAD 2000
 90
        0
280
     0
281
     1
  0
CLASS
  1
HATCH
  2
AcDbHatch
  3
AutoCAD 2000
 90
        0
280
     0
281
     1
  0
CLASS
  1
ACDBPLACEHOLDER
  2
AcDbPlaceHolder
  3
ObjectDBX Classes
 90
        0
280
     0
281
     0
  0
CLASS
  1
LAYOUT
  2
AcDbLayout
  3
ObjectDBX Classes
 90
        0
280
     0
281
     0
  0
ENDSEC
  0
SECTION
  2
TABLES
  0
TABLE
  2
VPORT
  5
8
330
0
100
AcDbSymbolTable
 70
     1
  0
VPORT
  5
29
330
8
100
AcDbSymbolTableRecord
100
AcDbViewportTableRecord
  2
*ACTIVE
 70
     0
 10
0.0
 20
0.0
 11
1.0
 21
1.0
 12
0.0
 22
0.0
 13
0.0
 23
0.0
 14
0.5
 24
0.5
 15
0.5
 25
0.5
 16
0.0
 26
0.0
 36
1.0
 17
139.699999965075
 27
107.9499999730125
 37
0.0
 40
215.899999946025
 41
1.294117647058823
 42
50.0
 43
0.0
 44
0.0
 50
0.0
 51
0.0
 71
     0
 72
   100
 73
     1
 74
     3
 75
     0
 76
     0
 77
     0
 78
     0
  0
ENDTAB
  0
TABLE
  2
LTYPE
  5
5
330
0
100
AcDbSymbolTable
 70
     1
  0
LTYPE
  5
14
330
5
100
AcDbSymbolTableRecord
100
AcDbLinetypeTableRecord
  2
BYBLOCK
 70
     0
  3

 72
    65
 73
     0
 40
0.0
  0
LTYPE
  5
15
330
5
100
AcDbSymbolTableRecord
100
AcDbLinetypeTableRecord
  2
BYLAYER
 70
     0
  3

 72
    65
 73
     0
 40
0.0
  0
LTYPE
  5
16
330
5
100
AcDbSymbolTableRecord
100
AcDbLinetypeTableRecord
  2
CONTINUOUS
 70
     0
  3
Solid line
 72
    65
 73
     0
 40
0.0
  0
ENDTAB
  0
TABLE
  2
LAYER
  5
2
330
0
100
AcDbSymbolTable
 70
     2
  0
LAYER
  5
10
330
2
100
AcDbSymbolTableRecord
100
AcDbLayerTableRecord
  2
0
 70
     0
 62
     7
  6
CONTINUOUS
  0
LAYER
  5
40
330
2
100
AcDbSymbolTableRecord
100
AcDbLayerTableRecord
  2
LAYER_1
 70
     0
 62
     7
  6
CONTINUOUS
  0
ENDTAB
  0
TABLE
  2
STYLE
  5
3
330
0
100
AcDbSymbolTable
 70
     1
  0
STYLE
  5
11
330
3
100
AcDbSymbolTableRecord
100
AcDbTextStyleTableRecord
  2
STANDARD
 70
     0
 40
0.0
 41
1.0
 50
0.0
 71
     0
 42
0.2
  3
txt
  4

  0
ENDTAB
  0
TABLE
  2
VIEW
  5
6
330
0
100
AcDbSymbolTable
 70
     0
  0
ENDTAB
  0
TABLE
  2
UCS
  5
7
330
0
100
AcDbSymbolTable
 70
     0
  0
ENDTAB
  0
TABLE
  2
APPID
  5
9
330
0
100
AcDbSymbolTable
 70
     1
  0
APPID
  5
12
330
9
100
AcDbSymbolTableRecord
100
AcDbRegAppTableRecord
  2
ACAD
 70
     0
  0
ENDTAB
  0
TABLE
  2
DIMSTYLE
  5
A
330
0
100
AcDbSymbolTable
 70
     1
  0
DIMSTYLE
105
27
330
A
100
AcDbSymbolTableRecord
100
AcDbDimStyleTableRecord
  2
STANDARD
 70
     0
  3

  4

  5

  6

  7

 40
1.0
 41
0.18
 42
0.0625
 43
0.38
 44
0.18
 45
0.0
 46
0.0
 47
0.0
 48
0.0
140
0.18
141
0.09
142
0.0
143
25.4
144
1.0
145
0.0
146
1.0
147
0.09
 71
     0
 72
     0
 73
     1
 74
     1
 75
     0
 76
     0
 77
     0
 78
     0
170
     0
171
     2
172
     0
173
     0
174
     0
175
     0
176
     0
177
     0
178
     0
270
     2
271
     4
272
     4
273
     2
274
     2
340
11
275
     0
280
     0
281
     0
282
     0
283
     1
284
     0
285
     0
286
     0
287
     3
288
     0
  0
ENDTAB
  0
TABLE
  2
BLOCK_RECORD
  5
1
330
0
100
AcDbSymbolTable
 70
     3
  0
BLOCK_RECORD
  5
1F
330
1
100
AcDbSymbolTableRecord
100
AcDbBlockTableRecord
  2
*MODEL_SPACE
  0
BLOCK_RECORD
  5
1B
330
1
100
AcDbSymbolTableRecord
100
AcDbBlockTableRecord
  2
*PAPER_SPACE
  0
BLOCK_RECORD
  5
41
330
1
100
AcDbSymbolTableRecord
100
AcDbBlockTableRecord
  2
BLOCK_2
  0
BLOCK_RECORD
  5
46
330
1
100
AcDbSymbolTableRecord
100
AcDbBlockTableRecord
  2
BLOCK_3
  0
ENDTAB
  0
ENDSEC
  0
SECTION
  2
BLOCKS
  0
BLOCK
  5
20
330
1F
100
AcDbEntity
  8
0
100
AcDbBlockBegin
  2
*MODEL_SPACE
 70
     0
 10
0.0
 20
0.0
 30
0.0
  3
*MODEL_SPACE
  1

  0
ENDBLK
  5
21
330
1F
100
AcDbEntity
  8
0
100
AcDbBlockEnd
  0
BLOCK
  5
1C
330
1B
100
AcDbEntity
 67
     1
  8
0
100
AcDbBlockBegin
  2
*PAPER_SPACE
 70
     0
 10
0.0
 20
0.0
 30
0.0
  3
*PAPER_SPACE
  1

  0
ENDBLK
  5
1D
330
1B
100
AcDbEntity
 67
     1
  8
0
100
AcDbBlockEnd
  0
BLOCK
  5
43
330
41
100
AcDbEntity
  8
0
100
AcDbBlockBegin
  2
BLOCK_2
 70
     0
 10
0.0
 20
0.0
 30
0.0
  3
BLOCK_2
  1

  0
SPLINE
  5
45
330
41
100
AcDbEntity
  8
LAYER_1
 62
     7
100
AcDbSpline
210
0.0
220
0.0
230
1.0
 70
    11
 71
     3
 72
   569
 73
   565
 74
     0
 42
0.0000000001
 43
0.0000000001
 12
1.0
 22
0.0
 32
0.0
 13
1.0
 23
0.0
 33
0.0
 40
0.0
 40
0.0
 40
0.0
 40
0.0
 40
1.0
 40
1.0
 40
1.0
 40
2.0
 40
2.0
 40
2.0
 40
3.0
 40
3.0
 40
3.0
 40
4.0
 40
4.0
 40
4.0
 40
5.0
 40
5.0
 40
5.0
 40
6.0
 40
6.0
 40
6.0
 40
7.0
 40
7.0
 40
7.0
 40
8.0
 40
8.0
 40
8.0
 40
9.0
 40
9.0
 40
9.0
 40
10.0
 40
10.0
 40
10.0
 40
11.0
 40
11.0
 40
11.0
 40
12.0
 40
12.0
 40
12.0
 40
13.0
 40
13.0
 40
13.0
 40
14.0
 40
14.0
 40
14.0
 40
15.0
 40
15.0
 40
15.0
 40
16.0
 40
16.0
 40
16.0
 40
17.0
 40
17.0
 40
17.0
 40
18.0
 40
18.0
 40
18.0
 40
19.0
 40
19.0
 40
19.0
 40
20.0
 40
20.0
 40
20.0
 40
21.0
 40
21.0
 40
21.0
 40
22.0
 40
22.0
 40
22.0
 40
23.0
 40
23.0
 40
23.0
 40
24.0
 40
24.0
 40
24.0
 40
25.0
 40
25.0
 40
25.0
 40
26.0
 40
26.0
 40
26.0
 40
27.0
 40
27.0
 40
27.0
 40
28.0
 40
28.0
 40
28.0
 40
29.0
 40
29.0
 40
29.0
 40
30.0
 40
30.0
 40
30.0
 40
31.0
 40
31.0
 40
31.0
 40
32.0
 40
32.0
 40
32.0
 40
33.0
 40
33.0
 40
33.0
 40
34.0
 40
34.0
 40
34.0
 40
35.0
 40
35.0
 40
35.0
 40
36.0
 40
36.0
 40
36.0
 40
37.0
 40
37.0
 40
37.0
 40
38.0
 40
38.0
 40
38.0
 40
39.0
 40
39.0
 40
39.0
 40
40.0
 40
40.0
 40
40.0
 40
41.0
 40
41.0
 40
41.0
 40
42.0
 40
42.0
 40
42.0
 40
43.0
 40
43.0
 40
43.0
 40
44.0
 40
44.0
 40
44.0
 40
45.0
 40
45.0
 40
45.0
 40
46.0
 40
46.0
 40
46.0
 40
47.0
 40
47.0
 40
47.0
 40
48.0
 40
48.0
 40
48.0
 40
49.0
 40
49.0
 40
49.0
 40
50.0
 40
50.0
 40
50.0
 40
51.0
 40
51.0
 40
51.0
 40
52.0
 40
52.0
 40
52.0
 40
53.0
 40
53.0
 40
53.0
 40
54.0
 40
54.0
 40
54.0
 40
55.0
 40
55.0
 40
55.0
 40
56.0
 40
56.0
 40
56.0
 40
57.0
 40
57.0
 40
57.0
 40
58.0
 40
58.0
 40
58.0
 40
59.0
 40
59.0
 40
59.0
 40
60.0
 40
60.0
 40
60.0
 40
61.0
 40
61.0
 40
61.0
 40
62.0
 40
62.0
 40
62.0
 40
63.0
 40
63.0
 40
63.0
 40
64.0
 40
64.0
 40
64.0
 40
65.0
 40
65.0
 40
65.0
 40
66.0
 40
66.0
 40
66.0
 40
67.0
 40
67.0
 40
67.0
 40
68.0
 40
68.0
 40
68.0
 40
69.0
 40
69.0
 40
69.0
 40
70.0
 40
70.0
 40
70.0
 40
71.0
 40
71.0
 40
71.0
 40
72.0
 40
72.0
 40
72.0
 40
73.0
 40
73.0
 40
73.0
 40
74.0
 40
74.0
 40
74.0
 40
75.0
 40
75.0
 40
75.0
 40
76.0
 40
76.0
 40
76.0
 40
77.0
 40
77.0
 40
77.0
 40
78.0
 40
78.0
 40
78.0
 40
79.0
 40
79.0
 40
79.0
 40
80.0
 40
80.0
 40
80.0
 40
81.0
 40
81.0
 40
81.0
 40
82.0
 40
82.0
 40
82.0
 40
83.0
 40
83.0
 40
83.0
 40
84.0
 40
84.0
 40
84.0
 40
85.0
 40
85.0
 40
85.0
 40
86.0
 40
86.0
 40
86.0
 40
87.0
 40
87.0
 40
87.0
 40
88.0
 40
88.0
 40
88.0
 40
89.0
 40
89.0
 40
89.0
 40
90.0
 40
90.0
 40
90.0
 40
91.0
 40
91.0
 40
91.0
 40
92.0
 40
92.0
 40
92.0
 40
93.0
 40
93.0
 40
93.0
 40
94.0
 40
94.0
 40
94.0
 40
95.0
 40
95.0
 40
95.0
 40
96.0
 40
96.0
 40
96.0
 40
97.0
 40
97.0
 40
97.0
 40
98.0
 40
98.0
 40
98.0
 40
99.0
 40
99.0
 40
99.0
 40
100.0
 40
100.0
 40
100.0
 40
101.0
 40
101.0
 40
101.0
 40
102.0
 40
102.0
 40
102.0
 40
103.0
 40
103.0
 40
103.0
 40
104.0
 40
104.0
 40
104.0
 40
105.0
 40
105.0
 40
105.0
 40
106.0
 40
106.0
 40
106.0
 40
107.0
 40
107.0
 40
107.0
 40
108.0
 40
108.0
 40
108.0
 40
109.0
 40
109.0
 40
109.0
 40
110.0
 40
110.0
 40
110.0
 40
111.0
 40
111.0
 40
111.0
 40
112.0
 40
112.0
 40
112.0
 40
113.0
 40
113.0
 40
113.0
 40
114.0
 40
114.0
 40
114.0
 40
115.0
 40
115.0
 40
115.0
 40
116.0
 40
116.0
 40
116.0
 40
117.0
 40
117.0
 40
117.0
 40
118.0
 40
118.0
 40
118.0
 40
119.0
 40
119.0
 40
119.0
 40
120.0
 40
120.0
 40
120.0
 40
121.0
 40
121.0
 40
121.0
 40
122.0
 40
122.0
 40
122.0
 40
123.0
 40
123.0
 40
123.0
 40
124.0
 40
124.0
 40
124.0
 40
125.0
 40
125.0
 40
125.0
 40
126.0
 40
126.0
 40
126.0
 40
127.0
 40
127.0
 40
127.0
 40
128.0
 40
128.0
 40
128.0
 40
129.0
 40
129.0
 40
129.0
 40
130.0
 40
130.0
 40
130.0
 40
131.0
 40
131.0
 40
131.0
 40
132.0
 40
132.0
 40
132.0
 40
133.0
 40
133.0
 40
133.0
 40
134.0
 40
134.0
 40
134.0
 40
135.0
 40
135.0
 40
135.0
 40
136.0
 40
136.0
 40
136.0
 40
137.0
 40
137.0
 40
137.0
 40
138.0
 40
138.0
 40
138.0
 40
139.0
 40
139.0
 40
139.0
 40
140.0
 40
140.0
 40
140.0
 40
141.0
 40
141.0
 40
141.0
 40
142.0
 40
142.0
 40
142.0
 40
143.0
 40
143.0
 40
143.0
 40
144.0
 40
144.0
 40
144.0
 40
145.0
 40
145.0
 40
145.0
 40
146.0
 40
146.0
 40
146.0
 40
147.0
 40
147.0
 40
147.0
 40
148.0
 40
148.0
 40
148.0
 40
149.0
 40
149.0
 40
149.0
 40
150.0
 40
150.0
 40
150.0
 40
151.0
 40
151.0
 40
151.0
 40
152.0
 40
152.0
 40
152.0
 40
153.0
 40
153.0
 40
153.0
 40
154.0
 40
154.0
 40
154.0
 40
155.0
 40
155.0
 40
155.0
 40
156.0
 40
156.0
 40
156.0
 40
157.0
 40
157.0
 40
157.0
 40
158.0
 40
158.0
 40
158.0
 40
159.0
 40
159.0
 40
159.0
 40
160.0
 40
160.0
 40
160.0
 40
161.0
 40
161.0
 40
161.0
 40
162.0
 40
162.0
 40
162.0
 40
163.0
 40
163.0
 40
163.0
 40
164.0
 40
164.0
 40
164.0
 40
165.0
 40
165.0
 40
165.0
 40
166.0
 40
166.0
 40
166.0
 40
167.0
 40
167.0
 40
167.0
 40
168.0
 40
168.0
 40
168.0
 40
169.0
 40
169.0
 40
169.0
 40
170.0
 40
170.0
 40
170.0
 40
171.0
 40
171.0
 40
171.0
 40
172.0
 40
172.0
 40
172.0
 40
173.0
 40
173.0
 40
173.0
 40
174.0
 40
174.0
 40
174.0
 40
175.0
 40
175.0
 40
175.0
 40
176.0
 40
176.0
 40
176.0
 40
177.0
 40
177.0
 40
177.0
 40
178.0
 40
178.0
 40
178.0
 40
179.0
 40
179.0
 40
179.0
 40
180.0
 40
180.0
 40
180.0
 40
181.0
 40
181.0
 40
181.0
 40
182.0
 40
182.0
 40
182.0
 40
183.0
 40
183.0
 40
183.0
 40
184.0
 40
184.0
 40
184.0
 40
185.0
 40
185.0
 40
185.0
 40
186.0
 40
186.0
 40
186.0
 40
187.0
 40
187.0
 40
187.0
 40
188.0
 40
188.0
 40
188.0
 40
188.0
 10
167.2959038210232
 20
39.28879923703363
 30
0.0
 10
166.458401108559
 20
39.28879923703363
 30
0.0
 10
165.6639620896604
 20
39.66086954944061
 30
0.0
 10
165.1279052321555
 20
40.30441338608528
 30
0.0
 10
165.1279052321555
 20
40.30441338608528
 30
0.0
 10
153.4979518930491
 20
54.26015068728385
 30
0.0
 10
153.4979518930491
 20
54.26015068728385
 30
0.0
 10
153.4979518930491
 20
54.26015068728385
 30
0.0
 10
141.8679985539427
 20
40.30441338608528
 30
0.0
 10
141.8679985539427
 20
40.30441338608528
 30
0.0
 10
141.3319416964379
 20
39.66086954944061
 30
0.0
 10
140.5375026775392
 20
39.28879923703363
 30
0.0
 10
139.699999965075
 20
39.28879923703363
 30
0.0
 10
138.8624972526108
 20
39.28879923703363
 30
0.0
 10
138.0680582337122
 20
39.66086954944061
 30
0.0
 10
137.5320013762073
 20
40.30441338608528
 30
0.0
 10
137.5320013762073
 20
40.30441338608528
 30
0.0
 10
125.9020480371009
 20
54.26015068728385
 30
0.0
 10
125.9020480371009
 20
54.26015068728385
 30
0.0
 10
125.9020480371009
 20
54.26015068728385
 30
0.0
 10
114.2720946979945
 20
40.30441338608528
 30
0.0
 10
114.2720946979945
 20
40.30441338608528
 30
0.0
 10
113.7360378404896
 20
39.66086954944061
 30
0.0
 10
112.941598821591
 20
39.28879923703363
 30
0.0
 10
112.1040961091268
 20
39.28879923703363
 30
0.0
 10
111.2665933966625
 20
39.28879923703363
 30
0.0
 10
110.4721543777639
 20
39.66086954944061
 30
0.0
 10
109.936097520259
 20
40.30441338608528
 30
0.0
 10
109.936097520259
 20
40.30441338608528
 30
0.0
 10
94.94304196845174
 20
58.29608004825403
 30
0.0
 10
94.94304196845174
 20
58.29608004825403
 30
0.0
 10
94.52032875241159
 20
58.80319810368281
 30
0.0
 10
94.2888183358028
 20
59.44260782574518
 30
0.0
 10
94.2888183358028
 20
60.10268812071904
 30
0.0
 10
94.2888183358028
 20
60.10268812071904
 30
0.0
 10
94.2888183358028
 20
79.52820352384877
 30
0.0
 10
94.2888183358028
 20
79.52820352384877
 30
0.0
 10
94.2888183358028
 20
80.71641695671146
 30
0.0
 10
95.03295896061677
 20
81.7775063661684
 30
0.0
 10
96.15020342648329
 20
82.18196057613673
 30
0.0
 10
97.26917044009244
 20
82.58607027655654
 30
0.0
 10
98.51905108214108
 20
82.24707288080795
 30
0.0
 10
99.27903914618719
 20
81.3348115963138
 30
0.0
 10
99.27903914618719
 20
81.3348115963138
 30
0.0
 10
112.1040961091268
 20
65.94488104460572
 30
0.0
 10
112.1040961091268
 20
65.94488104460572
 30
0.0
 10
112.1040961091268
 20
65.94488104460572
 30
0.0
 10
123.7340494482332
 20
79.90096285535282
 30
0.0
 10
123.7340494482332
 20
79.90096285535282
 30
0.0
 10
124.270106305738
 20
80.54450669199748
 30
0.0
 10
125.0645453246366
 20
80.91657700440446
 30
0.0
 10
125.9020480371009
 20
80.91657700440446
 30
0.0
 10
126.7395507495651
 20
80.91657700440446
 30
0.0
 10
127.5339897684637
 20
80.54450669199748
 30
0.0
 10
128.0700466259686
 20
79.90096285535282
 30
0.0
 10
128.0700466259686
 20
79.90096285535282
 30
0.0
 10
139.699999965075
 20
65.94488104460572
 30
0.0
 10
139.699999965075
 20
65.94488104460572
 30
0.0
 10
139.699999965075
 20
65.94488104460572
 30
0.0
 10
151.3299533041814
 20
79.90096285535282
 30
0.0
 10
151.3299533041814
 20
79.90096285535282
 30
0.0
 10
151.8660101616863
 20
80.54450669199748
 30
0.0
 10
152.6604491805849
 20
80.91657700440446
 30
0.0
 10
153.4979518930491
 20
80.91657700440446
 30
0.0
 10
154.3354546055134
 20
80.91657700440446
 30
0.0
 10
155.129893624412
 20
80.54450669199748
 30
0.0
 10
155.6659504819169
 20
79.90096285535282
 30
0.0
 10
155.6659504819169
 20
79.90096285535282
 30
0.0
 10
167.2959038210232
 20
65.94488104460572
 30
0.0
 10
167.2959038210232
 20
65.94488104460572
 30
0.0
 10
167.2959038210232
 20
65.94488104460572
 30
0.0
 10
179.4667371513139
 20
80.55001884477389
 30
0.0
 10
179.4667371513139
 20
80.55001884477389
 30
0.0
 10
179.4667371513139
 20
80.55001884477389
 30
0.0
 10
179.4667371513139
 20
91.15884588205223
 30
0.0
 10
179.4667371513139
 20
91.15884588205223
 30
0.0
 10
179.4667371513139
 20
91.15884588205223
 30
0.0
 10
169.463902409891
 20
79.15578870189327
 30
0.0
 10
169.463902409891
 20
79.15578870189327
 30
0.0
 10
168.9278455523861
 20
78.5122448652486
 30
0.0
 10
168.1334065334875
 20
78.14017455284161
 30
0.0
 10
167.2959038210232
 20
78.14017455284161
 30
0.0
 10
166.458401108559
 20
78.14017455284161
 30
0.0
 10
165.6639620896604
 20
78.5122448652486
 30
0.0
 10
165.1279052321555
 20
79.15578870189327
 30
0.0
 10
165.1279052321555
 20
79.15578870189327
 30
0.0
 10
153.4979518930491
 20
93.11152600309184
 30
0.0
 10
153.4979518930491
 20
93.11152600309184
 30
0.0
 10
153.4979518930491
 20
93.11152600309184
 30
0.0
 10
141.8679985539427
 20
79.15578870189327
 30
0.0
 10
141.8679985539427
 20
79.15578870189327
 30
0.0
 10
141.3319416964379
 20
78.5122448652486
 30
0.0
 10
140.5375026775392
 20
78.14017455284161
 30
0.0
 10
139.699999965075
 20
78.14017455284161
 30
0.0
 10
138.8624972526108
 20
78.14017455284161
 30
0.0
 10
138.0680582337122
 20
78.5122448652486
 30
0.0
 10
137.5320013762073
 20
79.15578870189327
 30
0.0
 10
137.5320013762073
 20
79.15578870189327
 30
0.0
 10
125.9020480371009
 20
93.11152600309184
 30
0.0
 10
125.9020480371009
 20
93.11152600309184
 30
0.0
 10
125.9020480371009
 20
93.11152600309184
 30
0.0
 10
114.2720946979945
 20
79.15578870189327
 30
0.0
 10
114.2720946979945
 20
79.15578870189327
 30
0.0
 10
113.7360378404896
 20
78.5122448652486
 30
0.0
 10
112.941598821591
 20
78.14017455284161
 30
0.0
 10
112.1040961091268
 20
78.14017455284161
 30
0.0
 10
111.2665933966625
 20
78.14017455284161
 30
0.0
 10
110.4721543777639
 20
78.5122448652486
 30
0.0
 10
109.936097520259
 20
79.15578870189327
 30
0.0
 10
109.936097520259
 20
79.15578870189327
 30
0.0
 10
94.94304196845174
 20
97.14745536406203
 30
0.0
 10
94.94304196845174
 20
97.14745536406203
 30
0.0
 10
94.52032875241159
 20
97.6545734194908
 30
0.0
 10
94.2888183358028
 20
98.29398314155317
 30
0.0
 10
94.2888183358028
 20
98.95406343652704
 30
0.0
 10
94.2888183358028
 20
98.95406343652704
 30
0.0
 10
94.2888183358028
 20
118.3799233492053
 30
0.0
 10
94.2888183358028
 20
118.3799233492053
 30
0.0
 10
94.2888183358028
 20
119.568136782068
 30
0.0
 10
95.03295896061677
 20
120.6292261915249
 30
0.0
 10
96.15020342648329
 20
121.0336804014932
 30
0.0
 10
97.26917044009244
 20
121.4381346114616
 30
0.0
 10
98.51905108214108
 20
121.099137215713
 30
0.0
 10
99.27903914618719
 20
120.1865314216703
 30
0.0
 10
99.27903914618719
 20
120.1865314216703
 30
0.0
 10
112.1040961091268
 20
104.7966008699622
 30
0.0
 10
112.1040961091268
 20
104.7966008699622
 30
0.0
 10
112.1040961091268
 20
104.7966008699622
 30
0.0
 10
123.7340494482332
 20
118.7523381711608
 30
0.0
 10
123.7340494482332
 20
118.7523381711608
 30
0.0
 10
124.270106305738
 20
119.3958820078055
 30
0.0
 10
125.0645453246366
 20
119.7679523202125
 30
0.0
 10
125.9020480371009
 20
119.7679523202125
 30
0.0
 10
126.7395507495651
 20
119.7679523202125
 30
0.0
 10
127.5339897684637
 20
119.3958820078055
 30
0.0
 10
128.0700466259686
 20
118.7523381711608
 30
0.0
 10
128.0700466259686
 20
118.7523381711608
 30
0.0
 10
139.699999965075
 20
104.7966008699622
 30
0.0
 10
139.699999965075
 20
104.7966008699622
 30
0.0
 10
139.699999965075
 20
104.7966008699622
 30
0.0
 10
151.3299533041814
 20
118.7523381711608
 30
0.0
 10
151.3299533041814
 20
118.7523381711608
 30
0.0
 10
151.8660101616863
 20
119.3958820078055
 30
0.0
 10
152.6604491805849
 20
119.7679523202125
 30
0.0
 10
153.4979518930491
 20
119.7679523202125
 30
0.0
 10
154.3354546055134
 20
119.7679523202125
 30
0.0
 10
155.129893624412
 20
119.3958820078055
 30
0.0
 10
155.6659504819169
 20
118.7523381711608
 30
0.0
 10
155.6659504819169
 20
118.7523381711608
 30
0.0
 10
167.2959038210232
 20
104.7966008699622
 30
0.0
 10
167.2959038210232
 20
104.7966008699622
 30
0.0
 10
167.2959038210232
 20
104.7966008699622
 30
0.0
 10
179.4667371513139
 20
119.4017386701304
 30
0.0
 10
179.4667371513139
 20
119.4017386701304
 30
0.0
 10
179.4667371513139
 20
119.4017386701304
 30
0.0
 10
179.4667371513139
 20
130.0105657074087
 30
0.0
 10
179.4667371513139
 20
130.0105657074087
 30
0.0
 10
179.4667371513139
 20
130.0105657074087
 30
0.0
 10
169.463902409891
 20
118.0075085272498
 30
0.0
 10
169.463902409891
 20
118.0075085272498
 30
0.0
 10
168.9278455523861
 20
117.3639646906051
 30
0.0
 10
168.1334065334875
 20
116.9918943781981
 30
0.0
 10
167.2959038210232
 20
116.9918943781981
 30
0.0
 10
166.458401108559
 20
116.9918943781981
 30
0.0
 10
165.6639620896604
 20
117.3639646906051
 30
0.0
 10
165.1279052321555
 20
118.0075085272498
 30
0.0
 10
165.1279052321555
 20
118.0075085272498
 30
0.0
 10
153.4979518930491
 20
131.9630735736741
 30
0.0
 10
153.4979518930491
 20
131.9630735736741
 30
0.0
 10
153.4979518930491
 20
131.9630735736741
 30
0.0
 10
141.8679985539427
 20
118.0075085272498
 30
0.0
 10
141.8679985539427
 20
118.0075085272498
 30
0.0
 10
141.3319416964379
 20
117.3639646906051
 30
0.0
 10
140.5375026775392
 20
116.9918943781981
 30
0.0
 10
139.699999965075
 20
116.9918943781981
 30
0.0
 10
138.8624972526108
 20
116.9918943781981
 30
0.0
 10
138.0680582337122
 20
117.3639646906051
 30
0.0
 10
137.5320013762073
 20
118.0075085272498
 30
0.0
 10
137.5320013762073
 20
118.0075085272498
 30
0.0
 10
125.9020480371009
 20
131.9630735736741
 30
0.0
 10
125.9020480371009
 20
131.9630735736741
 30
0.0
 10
125.9020480371009
 20
131.9630735736741
 30
0.0
 10
114.2720946979945
 20
118.0075085272498
 30
0.0
 10
114.2720946979945
 20
118.0075085272498
 30
0.0
 10
113.7360378404896
 20
117.3639646906051
 30
0.0
 10
112.941598821591
 20
116.9918943781981
 30
0.0
 10
112.1040961091268
 20
116.9918943781981
 30
0.0
 10
111.2665933966625
 20
116.9918943781981
 30
0.0
 10
110.4721543777639
 20
117.3639646906051
 30
0.0
 10
109.936097520259
 20
118.0075085272498
 30
0.0
 10
109.936097520259
 20
118.0075085272498
 30
0.0
 10
94.94304196845174
 20
135.9990029346443
 30
0.0
 10
94.94304196845174
 20
135.9990029346443
 30
0.0
 10
94.52032875241159
 20
136.5062932448473
 30
0.0
 10
94.2888183358028
 20
137.1455307121354
 30
0.0
 10
94.2888183358028
 20
137.8057832618836
 30
0.0
 10
94.2888183358028
 20
137.8057832618836
 30
0.0
 10
94.2888183358028
 20
155.7974499240523
 30
0.0
 10
94.2888183358028
 20
155.7974499240523
 30
0.0
 10
94.2888183358028
 20
156.985663356915
 30
0.0
 10
95.03295896061677
 20
158.0465805115977
 30
0.0
 10
96.15020342648329
 20
158.451034721566
 30
0.0
 10
97.26917044009244
 20
158.8561779506314
 30
0.0
 10
98.51905108214108
 20
158.51666379056
 30
0.0
 10
99.27903914618719
 20
157.6042302512916
 30
0.0
 10
99.27903914618719
 20
157.6042302512916
 30
0.0
 10
112.1040961091268
 20
142.2142996995835
 30
0.0
 10
112.1040961091268
 20
142.2142996995835
 30
0.0
 10
112.1040961091268
 20
142.2142996995835
 30
0.0
 10
123.7340494482332
 20
156.1700370007821
 30
0.0
 10
123.7340494482332
 20
156.1700370007821
 30
0.0
 10
124.270106305738
 20
156.8134085826525
 30
0.0
 10
125.0645453246366
 20
157.1854788950595
 30
0.0
 10
125.9020480371009
 20
157.1854788950595
 30
0.0
 10
126.7395507495651
 20
157.1854788950595
 30
0.0
 10
127.5339897684637
 20
156.8134085826525
 30
0.0
 10
128.0700466259686
 20
156.1700370007821
 30
0.0
 10
128.0700466259686
 20
156.1700370007821
 30
0.0
 10
139.699999965075
 20
142.2142996995835
 30
0.0
 10
139.699999965075
 20
142.2142996995835
 30
0.0
 10
139.699999965075
 20
142.2142996995835
 30
0.0
 10
151.3299533041814
 20
156.1700370007821
 30
0.0
 10
151.3299533041814
 20
156.1700370007821
 30
0.0
 10
151.8660101616863
 20
156.8134085826525
 30
0.0
 10
152.6604491805849
 20
157.1854788950595
 30
0.0
 10
153.4979518930491
 20
157.1854788950595
 30
0.0
 10
154.3354546055134
 20
157.1854788950595
 30
0.0
 10
155.129893624412
 20
156.8134085826525
 30
0.0
 10
155.6659504819169
 20
156.1700370007821
 30
0.0
 10
155.6659504819169
 20
156.1700370007821
 30
0.0
 10
167.2959038210232
 20
142.2142996995835
 30
0.0
 10
167.2959038210232
 20
142.2142996995835
 30
0.0
 10
167.2959038210232
 20
142.2142996995835
 30
0.0
 10
179.4667371513139
 20
156.8192652449774
 30
0.0
 10
179.4667371513139
 20
156.8192652449774
 30
0.0
 10
179.4667371513139
 20
156.8192652449774
 30
0.0
 10
179.4667371513139
 20
165.9938990317463
 30
0.0
 10
179.4667371513139
 20
165.9938990317463
 30
0.0
 10
179.4667371513139
 20
165.9938990317463
 30
0.0
 10
169.463902409891
 20
153.990669596813
 30
0.0
 10
169.463902409891
 20
153.990669596813
 30
0.0
 10
168.9278455523861
 20
153.3472980149426
 30
0.0
 10
168.1334065334875
 20
152.9752277025356
 30
0.0
 10
167.2959038210232
 20
152.9752277025356
 30
0.0
 10
166.458401108559
 20
152.9752277025356
 30
0.0
 10
165.6639620896604
 20
153.3472980149426
 30
0.0
 10
165.1279052321555
 20
153.990669596813
 30
0.0
 10
165.1279052321555
 20
153.990669596813
 30
0.0
 10
153.4979518930491
 20
167.9464068980116
 30
0.0
 10
153.4979518930491
 20
167.9464068980116
 30
0.0
 10
153.4979518930491
 20
167.9464068980116
 30
0.0
 10
141.8679985539427
 20
153.990669596813
 30
0.0
 10
141.8679985539427
 20
153.990669596813
 30
0.0
 10
141.3319416964379
 20
153.3472980149426
 30
0.0
 10
140.5375026775392
 20
152.9752277025356
 30
0.0
 10
139.699999965075
 20
152.9752277025356
 30
0.0
 10
138.8624972526108
 20
152.9752277025356
 30
0.0
 10
138.0680582337122
 20
153.3472980149426
 30
0.0
 10
137.5320013762073
 20
153.990669596813
 30
0.0
 10
137.5320013762073
 20
153.990669596813
 30
0.0
 10
125.9020480371009
 20
167.9464068980116
 30
0.0
 10
125.9020480371009
 20
167.9464068980116
 30
0.0
 10
125.9020480371009
 20
167.9464068980116
 30
0.0
 10
114.2720946979945
 20
153.990669596813
 30
0.0
 10
114.2720946979945
 20
153.990669596813
 30
0.0
 10
113.7360378404896
 20
153.3472980149426
 30
0.0
 10
112.941598821591
 20
152.9752277025356
 30
0.0
 10
112.1040961091268
 20
152.9752277025356
 30
0.0
 10
111.2665933966625
 20
152.9752277025356
 30
0.0
 10
110.4721543777639
 20
153.3472980149426
 30
0.0
 10
109.936097520259
 20
153.990669596813
 30
0.0
 10
109.936097520259
 20
153.990669596813
 30
0.0
 10
94.94304196845174
 20
171.9823362589818
 30
0.0
 10
94.94304196845174
 20
171.9823362589818
 30
0.0
 10
93.94499780637487
 20
173.1798514496546
 30
0.0
 10
94.10691729418161
 20
174.9594155225604
 30
0.0
 10
95.30443248485444
 20
175.957287429863
 30
0.0
 10
96.50160316597876
 20
176.9546425728429
 30
0.0
 10
98.28133949365883
 20
176.7932398493589
 30
0.0
 10
99.27903914618719
 20
175.5958969134603
 30
0.0
 10
99.27903914618719
 20
175.5958969134603
 30
0.0
 10
112.1040961091268
 20
160.2059663617522
 30
0.0
 10
112.1040961091268
 20
160.2059663617522
 30
0.0
 10
112.1040961091268
 20
160.2059663617522
 30
0.0
 10
123.7340494482332
 20
174.1617036629508
 30
0.0
 10
123.7340494482332
 20
174.1617036629508
 30
0.0
 10
124.270106305738
 20
174.8050752448212
 30
0.0
 10
125.0645453246366
 20
175.1771455572282
 30
0.0
 10
125.9020480371009
 20
175.1771455572282
 30
0.0
 10
126.7395507495651
 20
175.1771455572282
 30
0.0
 10
127.5339897684637
 20
174.8050752448212
 30
0.0
 10
128.0700466259686
 20
174.1617036629508
 30
0.0
 10
128.0700466259686
 20
174.1617036629508
 30
0.0
 10
139.699999965075
 20
160.2059663617522
 30
0.0
 10
139.699999965075
 20
160.2059663617522
 30
0.0
 10
139.699999965075
 20
160.2059663617522
 30
0.0
 10
151.3299533041814
 20
174.1617036629508
 30
0.0
 10
151.3299533041814
 20
174.1617036629508
 30
0.0
 10
151.8660101616863
 20
174.8050752448212
 30
0.0
 10
152.6604491805849
 20
175.1771455572282
 30
0.0
 10
153.4979518930491
 20
175.1771455572282
 30
0.0
 10
154.3354546055134
 20
175.1771455572282
 30
0.0
 10
155.129893624412
 20
174.8050752448212
 30
0.0
 10
155.6659504819169
 20
174.1617036629508
 30
0.0
 10
155.6659504819169
 20
174.1617036629508
 30
0.0
 10
167.2959038210232
 20
160.2059663617522
 30
0.0
 10
167.2959038210232
 20
160.2059663617522
 30
0.0
 10
167.2959038210232
 20
160.2059663617522
 30
0.0
 10
180.1209607839628
 20
175.5958969134603
 30
0.0
 10
180.1209607839628
 20
175.5958969134603
 30
0.0
 10
180.881637867106
 20
176.5086749622773
 30
0.0
 10
182.1325520378002
 20
176.8473278484773
 30
0.0
 10
183.2497965036667
 20
176.4427013837347
 30
0.0
 10
184.3670409695332
 20
176.0382471737664
 30
0.0
 10
185.1111815943472
 20
174.9773300190837
 30
0.0
 10
185.1111815943472
 20
173.7891165862211
 30
0.0
 10
185.1111815943472
 20
173.7891165862211
 30
0.0
 10
185.1111815943472
 20
155.7974499240523
 30
0.0
 10
185.1111815943472
 20
155.7974499240523
 30
0.0
 10
185.1111815943472
 20
155.1371973743042
 30
0.0
 10
184.8796711777384
 20
154.4979599070161
 30
0.0
 10
184.4569579616983
 20
153.990669596813
 30
0.0
 10
184.4569579616983
 20
153.990669596813
 30
0.0
 10
169.463902409891
 20
135.9990029346443
 30
0.0
 10
169.463902409891
 20
135.9990029346443
 30
0.0
 10
168.9278455523861
 20
135.3556313527739
 30
0.0
 10
168.1334065334875
 20
134.9835610403669
 30
0.0
 10
167.2959038210232
 20
134.9835610403669
 30
0.0
 10
166.458401108559
 20
134.9835610403669
 30
0.0
 10
165.6639620896604
 20
135.3556313527739
 30
0.0
 10
165.1279052321555
 20
135.9990029346443
 30
0.0
 10
165.1279052321555
 20
135.9990029346443
 30
0.0
 10
153.4979518930491
 20
149.9547402358428
 30
0.0
 10
153.4979518930491
 20
149.9547402358428
 30
0.0
 10
153.4979518930491
 20
149.9547402358428
 30
0.0
 10
141.8679985539427
 20
135.9990029346443
 30
0.0
 10
141.8679985539427
 20
135.9990029346443
 30
0.0
 10
141.3319416964379
 20
135.3556313527739
 30
0.0
 10
140.5375026775392
 20
134.9835610403669
 30
0.0
 10
139.699999965075
 20
134.9835610403669
 30
0.0
 10
138.8624972526108
 20
134.9835610403669
 30
0.0
 10
138.0680582337122
 20
135.3556313527739
 30
0.0
 10
137.5320013762073
 20
135.9990029346443
 30
0.0
 10
137.5320013762073
 20
135.9990029346443
 30
0.0
 10
125.9020480371009
 20
149.9547402358428
 30
0.0
 10
125.9020480371009
 20
149.9547402358428
 30
0.0
 10
125.9020480371009
 20
149.9547402358428
 30
0.0
 10
114.2720946979945
 20
135.9990029346443
 30
0.0
 10
114.2720946979945
 20
135.9990029346443
 30
0.0
 10
113.7360378404896
 20
135.3556313527739
 30
0.0
 10
112.941598821591
 20
134.9835610403669
 30
0.0
 10
112.1040961091268
 20
134.9835610403669
 30
0.0
 10
111.2665933966625
 20
134.9835610403669
 30
0.0
 10
110.4721543777639
 20
135.3556313527739
 30
0.0
 10
109.936097520259
 20
135.9990029346443
 30
0.0
 10
109.936097520259
 20
135.9990029346443
 30
0.0
 10
99.93326277883614
 20
148.0022323695775
 30
0.0
 10
99.93326277883614
 20
148.0022323695775
 30
0.0
 10
99.93326277883614
 20
148.0022323695775
 30
0.0
 10
99.93326277883614
 20
138.8275985828087
 30
0.0
 10
99.93326277883614
 20
138.8275985828087
 30
0.0
 10
99.93326277883614
 20
138.8275985828087
 30
0.0
 10
112.1040961091268
 20
124.2226330374148
 30
0.0
 10
112.1040961091268
 20
124.2226330374148
 30
0.0
 10
112.1040961091268
 20
124.2226330374148
 30
0.0
 10
123.7340494482332
 20
138.1783703386133
 30
0.0
 10
123.7340494482332
 20
138.1783703386133
 30
0.0
 10
124.270106305738
 20
138.8217419204837
 30
0.0
 10
125.0645453246366
 20
139.1938122328907
 30
0.0
 10
125.9020480371009
 20
139.1938122328907
 30
0.0
 10
126.7395507495651
 20
139.1938122328907
 30
0.0
 10
127.5339897684637
 20
138.8217419204837
 30
0.0
 10
128.0700466259686
 20
138.1783703386133
 30
0.0
 10
128.0700466259686
 20
138.1783703386133
 30
0.0
 10
139.699999965075
 20
124.2226330374148
 30
0.0
 10
139.699999965075
 20
124.2226330374148
 30
0.0
 10
139.699999965075
 20
124.2226330374148
 30
0.0
 10
151.3299533041814
 20
138.1783703386133
 30
0.0
 10
151.3299533041814
 20
138.1783703386133
 30
0.0
 10
151.8660101616863
 20
138.8217419204837
 30
0.0
 10
152.6604491805849
 20
139.1938122328907
 30
0.0
 10
153.4979518930491
 20
139.1938122328907
 30
0.0
 10
154.3354546055134
 20
139.1938122328907
 30
0.0
 10
155.129893624412
 20
138.8217419204837
 30
0.0
 10
155.6659504819169
 20
138.1783703386133
 30
0.0
 10
155.6659504819169
 20
138.1783703386133
 30
0.0
 10
167.2959038210232
 20
124.2226330374148
 30
0.0
 10
167.2959038210232
 20
124.2226330374148
 30
0.0
 10
167.2959038210232
 20
124.2226330374148
 30
0.0
 10
180.1209607839628
 20
139.6125635891228
 30
0.0
 10
180.1209607839628
 20
139.6125635891228
 30
0.0
 10
180.881637867106
 20
140.5253416379398
 30
0.0
 10
182.1325520378002
 20
140.8641667789141
 30
0.0
 10
183.2497965036667
 20
140.4593680593972
 30
0.0
 10
184.3670409695332
 20
140.0549138494289
 30
0.0
 10
185.1111815943472
 20
138.9939966947462
 30
0.0
 10
185.1111815943472
 20
137.8057832618836
 30
0.0
 10
185.1111815943472
 20
137.8057832618836
 30
0.0
 10
185.1111815943472
 20
118.3799233492053
 30
0.0
 10
185.1111815943472
 20
118.3799233492053
 30
0.0
 10
185.1111815943472
 20
117.7198430542314
 30
0.0
 10
184.8796711777384
 20
117.0804333321691
 30
0.0
 10
184.4569579616983
 20
116.5733152767403
 30
0.0
 10
184.4569579616983
 20
116.5733152767403
 30
0.0
 10
169.463902409891
 20
98.58164861457153
 30
0.0
 10
169.463902409891
 20
98.58164861457153
 30
0.0
 10
168.9278455523861
 20
97.93810477792687
 30
0.0
 10
168.1334065334875
 20
97.56603446551988
 30
0.0
 10
167.2959038210232
 20
97.56603446551988
 30
0.0
 10
166.458401108559
 20
97.56603446551988
 30
0.0
 10
165.6639620896604
 20
97.93810477792687
 30
0.0
 10
165.1279052321555
 20
98.58164861457153
 30
0.0
 10
165.1279052321555
 20
98.58164861457153
 30
0.0
 10
153.4979518930491
 20
112.5373859157701
 30
0.0
 10
153.4979518930491
 20
112.5373859157701
 30
0.0
 10
153.4979518930491
 20
112.5373859157701
 30
0.0
 10
141.8679985539427
 20
98.58164861457153
 30
0.0
 10
141.8679985539427
 20
98.58164861457153
 30
0.0
 10
141.3319416964379
 20
97.93810477792687
 30
0.0
 10
140.5375026775392
 20
97.56603446551988
 30
0.0
 10
139.699999965075
 20
97.56603446551988
 30
0.0
 10
138.8624972526108
 20
97.56603446551988
 30
0.0
 10
138.0680582337122
 20
97.93810477792687
 30
0.0
 10
137.5320013762073
 20
98.58164861457153
 30
0.0
 10
137.5320013762073
 20
98.58164861457153
 30
0.0
 10
125.9020480371009
 20
112.5373859157701
 30
0.0
 10
125.9020480371009
 20
112.5373859157701
 30
0.0
 10
125.9020480371009
 20
112.5373859157701
 30
0.0
 10
114.2720946979945
 20
98.58164861457153
 30
0.0
 10
114.2720946979945
 20
98.58164861457153
 30
0.0
 10
113.7360378404896
 20
97.93810477792687
 30
0.0
 10
112.941598821591
 20
97.56603446551988
 30
0.0
 10
112.1040961091268
 20
97.56603446551988
 30
0.0
 10
111.2665933966625
 20
97.56603446551988
 30
0.0
 10
110.4721543777639
 20
97.93810477792687
 30
0.0
 10
109.936097520259
 20
98.58164861457153
 30
0.0
 10
109.936097520259
 20
98.58164861457153
 30
0.0
 10
99.93326277883614
 20
110.5847057947305
 30
0.0
 10
99.93326277883614
 20
110.5847057947305
 30
0.0
 10
99.93326277883614
 20
110.5847057947305
 30
0.0
 10
99.93326277883614
 20
99.97587875745214
 30
0.0
 10
99.93326277883614
 20
99.97587875745214
 30
0.0
 10
99.93326277883614
 20
99.97587875745214
 30
0.0
 10
112.1040961091268
 20
85.37074095728399
 30
0.0
 10
112.1040961091268
 20
85.37074095728399
 30
0.0
 10
112.1040961091268
 20
85.37074095728399
 30
0.0
 10
123.7340494482332
 20
99.32647825848255
 30
0.0
 10
123.7340494482332
 20
99.32647825848255
 30
0.0
 10
124.270106305738
 20
99.97002209512722
 30
0.0
 10
125.0645453246366
 20
100.3420924075342
 30
0.0
 10
125.9020480371009
 20
100.3420924075342
 30
0.0
 10
126.7395507495651
 20
100.3420924075342
 30
0.0
 10
127.5339897684637
 20
99.97002209512722
 30
0.0
 10
128.0700466259686
 20
99.32647825848255
 30
0.0
 10
128.0700466259686
 20
99.32647825848255
 30
0.0
 10
139.699999965075
 20
85.37074095728399
 30
0.0
 10
139.699999965075
 20
85.37074095728399
 30
0.0
 10
139.699999965075
 20
85.37074095728399
 30
0.0
 10
151.3299533041814
 20
99.32647825848255
 30
0.0
 10
151.3299533041814
 20
99.32647825848255
 30
0.0
 10
151.8660101616863
 20
99.97002209512722
 30
0.0
 10
152.6604491805849
 20
100.3420924075342
 30
0.0
 10
153.4979518930491
 20
100.3420924075342
 30
0.0
 10
154.3354546055134
 20
100.3420924075342
 30
0.0
 10
155.129893624412
 20
99.97002209512722
 30
0.0
 10
155.6659504819169
 20
99.32647825848255
 30
0.0
 10
155.6659504819169
 20
99.32647825848255
 30
0.0
 10
167.2959038210232
 20
85.37074095728399
 30
0.0
 10
167.2959038210232
 20
85.37074095728399
 30
0.0
 10
167.2959038210232
 20
85.37074095728399
 30
0.0
 10
180.1209607839628
 20
100.760671508992
 30
0.0
 10
180.1209607839628
 20
100.760671508992
 30
0.0
 10
180.881637867106
 20
101.6736218125833
 30
0.0
 10
182.1325520378002
 20
102.0122746987833
 30
0.0
 10
183.2497965036667
 20
101.607820488815
 30
0.0
 10
184.3670409695332
 20
101.2033662788467
 30
0.0
 10
185.1111815943472
 20
100.1422768693897
 30
0.0
 10
185.1111815943472
 20
98.95406343652704
 30
0.0
 10
185.1111815943472
 20
98.95406343652704
 30
0.0
 10
185.1111815943472
 20
79.52820352384877
 30
0.0
 10
185.1111815943472
 20
79.52820352384877
 30
0.0
 10
185.1111815943472
 20
78.86812322887491
 30
0.0
 10
184.8796711777384
 20
78.22871350681254
 30
0.0
 10
184.4569579616983
 20
77.72159545138376
 30
0.0
 10
184.4569579616983
 20
77.72159545138376
 30
0.0
 10
169.463902409891
 20
59.72992878921502
 30
0.0
 10
169.463902409891
 20
59.72992878921502
 30
0.0
 10
168.9278455523861
 20
59.08638495257034
 30
0.0
 10
168.1334065334875
 20
58.71431464016337
 30
0.0
 10
167.2959038210232
 20
58.71431464016337
 30
0.0
 10
166.458401108559
 20
58.71431464016337
 30
0.0
 10
165.6639620896604
 20
59.08638495257034
 30
0.0
 10
165.1279052321555
 20
59.72992878921502
 30
0.0
 10
165.1279052321555
 20
59.72992878921502
 30
0.0
 10
153.4979518930491
 20
73.6860105999621
 30
0.0
 10
153.4979518930491
 20
73.6860105999621
 30
0.0
 10
153.4979518930491
 20
73.6860105999621
 30
0.0
 10
141.8679985539427
 20
59.72992878921502
 30
0.0
 10
141.8679985539427
 20
59.72992878921502
 30
0.0
 10
141.3319416964379
 20
59.08638495257034
 30
0.0
 10
140.5375026775392
 20
58.71431464016337
 30
0.0
 10
139.699999965075
 20
58.71431464016337
 30
0.0
 10
138.8624972526108
 20
58.71431464016337
 30
0.0
 10
138.0680582337122
 20
59.08638495257034
 30
0.0
 10
137.5320013762073
 20
59.72992878921502
 30
0.0
 10
137.5320013762073
 20
59.72992878921502
 30
0.0
 10
125.9020480371009
 20
73.6860105999621
 30
0.0
 10
125.9020480371009
 20
73.6860105999621
 30
0.0
 10
125.9020480371009
 20
73.6860105999621
 30
0.0
 10
114.2720946979945
 20
59.72992878921502
 30
0.0
 10
114.2720946979945
 20
59.72992878921502
 30
0.0
 10
113.7360378404896
 20
59.08638495257034
 30
0.0
 10
112.941598821591
 20
58.71431464016337
 30
0.0
 10
112.1040961091268
 20
58.71431464016337
 30
0.0
 10
111.2665933966625
 20
58.71431464016337
 30
0.0
 10
110.4721543777639
 20
59.08638495257034
 30
0.0
 10
109.936097520259
 20
59.72992878921502
 30
0.0
 10
109.936097520259
 20
59.72992878921502
 30
0.0
 10
99.93326277883614
 20
71.73298596937397
 30
0.0
 10
99.93326277883614
 20
71.73298596937397
 30
0.0
 10
99.93326277883614
 20
71.73298596937397
 30
0.0
 10
99.93326277883614
 20
61.12450344164415
 30
0.0
 10
99.93326277883614
 20
61.12450344164415
 30
0.0
 10
99.93326277883614
 20
61.12450344164415
 30
0.0
 10
112.1040961091268
 20
46.51936564147599
 30
0.0
 10
112.1040961091268
 20
46.51936564147599
 30
0.0
 10
112.1040961091268
 20
46.51936564147599
 30
0.0
 10
123.7340494482332
 20
60.47510294267455
 30
0.0
 10
123.7340494482332
 20
60.47510294267455
 30
0.0
 10
124.270106305738
 20
61.11864677931922
 30
0.0
 10
125.0645453246366
 20
61.4907170917262
 30
0.0
 10
125.9020480371009
 20
61.4907170917262
 30
0.0
 10
126.7395507495651
 20
61.4907170917262
 30
0.0
 10
127.5339897684637
 20
61.11864677931922
 30
0.0
 10
128.0700466259686
 20
60.47510294267455
 30
0.0
 10
128.0700466259686
 20
60.47510294267455
 30
0.0
 10
139.699999965075
 20
46.51936564147599
 30
0.0
 10
139.699999965075
 20
46.51936564147599
 30
0.0
 10
139.699999965075
 20
46.51936564147599
 30
0.0
 10
151.3299533041814
 20
60.47510294267455
 30
0.0
 10
151.3299533041814
 20
60.47510294267455
 30
0.0
 10
151.8660101616863
 20
61.11864677931922
 30
0.0
 10
152.6604491805849
 20
61.4907170917262
 30
0.0
 10
153.4979518930491
 20
61.4907170917262
 30
0.0
 10
154.3354546055134
 20
61.4907170917262
 30
0.0
 10
155.129893624412
 20
61.11864677931922
 30
0.0
 10
155.6659504819169
 20
60.47510294267455
 30
0.0
 10
155.6659504819169
 20
60.47510294267455
 30
0.0
 10
167.2959038210232
 20
46.51936564147599
 30
0.0
 10
167.2959038210232
 20
46.51936564147599
 30
0.0
 10
167.2959038210232
 20
46.51936564147599
 30
0.0
 10
180.1209607839628
 20
61.90929619318406
 30
0.0
 10
180.1209607839628
 20
61.90929619318406
 30
0.0
 10
181.1190049460397
 20
63.10715589340543
 30
0.0
 10
182.8987412737198
 20
63.26873087166365
 30
0.0
 10
184.0955674452956
 20
62.27068670958677
 30
0.0
 10
185.2930826359684
 20
61.27298705705842
 30
0.0
 10
185.4550021237752
 20
59.49325072937835
 30
0.0
 10
184.4569579616983
 20
58.29608004825403
 30
0.0
 10
184.4569579616983
 20
58.29608004825403
 30
0.0
 10
169.463902409891
 20
40.30441338608528
 30
0.0
 10
169.463902409891
 20
40.30441338608528
 30
0.0
 10
168.9278455523861
 20
39.66086954944061
 30
0.0
 10
168.1334065334875
 20
39.28879923703363
 30
0.0
 10
167.2959038210232
 20
39.28879923703363
 30
0.0
  0
ENDBLK
  5
44
330
41
100
AcDbEntity
  8
0
100
AcDbBlockEnd
  0
BLOCK
  5
48
330
46
100
AcDbEntity
  8
0
100
AcDbBlockBegin
  2
BLOCK_3
 70
     0
 10
0.0
 20
0.0
 30
0.0
  3
BLOCK_3
  1

  0
SPLINE
  5
4A
330
46
100
AcDbEntity
  8
LAYER_1
100
AcDbSpline
210
0.0
220
0.0
230
1.0
 70
    11
 71
     3
 72
   569
 73
   565
 74
     0
 42
0.0000000001
 43
0.0000000001
 12
1.0
 22
0.0
 32
0.0
 13
1.0
 23
0.0
 33
0.0
 40
0.0
 40
0.0
 40
0.0
 40
0.0
 40
1.0
 40
1.0
 40
1.0
 40
2.0
 40
2.0
 40
2.0
 40
3.0
 40
3.0
 40
3.0
 40
4.0
 40
4.0
 40
4.0
 40
5.0
 40
5.0
 40
5.0
 40
6.0
 40
6.0
 40
6.0
 40
7.0
 40
7.0
 40
7.0
 40
8.0
 40
8.0
 40
8.0
 40
9.0
 40
9.0
 40
9.0
 40
10.0
 40
10.0
 40
10.0
 40
11.0
 40
11.0
 40
11.0
 40
12.0
 40
12.0
 40
12.0
 40
13.0
 40
13.0
 40
13.0
 40
14.0
 40
14.0
 40
14.0
 40
15.0
 40
15.0
 40
15.0
 40
16.0
 40
16.0
 40
16.0
 40
17.0
 40
17.0
 40
17.0
 40
18.0
 40
18.0
 40
18.0
 40
19.0
 40
19.0
 40
19.0
 40
20.0
 40
20.0
 40
20.0
 40
21.0
 40
21.0
 40
21.0
 40
22.0
 40
22.0
 40
22.0
 40
23.0
 40
23.0
 40
23.0
 40
24.0
 40
24.0
 40
24.0
 40
25.0
 40
25.0
 40
25.0
 40
26.0
 40
26.0
 40
26.0
 40
27.0
 40
27.0
 40
27.0
 40
28.0
 40
28.0
 40
28.0
 40
29.0
 40
29.0
 40
29.0
 40
30.0
 40
30.0
 40
30.0
 40
31.0
 40
31.0
 40
31.0
 40
32.0
 40
32.0
 40
32.0
 40
33.0
 40
33.0
 40
33.0
 40
34.0
 40
34.0
 40
34.0
 40
35.0
 40
35.0
 40
35.0
 40
36.0
 40
36.0
 40
36.0
 40
37.0
 40
37.0
 40
37.0
 40
38.0
 40
38.0
 40
38.0
 40
39.0
 40
39.0
 40
39.0
 40
40.0
 40
40.0
 40
40.0
 40
41.0
 40
41.0
 40
41.0
 40
42.0
 40
42.0
 40
42.0
 40
43.0
 40
43.0
 40
43.0
 40
44.0
 40
44.0
 40
44.0
 40
45.0
 40
45.0
 40
45.0
 40
46.0
 40
46.0
 40
46.0
 40
47.0
 40
47.0
 40
47.0
 40
48.0
 40
48.0
 40
48.0
 40
49.0
 40
49.0
 40
49.0
 40
50.0
 40
50.0
 40
50.0
 40
51.0
 40
51.0
 40
51.0
 40
52.0
 40
52.0
 40
52.0
 40
53.0
 40
53.0
 40
53.0
 40
54.0
 40
54.0
 40
54.0
 40
55.0
 40
55.0
 40
55.0
 40
56.0
 40
56.0
 40
56.0
 40
57.0
 40
57.0
 40
57.0
 40
58.0
 40
58.0
 40
58.0
 40
59.0
 40
59.0
 40
59.0
 40
60.0
 40
60.0
 40
60.0
 40
61.0
 40
61.0
 40
61.0
 40
62.0
 40
62.0
 40
62.0
 40
63.0
 40
63.0
 40
63.0
 40
64.0
 40
64.0
 40
64.0
 40
65.0
 40
65.0
 40
65.0
 40
66.0
 40
66.0
 40
66.0
 40
67.0
 40
67.0
 40
67.0
 40
68.0
 40
68.0
 40
68.0
 40
69.0
 40
69.0
 40
69.0
 40
70.0
 40
70.0
 40
70.0
 40
71.0
 40
71.0
 40
71.0
 40
72.0
 40
72.0
 40
72.0
 40
73.0
 40
73.0
 40
73.0
 40
74.0
 40
74.0
 40
74.0
 40
75.0
 40
75.0
 40
75.0
 40
76.0
 40
76.0
 40
76.0
 40
77.0
 40
77.0
 40
77.0
 40
78.0
 40
78.0
 40
78.0
 40
79.0
 40
79.0
 40
79.0
 40
80.0
 40
80.0
 40
80.0
 40
81.0
 40
81.0
 40
81.0
 40
82.0
 40
82.0
 40
82.0
 40
83.0
 40
83.0
 40
83.0
 40
84.0
 40
84.0
 40
84.0
 40
85.0
 40
85.0
 40
85.0
 40
86.0
 40
86.0
 40
86.0
 40
87.0
 40
87.0
 40
87.0
 40
88.0
 40
88.0
 40
88.0
 40
89.0
 40
89.0
 40
89.0
 40
90.0
 40
90.0
 40
90.0
 40
91.0
 40
91.0
 40
91.0
 40
92.0
 40
92.0
 40
92.0
 40
93.0
 40
93.0
 40
93.0
 40
94.0
 40
94.0
 40
94.0
 40
95.0
 40
95.0
 40
95.0
 40
96.0
 40
96.0
 40
96.0
 40
97.0
 40
97.0
 40
97.0
 40
98.0
 40
98.0
 40
98.0
 40
99.0
 40
99.0
 40
99.0
 40
100.0
 40
100.0
 40
100.0
 40
101.0
 40
101.0
 40
101.0
 40
102.0
 40
102.0
 40
102.0
 40
103.0
 40
103.0
 40
103.0
 40
104.0
 40
104.0
 40
104.0
 40
105.0
 40
105.0
 40
105.0
 40
106.0
 40
106.0
 40
106.0
 40
107.0
 40
107.0
 40
107.0
 40
108.0
 40
108.0
 40
108.0
 40
109.0
 40
109.0
 40
109.0
 40
110.0
 40
110.0
 40
110.0
 40
111.0
 40
111.0
 40
111.0
 40
112.0
 40
112.0
 40
112.0
 40
113.0
 40
113.0
 40
113.0
 40
114.0
 40
114.0
 40
114.0
 40
115.0
 40
115.0
 40
115.0
 40
116.0
 40
116.0
 40
116.0
 40
117.0
 40
117.0
 40
117.0
 40
118.0
 40
118.0
 40
118.0
 40
119.0
 40
119.0
 40
119.0
 40
120.0
 40
120.0
 40
120.0
 40
121.0
 40
121.0
 40
121.0
 40
122.0
 40
122.0
 40
122.0
 40
123.0
 40
123.0
 40
123.0
 40
124.0
 40
124.0
 40
124.0
 40
125.0
 40
125.0
 40
125.0
 40
126.0
 40
126.0
 40
126.0
 40
127.0
 40
127.0
 40
127.0
 40
128.0
 40
128.0
 40
128.0
 40
129.0
 40
129.0
 40
129.0
 40
130.0
 40
130.0
 40
130.0
 40
131.0
 40
131.0
 40
131.0
 40
132.0
 40
132.0
 40
132.0
 40
133.0
 40
133.0
 40
133.0
 40
134.0
 40
134.0
 40
134.0
 40
135.0
 40
135.0
 40
135.0
 40
136.0
 40
136.0
 40
136.0
 40
137.0
 40
137.0
 40
137.0
 40
138.0
 40
138.0
 40
138.0
 40
139.0
 40
139.0
 40
139.0
 40
140.0
 40
140.0
 40
140.0
 40
141.0
 40
141.0
 40
141.0
 40
142.0
 40
142.0
 40
142.0
 40
143.0
 40
143.0
 40
143.0
 40
144.0
 40
144.0
 40
144.0
 40
145.0
 40
145.0
 40
145.0
 40
146.0
 40
146.0
 40
146.0
 40
147.0
 40
147.0
 40
147.0
 40
148.0
 40
148.0
 40
148.0
 40
149.0
 40
149.0
 40
149.0
 40
150.0
 40
150.0
 40
150.0
 40
151.0
 40
151.0
 40
151.0
 40
152.0
 40
152.0
 40
152.0
 40
153.0
 40
153.0
 40
153.0
 40
154.0
 40
154.0
 40
154.0
 40
155.0
 40
155.0
 40
155.0
 40
156.0
 40
156.0
 40
156.0
 40
157.0
 40
157.0
 40
157.0
 40
158.0
 40
158.0
 40
158.0
 40
159.0
 40
159.0
 40
159.0
 40
160.0
 40
160.0
 40
160.0
 40
161.0
 40
161.0
 40
161.0
 40
162.0
 40
162.0
 40
162.0
 40
163.0
 40
163.0
 40
163.0
 40
164.0
 40
164.0
 40
164.0
 40
165.0
 40
165.0
 40
165.0
 40
166.0
 40
166.0
 40
166.0
 40
167.0
 40
167.0
 40
167.0
 40
168.0
 40
168.0
 40
168.0
 40
169.0
 40
169.0
 40
169.0
 40
170.0
 40
170.0
 40
170.0
 40
171.0
 40
171.0
 40
171.0
 40
172.0
 40
172.0
 40
172.0
 40
173.0
 40
173.0
 40
173.0
 40
174.0
 40
174.0
 40
174.0
 40
175.0
 40
175.0
 40
175.0
 40
176.0
 40
176.0
 40
176.0
 40
177.0
 40
177.0
 40
177.0
 40
178.0
 40
178.0
 40
178.0
 40
179.0
 40
179.0
 40
179.0
 40
180.0
 40
180.0
 40
180.0
 40
181.0
 40
181.0
 40
181.0
 40
182.0
 40
182.0
 40
182.0
 40
183.0
 40
183.0
 40
183.0
 40
184.0
 40
184.0
 40
184.0
 40
185.0
 40
185.0
 40
185.0
 40
186.0
 40
186.0
 40
186.0
 40
187.0
 40
187.0
 40
187.0
 40
188.0
 40
188.0
 40
188.0
 40
188.0
 10
167.2959038210232
 20
39.28879923703427
 30
0.0
 10
166.4584011085597
 20
39.28879923703427
 30
0.0
 10
165.6639620896611
 20
39.66086954943997
 30
0.0
 10
165.1279052321555
 20
40.30441338608593
 30
0.0
 10
165.1279052321555
 20
40.30441338608593
 30
0.0
 10
153.4979518930491
 20
54.26015068728385
 30
0.0
 10
153.4979518930491
 20
54.26015068728385
 30
0.0
 10
153.4979518930491
 20
54.26015068728385
 30
0.0
 10
141.8679985539427
 20
40.30441338608593
 30
0.0
 10
141.8679985539427
 20
40.30441338608593
 30
0.0
 10
141.3319416964385
 20
39.66086954943997
 30
0.0
 10
140.5375026775392
 20
39.28879923703427
 30
0.0
 10
139.6999999650747
 20
39.28879923703427
 30
0.0
 10
138.8624972526108
 20
39.28879923703427
 30
0.0
 10
138.0680582337122
 20
39.66086954943997
 30
0.0
 10
137.5320013762069
 20
40.30441338608593
 30
0.0
 10
137.5320013762069
 20
40.30441338608593
 30
0.0
 10
125.9020480371006
 20
54.26015068728385
 30
0.0
 10
125.9020480371006
 20
54.26015068728385
 30
0.0
 10
125.9020480371006
 20
54.26015068728385
 30
0.0
 10
114.2720946979948
 20
40.30441338608593
 30
0.0
 10
114.2720946979948
 20
40.30441338608593
 30
0.0
 10
113.7360378404896
 20
39.66086954943997
 30
0.0
 10
112.941598821591
 20
39.28879923703427
 30
0.0
 10
112.1040961091271
 20
39.28879923703427
 30
0.0
 10
111.2665933966622
 20
39.28879923703427
 30
0.0
 10
110.4721543777636
 20
39.66086954943997
 30
0.0
 10
109.9360975202594
 20
40.30441338608593
 30
0.0
 10
109.9360975202594
 20
40.30441338608593
 30
0.0
 10
94.94304196845174
 20
58.29608004825467
 30
0.0
 10
94.94304196845174
 20
58.29608004825467
 30
0.0
 10
94.52032875241127
 20
58.80319810368216
 30
0.0
 10
94.28881833580311
 20
59.44260782574582
 30
0.0
 10
94.28881833580311
 20
60.1026881207184
 30
0.0
 10
94.28881833580311
 20
60.1026881207184
 30
0.0
 10
94.28881833580311
 20
79.52820352384877
 30
0.0
 10
94.28881833580311
 20
79.52820352384877
 30
0.0
 10
94.28881833580311
 20
80.71641695671146
 30
0.0
 10
95.03295896061677
 20
81.7775063661684
 30
0.0
 10
96.15020342648361
 20
82.18196057613609
 30
0.0
 10
97.26917044009275
 20
82.58607027655718
 30
0.0
 10
98.51905108214075
 20
82.24707288080795
 30
0.0
 10
99.27903914618719
 20
81.33481159631316
 30
0.0
 10
99.27903914618719
 20
81.33481159631316
 30
0.0
 10
112.1040961091271
 20
65.94488104460508
 30
0.0
 10
112.1040961091271
 20
65.94488104460508
 30
0.0
 10
112.1040961091271
 20
65.94488104460508
 30
0.0
 10
123.7340494482328
 20
79.90096285535218
 30
0.0
 10
123.7340494482328
 20
79.90096285535218
 30
0.0
 10
124.270106305738
 20
80.54450669199684
 30
0.0
 10
125.0645453246366
 20
80.91657700440382
 30
0.0
 10
125.9020480371006
 20
80.91657700440382
 30
0.0
 10
126.7395507495651
 20
80.91657700440382
 30
0.0
 10
127.5339897684641
 20
80.54450669199684
 30
0.0
 10
128.0700466259683
 20
79.90096285535218
 30
0.0
 10
128.0700466259683
 20
79.90096285535218
 30
0.0
 10
139.6999999650747
 20
65.94488104460508
 30
0.0
 10
139.6999999650747
 20
65.94488104460508
 30
0.0
 10
139.6999999650747
 20
65.94488104460508
 30
0.0
 10
151.3299533041814
 20
79.90096285535218
 30
0.0
 10
151.3299533041814
 20
79.90096285535218
 30
0.0
 10
151.8660101616863
 20
80.54450669199684
 30
0.0
 10
152.6604491805849
 20
80.91657700440382
 30
0.0
 10
153.4979518930491
 20
80.91657700440382
 30
0.0
 10
154.3354546055127
 20
80.91657700440382
 30
0.0
 10
155.1298936244113
 20
80.54450669199684
 30
0.0
 10
155.6659504819169
 20
79.90096285535218
 30
0.0
 10
155.6659504819169
 20
79.90096285535218
 30
0.0
 10
167.2959038210232
 20
65.94488104460508
 30
0.0
 10
167.2959038210232
 20
65.94488104460508
 30
0.0
 10
167.2959038210232
 20
65.94488104460508
 30
0.0
 10
179.4667371513139
 20
80.55001884477323
 30
0.0
 10
179.4667371513139
 20
80.55001884477323
 30
0.0
 10
179.4667371513139
 20
80.55001884477323
 30
0.0
 10
179.4667371513139
 20
91.1588458820516
 30
0.0
 10
179.4667371513139
 20
91.1588458820516
 30
0.0
 10
179.4667371513139
 20
91.1588458820516
 30
0.0
 10
169.463902409891
 20
79.15578870189391
 30
0.0
 10
169.463902409891
 20
79.15578870189391
 30
0.0
 10
168.9278455523861
 20
78.51224486524924
 30
0.0
 10
168.1334065334875
 20
78.14017455284227
 30
0.0
 10
167.2959038210232
 20
78.14017455284227
 30
0.0
 10
166.4584011085597
 20
78.14017455284227
 30
0.0
 10
165.6639620896611
 20
78.51224486524924
 30
0.0
 10
165.1279052321555
 20
79.15578870189391
 30
0.0
 10
165.1279052321555
 20
79.15578870189391
 30
0.0
 10
153.4979518930491
 20
93.1115260030912
 30
0.0
 10
153.4979518930491
 20
93.1115260030912
 30
0.0
 10
153.4979518930491
 20
93.1115260030912
 30
0.0
 10
141.8679985539427
 20
79.15578870189391
 30
0.0
 10
141.8679985539427
 20
79.15578870189391
 30
0.0
 10
141.3319416964385
 20
78.51224486524924
 30
0.0
 10
140.5375026775392
 20
78.14017455284227
 30
0.0
 10
139.6999999650747
 20
78.14017455284227
 30
0.0
 10
138.8624972526108
 20
78.14017455284227
 30
0.0
 10
138.0680582337122
 20
78.51224486524924
 30
0.0
 10
137.5320013762069
 20
79.15578870189391
 30
0.0
 10
137.5320013762069
 20
79.15578870189391
 30
0.0
 10
125.9020480371006
 20
93.1115260030912
 30
0.0
 10
125.9020480371006
 20
93.1115260030912
 30
0.0
 10
125.9020480371006
 20
93.1115260030912
 30
0.0
 10
114.2720946979948
 20
79.15578870189391
 30
0.0
 10
114.2720946979948
 20
79.15578870189391
 30
0.0
 10
113.7360378404896
 20
78.51224486524924
 30
0.0
 10
112.941598821591
 20
78.14017455284227
 30
0.0
 10
112.1040961091271
 20
78.14017455284227
 30
0.0
 10
111.2665933966622
 20
78.14017455284227
 30
0.0
 10
110.4721543777636
 20
78.51224486524924
 30
0.0
 10
109.9360975202594
 20
79.15578870189391
 30
0.0
 10
109.9360975202594
 20
79.15578870189391
 30
0.0
 10
94.94304196845174
 20
97.14745536406203
 30
0.0
 10
94.94304196845174
 20
97.14745536406203
 30
0.0
 10
94.52032875241127
 20
97.65457341949016
 30
0.0
 10
94.28881833580311
 20
98.29398314155381
 30
0.0
 10
94.28881833580311
 20
98.95406343652768
 30
0.0
 10
94.28881833580311
 20
98.95406343652768
 30
0.0
 10
94.28881833580311
 20
118.3799233492047
 30
0.0
 10
94.28881833580311
 20
118.3799233492047
 30
0.0
 10
94.28881833580311
 20
119.5681367820673
 30
0.0
 10
95.03295896061677
 20
120.6292261915243
 30
0.0
 10
96.15020342648361
 20
121.0336804014936
 30
0.0
 10
97.26917044009275
 20
121.4381346114609
 30
0.0
 10
98.51905108214075
 20
121.0991372157133
 30
0.0
 10
99.27903914618719
 20
120.1865314216703
 30
0.0
 10
99.27903914618719
 20
120.1865314216703
 30
0.0
 10
112.1040961091271
 20
104.7966008699622
 30
0.0
 10
112.1040961091271
 20
104.7966008699622
 30
0.0
 10
112.1040961091271
 20
104.7966008699622
 30
0.0
 10
123.7340494482328
 20
118.7523381711602
 30
0.0
 10
123.7340494482328
 20
118.7523381711602
 30
0.0
 10
124.270106305738
 20
119.3958820078061
 30
0.0
 10
125.0645453246366
 20
119.7679523202118
 30
0.0
 10
125.9020480371006
 20
119.7679523202118
 30
0.0
 10
126.7395507495651
 20
119.7679523202118
 30
0.0
 10
127.5339897684641
 20
119.3958820078061
 30
0.0
 10
128.0700466259683
 20
118.7523381711602
 30
0.0
 10
128.0700466259683
 20
118.7523381711602
 30
0.0
 10
139.6999999650747
 20
104.7966008699622
 30
0.0
 10
139.6999999650747
 20
104.7966008699622
 30
0.0
 10
139.6999999650747
 20
104.7966008699622
 30
0.0
 10
151.3299533041814
 20
118.7523381711602
 30
0.0
 10
151.3299533041814
 20
118.7523381711602
 30
0.0
 10
151.8660101616863
 20
119.3958820078061
 30
0.0
 10
152.6604491805849
 20
119.7679523202118
 30
0.0
 10
153.4979518930491
 20
119.7679523202118
 30
0.0
 10
154.3354546055127
 20
119.7679523202118
 30
0.0
 10
155.1298936244113
 20
119.3958820078061
 30
0.0
 10
155.6659504819169
 20
118.7523381711602
 30
0.0
 10
155.6659504819169
 20
118.7523381711602
 30
0.0
 10
167.2959038210232
 20
104.7966008699622
 30
0.0
 10
167.2959038210232
 20
104.7966008699622
 30
0.0
 10
167.2959038210232
 20
104.7966008699622
 30
0.0
 10
179.4667371513139
 20
119.401738670131
 30
0.0
 10
179.4667371513139
 20
119.401738670131
 30
0.0
 10
179.4667371513139
 20
119.401738670131
 30
0.0
 10
179.4667371513139
 20
130.0105657074094
 30
0.0
 10
179.4667371513139
 20
130.0105657074094
 30
0.0
 10
179.4667371513139
 20
130.0105657074094
 30
0.0
 10
169.463902409891
 20
118.0075085272495
 30
0.0
 10
169.463902409891
 20
118.0075085272495
 30
0.0
 10
168.9278455523861
 20
117.3639646906051
 30
0.0
 10
168.1334065334875
 20
116.9918943781978
 30
0.0
 10
167.2959038210232
 20
116.9918943781978
 30
0.0
 10
166.4584011085597
 20
116.9918943781978
 30
0.0
 10
165.6639620896611
 20
117.3639646906051
 30
0.0
 10
165.1279052321555
 20
118.0075085272495
 30
0.0
 10
165.1279052321555
 20
118.0075085272495
 30
0.0
 10
153.4979518930491
 20
131.9630735736741
 30
0.0
 10
153.4979518930491
 20
131.9630735736741
 30
0.0
 10
153.4979518930491
 20
131.9630735736741
 30
0.0
 10
141.8679985539427
 20
118.0075085272495
 30
0.0
 10
141.8679985539427
 20
118.0075085272495
 30
0.0
 10
141.3319416964385
 20
117.3639646906051
 30
0.0
 10
140.5375026775392
 20
116.9918943781978
 30
0.0
 10
139.6999999650747
 20
116.9918943781978
 30
0.0
 10
138.8624972526108
 20
116.9918943781978
 30
0.0
 10
138.0680582337122
 20
117.3639646906051
 30
0.0
 10
137.5320013762069
 20
118.0075085272495
 30
0.0
 10
137.5320013762069
 20
118.0075085272495
 30
0.0
 10
125.9020480371006
 20
131.9630735736741
 30
0.0
 10
125.9020480371006
 20
131.9630735736741
 30
0.0
 10
125.9020480371006
 20
131.9630735736741
 30
0.0
 10
114.2720946979948
 20
118.0075085272495
 30
0.0
 10
114.2720946979948
 20
118.0075085272495
 30
0.0
 10
113.7360378404896
 20
117.3639646906051
 30
0.0
 10
112.941598821591
 20
116.9918943781978
 30
0.0
 10
112.1040961091271
 20
116.9918943781978
 30
0.0
 10
111.2665933966622
 20
116.9918943781978
 30
0.0
 10
110.4721543777636
 20
117.3639646906051
 30
0.0
 10
109.9360975202594
 20
118.0075085272495
 30
0.0
 10
109.9360975202594
 20
118.0075085272495
 30
0.0
 10
94.94304196845174
 20
135.9990029346449
 30
0.0
 10
94.94304196845174
 20
135.9990029346449
 30
0.0
 10
94.52032875241127
 20
136.5062932448476
 30
0.0
 10
94.28881833580311
 20
137.1455307121361
 30
0.0
 10
94.28881833580311
 20
137.8057832618836
 30
0.0
 10
94.28881833580311
 20
137.8057832618836
 30
0.0
 10
94.28881833580311
 20
155.797449924052
 30
0.0
 10
94.28881833580311
 20
155.797449924052
 30
0.0
 10
94.28881833580311
 20
156.9856633569146
 30
0.0
 10
95.03295896061677
 20
158.0465805115983
 30
0.0
 10
96.15020342648361
 20
158.4510347215657
 30
0.0
 10
97.26917044009275
 20
158.8561779506311
 30
0.0
 10
98.51905108214075
 20
158.5166637905606
 30
0.0
 10
99.27903914618719
 20
157.6042302512909
 30
0.0
 10
99.27903914618719
 20
157.6042302512909
 30
0.0
 10
112.1040961091271
 20
142.2142996995829
 30
0.0
 10
112.1040961091271
 20
142.2142996995829
 30
0.0
 10
112.1040961091271
 20
142.2142996995829
 30
0.0
 10
123.7340494482328
 20
156.1700370007824
 30
0.0
 10
123.7340494482328
 20
156.1700370007824
 30
0.0
 10
124.270106305738
 20
156.8134085826515
 30
0.0
 10
125.0645453246366
 20
157.1854788950588
 30
0.0
 10
125.9020480371006
 20
157.1854788950588
 30
0.0
 10
126.7395507495651
 20
157.1854788950588
 30
0.0
 10
127.5339897684641
 20
156.8134085826515
 30
0.0
 10
128.0700466259683
 20
156.1700370007824
 30
0.0
 10
128.0700466259683
 20
156.1700370007824
 30
0.0
 10
139.6999999650747
 20
142.2142996995829
 30
0.0
 10
139.6999999650747
 20
142.2142996995829
 30
0.0
 10
139.6999999650747
 20
142.2142996995829
 30
0.0
 10
151.3299533041814
 20
156.1700370007824
 30
0.0
 10
151.3299533041814
 20
156.1700370007824
 30
0.0
 10
151.8660101616863
 20
156.8134085826515
 30
0.0
 10
152.6604491805849
 20
157.1854788950588
 30
0.0
 10
153.4979518930491
 20
157.1854788950588
 30
0.0
 10
154.3354546055127
 20
157.1854788950588
 30
0.0
 10
155.1298936244113
 20
156.8134085826515
 30
0.0
 10
155.6659504819169
 20
156.1700370007824
 30
0.0
 10
155.6659504819169
 20
156.1700370007824
 30
0.0
 10
167.2959038210232
 20
142.2142996995829
 30
0.0
 10
167.2959038210232
 20
142.2142996995829
 30
0.0
 10
167.2959038210232
 20
142.2142996995829
 30
0.0
 10
179.4667371513139
 20
156.8192652449781
 30
0.0
 10
179.4667371513139
 20
156.8192652449781
 30
0.0
 10
179.4667371513139
 20
156.8192652449781
 30
0.0
 10
179.4667371513139
 20
165.9938990317463
 30
0.0
 10
179.4667371513139
 20
165.9938990317463
 30
0.0
 10
179.4667371513139
 20
165.9938990317463
 30
0.0
 10
169.463902409891
 20
153.990669596813
 30
0.0
 10
169.463902409891
 20
153.990669596813
 30
0.0
 10
168.9278455523861
 20
153.347298014942
 30
0.0
 10
168.1334065334875
 20
152.9752277025347
 30
0.0
 10
167.2959038210232
 20
152.9752277025347
 30
0.0
 10
166.4584011085597
 20
152.9752277025347
 30
0.0
 10
165.6639620896611
 20
153.347298014942
 30
0.0
 10
165.1279052321555
 20
153.990669596813
 30
0.0
 10
165.1279052321555
 20
153.990669596813
 30
0.0
 10
153.4979518930491
 20
167.946406898011
 30
0.0
 10
153.4979518930491
 20
167.946406898011
 30
0.0
 10
153.4979518930491
 20
167.946406898011
 30
0.0
 10
141.8679985539427
 20
153.990669596813
 30
0.0
 10
141.8679985539427
 20
153.990669596813
 30
0.0
 10
141.3319416964385
 20
153.347298014942
 30
0.0
 10
140.5375026775392
 20
152.9752277025347
 30
0.0
 10
139.6999999650747
 20
152.9752277025347
 30
0.0
 10
138.8624972526108
 20
152.9752277025347
 30
0.0
 10
138.0680582337122
 20
153.347298014942
 30
0.0
 10
137.5320013762069
 20
153.990669596813
 30
0.0
 10
137.5320013762069
 20
153.990669596813
 30
0.0
 10
125.9020480371006
 20
167.946406898011
 30
0.0
 10
125.9020480371006
 20
167.946406898011
 30
0.0
 10
125.9020480371006
 20
167.946406898011
 30
0.0
 10
114.2720946979948
 20
153.990669596813
 30
0.0
 10
114.2720946979948
 20
153.990669596813
 30
0.0
 10
113.7360378404896
 20
153.347298014942
 30
0.0
 10
112.941598821591
 20
152.9752277025347
 30
0.0
 10
112.1040961091271
 20
152.9752277025347
 30
0.0
 10
111.2665933966622
 20
152.9752277025347
 30
0.0
 10
110.4721543777636
 20
153.347298014942
 30
0.0
 10
109.9360975202594
 20
153.990669596813
 30
0.0
 10
109.9360975202594
 20
153.990669596813
 30
0.0
 10
94.94304196845174
 20
171.9823362589818
 30
0.0
 10
94.94304196845174
 20
171.9823362589818
 30
0.0
 10
93.94499780637518
 20
173.1798514496553
 30
0.0
 10
94.10691729418193
 20
174.9594155225607
 30
0.0
 10
95.30443248485477
 20
175.957287429863
 30
0.0
 10
96.50160316597845
 20
176.9546425728425
 30
0.0
 10
98.28133949365883
 20
176.7932398493596
 30
0.0
 10
99.27903914618719
 20
175.595896913461
 30
0.0
 10
99.27903914618719
 20
175.595896913461
 30
0.0
 10
112.1040961091271
 20
160.2059663617532
 30
0.0
 10
112.1040961091271
 20
160.2059663617532
 30
0.0
 10
112.1040961091271
 20
160.2059663617532
 30
0.0
 10
123.7340494482328
 20
174.1617036629508
 30
0.0
 10
123.7340494482328
 20
174.1617036629508
 30
0.0
 10
124.270106305738
 20
174.8050752448219
 30
0.0
 10
125.0645453246366
 20
175.1771455572292
 30
0.0
 10
125.9020480371006
 20
175.1771455572292
 30
0.0
 10
126.7395507495651
 20
175.1771455572292
 30
0.0
 10
127.5339897684641
 20
174.8050752448219
 30
0.0
 10
128.0700466259683
 20
174.1617036629508
 30
0.0
 10
128.0700466259683
 20
174.1617036629508
 30
0.0
 10
139.6999999650747
 20
160.2059663617532
 30
0.0
 10
139.6999999650747
 20
160.2059663617532
 30
0.0
 10
139.6999999650747
 20
160.2059663617532
 30
0.0
 10
151.3299533041814
 20
174.1617036629508
 30
0.0
 10
151.3299533041814
 20
174.1617036629508
 30
0.0
 10
151.8660101616863
 20
174.8050752448219
 30
0.0
 10
152.6604491805849
 20
175.1771455572292
 30
0.0
 10
153.4979518930491
 20
175.1771455572292
 30
0.0
 10
154.3354546055127
 20
175.1771455572292
 30
0.0
 10
155.1298936244113
 20
174.8050752448219
 30
0.0
 10
155.6659504819169
 20
174.1617036629508
 30
0.0
 10
155.6659504819169
 20
174.1617036629508
 30
0.0
 10
167.2959038210232
 20
160.2059663617532
 30
0.0
 10
167.2959038210232
 20
160.2059663617532
 30
0.0
 10
167.2959038210232
 20
160.2059663617532
 30
0.0
 10
180.1209607839635
 20
175.595896913461
 30
0.0
 10
180.1209607839635
 20
175.595896913461
 30
0.0
 10
180.881637867106
 20
176.5086749622773
 30
0.0
 10
182.1325520378002
 20
176.8473278484764
 30
0.0
 10
183.2497965036667
 20
176.4427013837341
 30
0.0
 10
184.3670409695326
 20
176.038247173767
 30
0.0
 10
185.1111815943472
 20
174.9773300190831
 30
0.0
 10
185.1111815943472
 20
173.7891165862204
 30
0.0
 10
185.1111815943472
 20
173.7891165862204
 30
0.0
 10
185.1111815943472
 20
155.797449924052
 30
0.0
 10
185.1111815943472
 20
155.797449924052
 30
0.0
 10
185.1111815943472
 20
155.1371973743045
 30
0.0
 10
184.8796711777384
 20
154.4979599070161
 30
0.0
 10
184.4569579616989
 20
153.990669596813
 30
0.0
 10
184.4569579616989
 20
153.990669596813
 30
0.0
 10
169.463902409891
 20
135.9990029346449
 30
0.0
 10
169.463902409891
 20
135.9990029346449
 30
0.0
 10
168.9278455523861
 20
135.3556313527735
 30
0.0
 10
168.1334065334875
 20
134.9835610403663
 30
0.0
 10
167.2959038210232
 20
134.9835610403663
 30
0.0
 10
166.4584011085597
 20
134.9835610403663
 30
0.0
 10
165.6639620896611
 20
135.3556313527735
 30
0.0
 10
165.1279052321555
 20
135.9990029346449
 30
0.0
 10
165.1279052321555
 20
135.9990029346449
 30
0.0
 10
153.4979518930491
 20
149.9547402358422
 30
0.0
 10
153.4979518930491
 20
149.9547402358422
 30
0.0
 10
153.4979518930491
 20
149.9547402358422
 30
0.0
 10
141.8679985539427
 20
135.9990029346449
 30
0.0
 10
141.8679985539427
 20
135.9990029346449
 30
0.0
 10
141.3319416964385
 20
135.3556313527735
 30
0.0
 10
140.5375026775392
 20
134.9835610403663
 30
0.0
 10
139.6999999650747
 20
134.9835610403663
 30
0.0
 10
138.8624972526108
 20
134.9835610403663
 30
0.0
 10
138.0680582337122
 20
135.3556313527735
 30
0.0
 10
137.5320013762069
 20
135.9990029346449
 30
0.0
 10
137.5320013762069
 20
135.9990029346449
 30
0.0
 10
125.9020480371006
 20
149.9547402358422
 30
0.0
 10
125.9020480371006
 20
149.9547402358422
 30
0.0
 10
125.9020480371006
 20
149.9547402358422
 30
0.0
 10
114.2720946979948
 20
135.9990029346449
 30
0.0
 10
114.2720946979948
 20
135.9990029346449
 30
0.0
 10
113.7360378404896
 20
135.3556313527735
 30
0.0
 10
112.941598821591
 20
134.9835610403663
 30
0.0
 10
112.1040961091271
 20
134.9835610403663
 30
0.0
 10
111.2665933966622
 20
134.9835610403663
 30
0.0
 10
110.4721543777636
 20
135.3556313527735
 30
0.0
 10
109.9360975202594
 20
135.9990029346449
 30
0.0
 10
109.9360975202594
 20
135.9990029346449
 30
0.0
 10
99.93326277883581
 20
148.0022323695778
 30
0.0
 10
99.93326277883581
 20
148.0022323695778
 30
0.0
 10
99.93326277883581
 20
148.0022323695778
 30
0.0
 10
99.93326277883581
 20
138.827598582808
 30
0.0
 10
99.93326277883581
 20
138.827598582808
 30
0.0
 10
99.93326277883581
 20
138.827598582808
 30
0.0
 10
112.1040961091271
 20
124.2226330374144
 30
0.0
 10
112.1040961091271
 20
124.2226330374144
 30
0.0
 10
112.1040961091271
 20
124.2226330374144
 30
0.0
 10
123.7340494482328
 20
138.178370338614
 30
0.0
 10
123.7340494482328
 20
138.178370338614
 30
0.0
 10
124.270106305738
 20
138.8217419204831
 30
0.0
 10
125.0645453246366
 20
139.1938122328904
 30
0.0
 10
125.9020480371006
 20
139.1938122328904
 30
0.0
 10
126.7395507495651
 20
139.1938122328904
 30
0.0
 10
127.5339897684641
 20
138.8217419204831
 30
0.0
 10
128.0700466259683
 20
138.178370338614
 30
0.0
 10
128.0700466259683
 20
138.178370338614
 30
0.0
 10
139.6999999650747
 20
124.2226330374144
 30
0.0
 10
139.6999999650747
 20
124.2226330374144
 30
0.0
 10
139.6999999650747
 20
124.2226330374144
 30
0.0
 10
151.3299533041814
 20
138.178370338614
 30
0.0
 10
151.3299533041814
 20
138.178370338614
 30
0.0
 10
151.8660101616863
 20
138.8217419204831
 30
0.0
 10
152.6604491805849
 20
139.1938122328904
 30
0.0
 10
153.4979518930491
 20
139.1938122328904
 30
0.0
 10
154.3354546055127
 20
139.1938122328904
 30
0.0
 10
155.1298936244113
 20
138.8217419204831
 30
0.0
 10
155.6659504819169
 20
138.178370338614
 30
0.0
 10
155.6659504819169
 20
138.178370338614
 30
0.0
 10
167.2959038210232
 20
124.2226330374144
 30
0.0
 10
167.2959038210232
 20
124.2226330374144
 30
0.0
 10
167.2959038210232
 20
124.2226330374144
 30
0.0
 10
180.1209607839635
 20
139.6125635891225
 30
0.0
 10
180.1209607839635
 20
139.6125635891225
 30
0.0
 10
180.881637867106
 20
140.5253416379404
 30
0.0
 10
182.1325520378002
 20
140.8641667789144
 30
0.0
 10
183.2497965036667
 20
140.4593680593972
 30
0.0
 10
184.3670409695326
 20
140.0549138494283
 30
0.0
 10
185.1111815943472
 20
138.9939966947462
 30
0.0
 10
185.1111815943472
 20
137.8057832618836
 30
0.0
 10
185.1111815943472
 20
137.8057832618836
 30
0.0
 10
185.1111815943472
 20
118.3799233492047
 30
0.0
 10
185.1111815943472
 20
118.3799233492047
 30
0.0
 10
185.1111815943472
 20
117.7198430542305
 30
0.0
 10
184.8796711777384
 20
117.0804333321687
 30
0.0
 10
184.4569579616989
 20
116.5733152767409
 30
0.0
 10
184.4569579616989
 20
116.5733152767409
 30
0.0
 10
169.463902409891
 20
98.5816486145709
 30
0.0
 10
169.463902409891
 20
98.5816486145709
 30
0.0
 10
168.9278455523861
 20
97.93810477792621
 30
0.0
 10
168.1334065334875
 20
97.56603446551924
 30
0.0
 10
167.2959038210232
 20
97.56603446551924
 30
0.0
 10
166.4584011085597
 20
97.56603446551924
 30
0.0
 10
165.6639620896611
 20
97.93810477792621
 30
0.0
 10
165.1279052321555
 20
98.5816486145709
 30
0.0
 10
165.1279052321555
 20
98.5816486145709
 30
0.0
 10
153.4979518930491
 20
112.5373859157701
 30
0.0
 10
153.4979518930491
 20
112.5373859157701
 30
0.0
 10
153.4979518930491
 20
112.5373859157701
 30
0.0
 10
141.8679985539427
 20
98.5816486145709
 30
0.0
 10
141.8679985539427
 20
98.5816486145709
 30
0.0
 10
141.3319416964385
 20
97.93810477792621
 30
0.0
 10
140.5375026775392
 20
97.56603446551924
 30
0.0
 10
139.6999999650747
 20
97.56603446551924
 30
0.0
 10
138.8624972526108
 20
97.56603446551924
 30
0.0
 10
138.0680582337122
 20
97.93810477792621
 30
0.0
 10
137.5320013762069
 20
98.5816486145709
 30
0.0
 10
137.5320013762069
 20
98.5816486145709
 30
0.0
 10
125.9020480371006
 20
112.5373859157701
 30
0.0
 10
125.9020480371006
 20
112.5373859157701
 30
0.0
 10
125.9020480371006
 20
112.5373859157701
 30
0.0
 10
114.2720946979948
 20
98.5816486145709
 30
0.0
 10
114.2720946979948
 20
98.5816486145709
 30
0.0
 10
113.7360378404896
 20
97.93810477792621
 30
0.0
 10
112.941598821591
 20
97.56603446551924
 30
0.0
 10
112.1040961091271
 20
97.56603446551924
 30
0.0
 10
111.2665933966622
 20
97.56603446551924
 30
0.0
 10
110.4721543777636
 20
97.93810477792621
 30
0.0
 10
109.9360975202594
 20
98.5816486145709
 30
0.0
 10
109.9360975202594
 20
98.5816486145709
 30
0.0
 10
99.93326277883581
 20
110.5847057947305
 30
0.0
 10
99.93326277883581
 20
110.5847057947305
 30
0.0
 10
99.93326277883581
 20
110.5847057947305
 30
0.0
 10
99.93326277883581
 20
99.97587875745214
 30
0.0
 10
99.93326277883581
 20
99.97587875745214
 30
0.0
 10
99.93326277883581
 20
99.97587875745214
 30
0.0
 10
112.1040961091271
 20
85.37074095728399
 30
0.0
 10
112.1040961091271
 20
85.37074095728399
 30
0.0
 10
112.1040961091271
 20
85.37074095728399
 30
0.0
 10
123.7340494482328
 20
99.32647825848319
 30
0.0
 10
123.7340494482328
 20
99.32647825848319
 30
0.0
 10
124.270106305738
 20
99.97002209512722
 30
0.0
 10
125.0645453246366
 20
100.3420924075348
 30
0.0
 10
125.9020480371006
 20
100.3420924075348
 30
0.0
 10
126.7395507495651
 20
100.3420924075348
 30
0.0
 10
127.5339897684641
 20
99.97002209512722
 30
0.0
 10
128.0700466259683
 20
99.32647825848319
 30
0.0
 10
128.0700466259683
 20
99.32647825848319
 30
0.0
 10
139.6999999650747
 20
85.37074095728399
 30
0.0
 10
139.6999999650747
 20
85.37074095728399
 30
0.0
 10
139.6999999650747
 20
85.37074095728399
 30
0.0
 10
151.3299533041814
 20
99.32647825848319
 30
0.0
 10
151.3299533041814
 20
99.32647825848319
 30
0.0
 10
151.8660101616863
 20
99.97002209512722
 30
0.0
 10
152.6604491805849
 20
100.3420924075348
 30
0.0
 10
153.4979518930491
 20
100.3420924075348
 30
0.0
 10
154.3354546055127
 20
100.3420924075348
 30
0.0
 10
155.1298936244113
 20
99.97002209512722
 30
0.0
 10
155.6659504819169
 20
99.32647825848319
 30
0.0
 10
155.6659504819169
 20
99.32647825848319
 30
0.0
 10
167.2959038210232
 20
85.37074095728399
 30
0.0
 10
167.2959038210232
 20
85.37074095728399
 30
0.0
 10
167.2959038210232
 20
85.37074095728399
 30
0.0
 10
180.1209607839635
 20
100.7606715089914
 30
0.0
 10
180.1209607839635
 20
100.7606715089914
 30
0.0
 10
180.881637867106
 20
101.6736218125826
 30
0.0
 10
182.1325520378002
 20
102.012274698784
 30
0.0
 10
183.2497965036667
 20
101.607820488815
 30
0.0
 10
184.3670409695326
 20
101.2033662788473
 30
0.0
 10
185.1111815943472
 20
100.1422768693903
 30
0.0
 10
185.1111815943472
 20
98.95406343652768
 30
0.0
 10
185.1111815943472
 20
98.95406343652768
 30
0.0
 10
185.1111815943472
 20
79.52820352384877
 30
0.0
 10
185.1111815943472
 20
79.52820352384877
 30
0.0
 10
185.1111815943472
 20
78.86812322887491
 30
0.0
 10
184.8796711777384
 20
78.22871350681318
 30
0.0
 10
184.4569579616989
 20
77.72159545138312
 30
0.0
 10
184.4569579616989
 20
77.72159545138312
 30
0.0
 10
169.463902409891
 20
59.72992878921502
 30
0.0
 10
169.463902409891
 20
59.72992878921502
 30
0.0
 10
168.9278455523861
 20
59.08638495257034
 30
0.0
 10
168.1334065334875
 20
58.71431464016337
 30
0.0
 10
167.2959038210232
 20
58.71431464016337
 30
0.0
 10
166.4584011085597
 20
58.71431464016337
 30
0.0
 10
165.6639620896611
 20
59.08638495257034
 30
0.0
 10
165.1279052321555
 20
59.72992878921502
 30
0.0
 10
165.1279052321555
 20
59.72992878921502
 30
0.0
 10
153.4979518930491
 20
73.6860105999621
 30
0.0
 10
153.4979518930491
 20
73.6860105999621
 30
0.0
 10
153.4979518930491
 20
73.6860105999621
 30
0.0
 10
141.8679985539427
 20
59.72992878921502
 30
0.0
 10
141.8679985539427
 20
59.72992878921502
 30
0.0
 10
141.3319416964385
 20
59.08638495257034
 30
0.0
 10
140.5375026775392
 20
58.71431464016337
 30
0.0
 10
139.6999999650747
 20
58.71431464016337
 30
0.0
 10
138.8624972526108
 20
58.71431464016337
 30
0.0
 10
138.0680582337122
 20
59.08638495257034
 30
0.0
 10
137.5320013762069
 20
59.72992878921502
 30
0.0
 10
137.5320013762069
 20
59.72992878921502
 30
0.0
 10
125.9020480371006
 20
73.6860105999621
 30
0.0
 10
125.9020480371006
 20
73.6860105999621
 30
0.0
 10
125.9020480371006
 20
73.6860105999621
 30
0.0
 10
114.2720946979948
 20
59.72992878921502
 30
0.0
 10
114.2720946979948
 20
59.72992878921502
 30
0.0
 10
113.7360378404896
 20
59.08638495257034
 30
0.0
 10
112.941598821591
 20
58.71431464016337
 30
0.0
 10
112.1040961091271
 20
58.71431464016337
 30
0.0
 10
111.2665933966622
 20
58.71431464016337
 30
0.0
 10
110.4721543777636
 20
59.08638495257034
 30
0.0
 10
109.9360975202594
 20
59.72992878921502
 30
0.0
 10
109.9360975202594
 20
59.72992878921502
 30
0.0
 10
99.93326277883581
 20
71.73298596937461
 30
0.0
 10
99.93326277883581
 20
71.73298596937461
 30
0.0
 10
99.93326277883581
 20
71.73298596937461
 30
0.0
 10
99.93326277883581
 20
61.12450344164479
 30
0.0
 10
99.93326277883581
 20
61.12450344164479
 30
0.0
 10
99.93326277883581
 20
61.12450344164479
 30
0.0
 10
112.1040961091271
 20
46.51936564147599
 30
0.0
 10
112.1040961091271
 20
46.51936564147599
 30
0.0
 10
112.1040961091271
 20
46.51936564147599
 30
0.0
 10
123.7340494482328
 20
60.47510294267391
 30
0.0
 10
123.7340494482328
 20
60.47510294267391
 30
0.0
 10
124.270106305738
 20
61.11864677931987
 30
0.0
 10
125.0645453246366
 20
61.49071709172685
 30
0.0
 10
125.9020480371006
 20
61.49071709172685
 30
0.0
 10
126.7395507495651
 20
61.49071709172685
 30
0.0
 10
127.5339897684641
 20
61.11864677931987
 30
0.0
 10
128.0700466259683
 20
60.47510294267391
 30
0.0
 10
128.0700466259683
 20
60.47510294267391
 30
0.0
 10
139.6999999650747
 20
46.51936564147599
 30
0.0
 10
139.6999999650747
 20
46.51936564147599
 30
0.0
 10
139.6999999650747
 20
46.51936564147599
 30
0.0
 10
151.3299533041814
 20
60.47510294267391
 30
0.0
 10
151.3299533041814
 20
60.47510294267391
 30
0.0
 10
151.8660101616863
 20
61.11864677931987
 30
0.0
 10
152.6604491805849
 20
61.49071709172685
 30
0.0
 10
153.4979518930491
 20
61.49071709172685
 30
0.0
 10
154.3354546055127
 20
61.49071709172685
 30
0.0
 10
155.1298936244113
 20
61.11864677931987
 30
0.0
 10
155.6659504819169
 20
60.47510294267391
 30
0.0
 10
155.6659504819169
 20
60.47510294267391
 30
0.0
 10
167.2959038210232
 20
46.51936564147599
 30
0.0
 10
167.2959038210232
 20
46.51936564147599
 30
0.0
 10
167.2959038210232
 20
46.51936564147599
 30
0.0
 10
180.1209607839635
 20
61.90929619318406
 30
0.0
 10
180.1209607839635
 20
61.90929619318406
 30
0.0
 10
181.1190049460397
 20
63.10715589340543
 30
0.0
 10
182.8987412737204
 20
63.26873087166365
 30
0.0
 10
184.0955674452956
 20
62.27068670958613
 30
0.0
 10
185.2930826359684
 20
61.27298705705842
 30
0.0
 10
185.4550021237752
 20
59.49325072937835
 30
0.0
 10
184.4569579616989
 20
58.29608004825467
 30
0.0
 10
184.4569579616989
 20
58.29608004825467
 30
0.0
 10
169.463902409891
 20
40.30441338608593
 30
0.0
 10
169.463902409891
 20
40.30441338608593
 30
0.0
 10
168.9278455523861
 20
39.66086954943997
 30
0.0
 10
168.1334065334875
 20
39.28879923703427
 30
0.0
 10
167.2959038210232
 20
39.28879923703427
 30
0.0
  0
HATCH
  5
4B
330
46
100
AcDbEntity
  8
LAYER_1
 62
   182
100
AcDbHatch
 10
0.0
 20
0.0
 30
0.0
210
0.0
220
0.0
230
1.0
  2
SOLID
 70
     1
 71
     0
 91
        1
 92
        1
 93
        1
 72
     4
 94
        3
 73
     0
 74
     1
 95
      569
 96
      565
 40
0.0
 40
0.0
 40
0.0
 40
0.0
 40
1.0
 40
1.0
 40
1.0
 40
2.0
 40
2.0
 40
2.0
 40
3.0
 40
3.0
 40
3.0
 40
4.0
 40
4.0
 40
4.0
 40
5.0
 40
5.0
 40
5.0
 40
6.0
 40
6.0
 40
6.0
 40
7.0
 40
7.0
 40
7.0
 40
8.0
 40
8.0
 40
8.0
 40
9.0
 40
9.0
 40
9.0
 40
10.0
 40
10.0
 40
10.0
 40
11.0
 40
11.0
 40
11.0
 40
12.0
 40
12.0
 40
12.0
 40
13.0
 40
13.0
 40
13.0
 40
14.0
 40
14.0
 40
14.0
 40
15.0
 40
15.0
 40
15.0
 40
16.0
 40
16.0
 40
16.0
 40
17.0
 40
17.0
 40
17.0
 40
18.0
 40
18.0
 40
18.0
 40
19.0
 40
19.0
 40
19.0
 40
20.0
 40
20.0
 40
20.0
 40
21.0
 40
21.0
 40
21.0
 40
22.0
 40
22.0
 40
22.0
 40
23.0
 40
23.0
 40
23.0
 40
24.0
 40
24.0
 40
24.0
 40
25.0
 40
25.0
 40
25.0
 40
26.0
 40
26.0
 40
26.0
 40
27.0
 40
27.0
 40
27.0
 40
28.0
 40
28.0
 40
28.0
 40
29.0
 40
29.0
 40
29.0
 40
30.0
 40
30.0
 40
30.0
 40
31.0
 40
31.0
 40
31.0
 40
32.0
 40
32.0
 40
32.0
 40
33.0
 40
33.0
 40
33.0
 40
34.0
 40
34.0
 40
34.0
 40
35.0
 40
35.0
 40
35.0
 40
36.0
 40
36.0
 40
36.0
 40
37.0
 40
37.0
 40
37.0
 40
38.0
 40
38.0
 40
38.0
 40
39.0
 40
39.0
 40
39.0
 40
40.0
 40
40.0
 40
40.0
 40
41.0
 40
41.0
 40
41.0
 40
42.0
 40
42.0
 40
42.0
 40
43.0
 40
43.0
 40
43.0
 40
44.0
 40
44.0
 40
44.0
 40
45.0
 40
45.0
 40
45.0
 40
46.0
 40
46.0
 40
46.0
 40
47.0
 40
47.0
 40
47.0
 40
48.0
 40
48.0
 40
48.0
 40
49.0
 40
49.0
 40
49.0
 40
50.0
 40
50.0
 40
50.0
 40
51.0
 40
51.0
 40
51.0
 40
52.0
 40
52.0
 40
52.0
 40
53.0
 40
53.0
 40
53.0
 40
54.0
 40
54.0
 40
54.0
 40
55.0
 40
55.0
 40
55.0
 40
56.0
 40
56.0
 40
56.0
 40
57.0
 40
57.0
 40
57.0
 40
58.0
 40
58.0
 40
58.0
 40
59.0
 40
59.0
 40
59.0
 40
60.0
 40
60.0
 40
60.0
 40
61.0
 40
61.0
 40
61.0
 40
62.0
 40
62.0
 40
62.0
 40
63.0
 40
63.0
 40
63.0
 40
64.0
 40
64.0
 40
64.0
 40
65.0
 40
65.0
 40
65.0
 40
66.0
 40
66.0
 40
66.0
 40
67.0
 40
67.0
 40
67.0
 40
68.0
 40
68.0
 40
68.0
 40
69.0
 40
69.0
 40
69.0
 40
70.0
 40
70.0
 40
70.0
 40
71.0
 40
71.0
 40
71.0
 40
72.0
 40
72.0
 40
72.0
 40
73.0
 40
73.0
 40
73.0
 40
74.0
 40
74.0
 40
74.0
 40
75.0
 40
75.0
 40
75.0
 40
76.0
 40
76.0
 40
76.0
 40
77.0
 40
77.0
 40
77.0
 40
78.0
 40
78.0
 40
78.0
 40
79.0
 40
79.0
 40
79.0
 40
80.0
 40
80.0
 40
80.0
 40
81.0
 40
81.0
 40
81.0
 40
82.0
 40
82.0
 40
82.0
 40
83.0
 40
83.0
 40
83.0
 40
84.0
 40
84.0
 40
84.0
 40
85.0
 40
85.0
 40
85.0
 40
86.0
 40
86.0
 40
86.0
 40
87.0
 40
87.0
 40
87.0
 40
88.0
 40
88.0
 40
88.0
 40
89.0
 40
89.0
 40
89.0
 40
90.0
 40
90.0
 40
90.0
 40
91.0
 40
91.0
 40
91.0
 40
92.0
 40
92.0
 40
92.0
 40
93.0
 40
93.0
 40
93.0
 40
94.0
 40
94.0
 40
94.0
 40
95.0
 40
95.0
 40
95.0
 40
96.0
 40
96.0
 40
96.0
 40
97.0
 40
97.0
 40
97.0
 40
98.0
 40
98.0
 40
98.0
 40
99.0
 40
99.0
 40
99.0
 40
100.0
 40
100.0
 40
100.0
 40
101.0
 40
101.0
 40
101.0
 40
102.0
 40
102.0
 40
102.0
 40
103.0
 40
103.0
 40
103.0
 40
104.0
 40
104.0
 40
104.0
 40
105.0
 40
105.0
 40
105.0
 40
106.0
 40
106.0
 40
106.0
 40
107.0
 40
107.0
 40
107.0
 40
108.0
 40
108.0
 40
108.0
 40
109.0
 40
109.0
 40
109.0
 40
110.0
 40
110.0
 40
110.0
 40
111.0
 40
111.0
 40
111.0
 40
112.0
 40
112.0
 40
112.0
 40
113.0
 40
113.0
 40
113.0
 40
114.0
 40
114.0
 40
114.0
 40
115.0
 40
115.0
 40
115.0
 40
116.0
 40
116.0
 40
116.0
 40
117.0
 40
117.0
 40
117.0
 40
118.0
 40
118.0
 40
118.0
 40
119.0
 40
119.0
 40
119.0
 40
120.0
 40
120.0
 40
120.0
 40
121.0
 40
121.0
 40
121.0
 40
122.0
 40
122.0
 40
122.0
 40
123.0
 40
123.0
 40
123.0
 40
124.0
 40
124.0
 40
124.0
 40
125.0
 40
125.0
 40
125.0
 40
126.0
 40
126.0
 40
126.0
 40
127.0
 40
127.0
 40
127.0
 40
128.0
 40
128.0
 40
128.0
 40
129.0
 40
129.0
 40
129.0
 40
130.0
 40
130.0
 40
130.0
 40
131.0
 40
131.0
 40
131.0
 40
132.0
 40
132.0
 40
132.0
 40
133.0
 40
133.0
 40
133.0
 40
134.0
 40
134.0
 40
134.0
 40
135.0
 40
135.0
 40
135.0
 40
136.0
 40
136.0
 40
136.0
 40
137.0
 40
137.0
 40
137.0
 40
138.0
 40
138.0
 40
138.0
 40
139.0
 40
139.0
 40
139.0
 40
140.0
 40
140.0
 40
140.0
 40
141.0
 40
141.0
 40
141.0
 40
142.0
 40
142.0
 40
142.0
 40
143.0
 40
143.0
 40
143.0
 40
144.0
 40
144.0
 40
144.0
 40
145.0
 40
145.0
 40
145.0
 40
146.0
 40
146.0
 40
146.0
 40
147.0
 40
147.0
 40
147.0
 40
148.0
 40
148.0
 40
148.0
 40
149.0
 40
149.0
 40
149.0
 40
150.0
 40
150.0
 40
150.0
 40
151.0
 40
151.0
 40
151.0
 40
152.0
 40
152.0
 40
152.0
 40
153.0
 40
153.0
 40
153.0
 40
154.0
 40
154.0
 40
154.0
 40
155.0
 40
155.0
 40
155.0
 40
156.0
 40
156.0
 40
156.0
 40
157.0
 40
157.0
 40
157.0
 40
158.0
 40
158.0
 40
158.0
 40
159.0
 40
159.0
 40
159.0
 40
160.0
 40
160.0
 40
160.0
 40
161.0
 40
161.0
 40
161.0
 40
162.0
 40
162.0
 40
162.0
 40
163.0
 40
163.0
 40
163.0
 40
164.0
 40
164.0
 40
164.0
 40
165.0
 40
165.0
 40
165.0
 40
166.0
 40
166.0
 40
166.0
 40
167.0
 40
167.0
 40
167.0
 40
168.0
 40
168.0
 40
168.0
 40
169.0
 40
169.0
 40
169.0
 40
170.0
 40
170.0
 40
170.0
 40
171.0
 40
171.0
 40
171.0
 40
172.0
 40
172.0
 40
172.0
 40
173.0
 40
173.0
 40
173.0
 40
174.0
 40
174.0
 40
174.0
 40
175.0
 40
175.0
 40
175.0
 40
176.0
 40
176.0
 40
176.0
 40
177.0
 40
177.0
 40
177.0
 40
178.0
 40
178.0
 40
178.0
 40
179.0
 40
179.0
 40
179.0
 40
180.0
 40
180.0
 40
180.0
 40
181.0
 40
181.0
 40
181.0
 40
182.0
 40
182.0
 40
182.0
 40
183.0
 40
183.0
 40
183.0
 40
184.0
 40
184.0
 40
184.0
 40
185.0
 40
185.0
 40
185.0
 40
186.0
 40
186.0
 40
186.0
 40
187.0
 40
187.0
 40
187.0
 40
188.0
 40
188.0
 40
188.0
 40
188.0
 10
167.2959038210232
 20
39.28879923703427
 10
166.4584011085597
 20
39.28879923703427
 10
165.6639620896611
 20
39.66086954943997
 10
165.1279052321555
 20
40.30441338608593
 10
165.1279052321555
 20
40.30441338608593
 10
153.4979518930491
 20
54.26015068728385
 10
153.4979518930491
 20
54.26015068728385
 10
153.4979518930491
 20
54.26015068728385
 10
141.8679985539427
 20
40.30441338608593
 10
141.8679985539427
 20
40.30441338608593
 10
141.3319416964385
 20
39.66086954943997
 10
140.5375026775392
 20
39.28879923703427
 10
139.6999999650747
 20
39.28879923703427
 10
138.8624972526108
 20
39.28879923703427
 10
138.0680582337122
 20
39.66086954943997
 10
137.5320013762069
 20
40.30441338608593
 10
137.5320013762069
 20
40.30441338608593
 10
125.9020480371006
 20
54.26015068728385
 10
125.9020480371006
 20
54.26015068728385
 10
125.9020480371006
 20
54.26015068728385
 10
114.2720946979948
 20
40.30441338608593
 10
114.2720946979948
 20
40.30441338608593
 10
113.7360378404896
 20
39.66086954943997
 10
112.941598821591
 20
39.28879923703427
 10
112.1040961091271
 20
39.28879923703427
 10
111.2665933966622
 20
39.28879923703427
 10
110.4721543777636
 20
39.66086954943997
 10
109.9360975202594
 20
40.30441338608593
 10
109.9360975202594
 20
40.30441338608593
 10
94.94304196845174
 20
58.29608004825467
 10
94.94304196845174
 20
58.29608004825467
 10
94.52032875241127
 20
58.80319810368216
 10
94.28881833580311
 20
59.44260782574582
 10
94.28881833580311
 20
60.1026881207184
 10
94.28881833580311
 20
60.1026881207184
 10
94.28881833580311
 20
79.52820352384877
 10
94.28881833580311
 20
79.52820352384877
 10
94.28881833580311
 20
80.71641695671146
 10
95.03295896061677
 20
81.7775063661684
 10
96.15020342648361
 20
82.18196057613609
 10
97.26917044009275
 20
82.58607027655718
 10
98.51905108214075
 20
82.24707288080795
 10
99.27903914618719
 20
81.33481159631316
 10
99.27903914618719
 20
81.33481159631316
 10
112.1040961091271
 20
65.94488104460508
 10
112.1040961091271
 20
65.94488104460508
 10
112.1040961091271
 20
65.94488104460508
 10
123.7340494482328
 20
79.90096285535218
 10
123.7340494482328
 20
79.90096285535218
 10
124.270106305738
 20
80.54450669199684
 10
125.0645453246366
 20
80.91657700440382
 10
125.9020480371006
 20
80.91657700440382
 10
126.7395507495651
 20
80.91657700440382
 10
127.5339897684641
 20
80.54450669199684
 10
128.0700466259683
 20
79.90096285535218
 10
128.0700466259683
 20
79.90096285535218
 10
139.6999999650747
 20
65.94488104460508
 10
139.6999999650747
 20
65.94488104460508
 10
139.6999999650747
 20
65.94488104460508
 10
151.3299533041814
 20
79.90096285535218
 10
151.3299533041814
 20
79.90096285535218
 10
151.8660101616863
 20
80.54450669199684
 10
152.6604491805849
 20
80.91657700440382
 10
153.4979518930491
 20
80.91657700440382
 10
154.3354546055127
 20
80.91657700440382
 10
155.1298936244113
 20
80.54450669199684
 10
155.6659504819169
 20
79.90096285535218
 10
155.6659504819169
 20
79.90096285535218
 10
167.2959038210232
 20
65.94488104460508
 10
167.2959038210232
 20
65.94488104460508
 10
167.2959038210232
 20
65.94488104460508
 10
179.4667371513139
 20
80.55001884477323
 10
179.4667371513139
 20
80.55001884477323
 10
179.4667371513139
 20
80.55001884477323
 10
179.4667371513139
 20
91.1588458820516
 10
179.4667371513139
 20
91.1588458820516
 10
179.4667371513139
 20
91.1588458820516
 10
169.463902409891
 20
79.15578870189391
 10
169.463902409891
 20
79.15578870189391
 10
168.9278455523861
 20
78.51224486524924
 10
168.1334065334875
 20
78.14017455284227
 10
167.2959038210232
 20
78.14017455284227
 10
166.4584011085597
 20
78.14017455284227
 10
165.6639620896611
 20
78.51224486524924
 10
165.1279052321555
 20
79.15578870189391
 10
165.1279052321555
 20
79.15578870189391
 10
153.4979518930491
 20
93.1115260030912
 10
153.4979518930491
 20
93.1115260030912
 10
153.4979518930491
 20
93.1115260030912
 10
141.8679985539427
 20
79.15578870189391
 10
141.8679985539427
 20
79.15578870189391
 10
141.3319416964385
 20
78.51224486524924
 10
140.5375026775392
 20
78.14017455284227
 10
139.6999999650747
 20
78.14017455284227
 10
138.8624972526108
 20
78.14017455284227
 10
138.0680582337122
 20
78.51224486524924
 10
137.5320013762069
 20
79.15578870189391
 10
137.5320013762069
 20
79.15578870189391
 10
125.9020480371006
 20
93.1115260030912
 10
125.9020480371006
 20
93.1115260030912
 10
125.9020480371006
 20
93.1115260030912
 10
114.2720946979948
 20
79.15578870189391
 10
114.2720946979948
 20
79.15578870189391
 10
113.7360378404896
 20
78.51224486524924
 10
112.941598821591
 20
78.14017455284227
 10
112.1040961091271
 20
78.14017455284227
 10
111.2665933966622
 20
78.14017455284227
 10
110.4721543777636
 20
78.51224486524924
 10
109.9360975202594
 20
79.15578870189391
 10
109.9360975202594
 20
79.15578870189391
 10
94.94304196845174
 20
97.14745536406203
 10
94.94304196845174
 20
97.14745536406203
 10
94.52032875241127
 20
97.65457341949016
 10
94.28881833580311
 20
98.29398314155381
 10
94.28881833580311
 20
98.95406343652768
 10
94.28881833580311
 20
98.95406343652768
 10
94.28881833580311
 20
118.3799233492047
 10
94.28881833580311
 20
118.3799233492047
 10
94.28881833580311
 20
119.5681367820673
 10
95.03295896061677
 20
120.6292261915243
 10
96.15020342648361
 20
121.0336804014936
 10
97.26917044009275
 20
121.4381346114609
 10
98.51905108214075
 20
121.0991372157133
 10
99.27903914618719
 20
120.1865314216703
 10
99.27903914618719
 20
120.1865314216703
 10
112.1040961091271
 20
104.7966008699622
 10
112.1040961091271
 20
104.7966008699622
 10
112.1040961091271
 20
104.7966008699622
 10
123.7340494482328
 20
118.7523381711602
 10
123.7340494482328
 20
118.7523381711602
 10
124.270106305738
 20
119.3958820078061
 10
125.0645453246366
 20
119.7679523202118
 10
125.9020480371006
 20
119.7679523202118
 10
126.7395507495651
 20
119.7679523202118
 10
127.5339897684641
 20
119.3958820078061
 10
128.0700466259683
 20
118.7523381711602
 10
128.0700466259683
 20
118.7523381711602
 10
139.6999999650747
 20
104.7966008699622
 10
139.6999999650747
 20
104.7966008699622
 10
139.6999999650747
 20
104.7966008699622
 10
151.3299533041814
 20
118.7523381711602
 10
151.3299533041814
 20
118.7523381711602
 10
151.8660101616863
 20
119.3958820078061
 10
152.6604491805849
 20
119.7679523202118
 10
153.4979518930491
 20
119.7679523202118
 10
154.3354546055127
 20
119.7679523202118
 10
155.1298936244113
 20
119.3958820078061
 10
155.6659504819169
 20
118.7523381711602
 10
155.6659504819169
 20
118.7523381711602
 10
167.2959038210232
 20
104.7966008699622
 10
167.2959038210232
 20
104.7966008699622
 10
167.2959038210232
 20
104.7966008699622
 10
179.4667371513139
 20
119.401738670131
 10
179.4667371513139
 20
119.401738670131
 10
179.4667371513139
 20
119.401738670131
 10
179.4667371513139
 20
130.0105657074094
 10
179.4667371513139
 20
130.0105657074094
 10
179.4667371513139
 20
130.0105657074094
 10
169.463902409891
 20
118.0075085272495
 10
169.463902409891
 20
118.0075085272495
 10
168.9278455523861
 20
117.3639646906051
 10
168.1334065334875
 20
116.9918943781978
 10
167.2959038210232
 20
116.9918943781978
 10
166.4584011085597
 20
116.9918943781978
 10
165.6639620896611
 20
117.3639646906051
 10
165.1279052321555
 20
118.0075085272495
 10
165.1279052321555
 20
118.0075085272495
 10
153.4979518930491
 20
131.9630735736741
 10
153.4979518930491
 20
131.9630735736741
 10
153.4979518930491
 20
131.9630735736741
 10
141.8679985539427
 20
118.0075085272495
 10
141.8679985539427
 20
118.0075085272495
 10
141.3319416964385
 20
117.3639646906051
 10
140.5375026775392
 20
116.9918943781978
 10
139.6999999650747
 20
116.9918943781978
 10
138.8624972526108
 20
116.9918943781978
 10
138.0680582337122
 20
117.3639646906051
 10
137.5320013762069
 20
118.0075085272495
 10
137.5320013762069
 20
118.0075085272495
 10
125.9020480371006
 20
131.9630735736741
 10
125.9020480371006
 20
131.9630735736741
 10
125.9020480371006
 20
131.9630735736741
 10
114.2720946979948
 20
118.0075085272495
 10
114.2720946979948
 20
118.0075085272495
 10
113.7360378404896
 20
117.3639646906051
 10
112.941598821591
 20
116.9918943781978
 10
112.1040961091271
 20
116.9918943781978
 10
111.2665933966622
 20
116.9918943781978
 10
110.4721543777636
 20
117.3639646906051
 10
109.9360975202594
 20
118.0075085272495
 10
109.9360975202594
 20
118.0075085272495
 10
94.94304196845174
 20
135.9990029346449
 10
94.94304196845174
 20
135.9990029346449
 10
94.52032875241127
 20
136.5062932448476
 10
94.28881833580311
 20
137.1455307121361
 10
94.28881833580311
 20
137.8057832618836
 10
94.28881833580311
 20
137.8057832618836
 10
94.28881833580311
 20
155.797449924052
 10
94.28881833580311
 20
155.797449924052
 10
94.28881833580311
 20
156.9856633569146
 10
95.03295896061677
 20
158.0465805115983
 10
96.15020342648361
 20
158.4510347215657
 10
97.26917044009275
 20
158.8561779506311
 10
98.51905108214075
 20
158.5166637905606
 10
99.27903914618719
 20
157.6042302512909
 10
99.27903914618719
 20
157.6042302512909
 10
112.1040961091271
 20
142.2142996995829
 10
112.1040961091271
 20
142.2142996995829
 10
112.1040961091271
 20
142.2142996995829
 10
123.7340494482328
 20
156.1700370007824
 10
123.7340494482328
 20
156.1700370007824
 10
124.270106305738
 20
156.8134085826515
 10
125.0645453246366
 20
157.1854788950588
 10
125.9020480371006
 20
157.1854788950588
 10
126.7395507495651
 20
157.1854788950588
 10
127.5339897684641
 20
156.8134085826515
 10
128.0700466259683
 20
156.1700370007824
 10
128.0700466259683
 20
156.1700370007824
 10
139.6999999650747
 20
142.2142996995829
 10
139.6999999650747
 20
142.2142996995829
 10
139.6999999650747
 20
142.2142996995829
 10
151.3299533041814
 20
156.1700370007824
 10
151.3299533041814
 20
156.1700370007824
 10
151.8660101616863
 20
156.8134085826515
 10
152.6604491805849
 20
157.1854788950588
 10
153.4979518930491
 20
157.1854788950588
 10
154.3354546055127
 20
157.1854788950588
 10
155.1298936244113
 20
156.8134085826515
 10
155.6659504819169
 20
156.1700370007824
 10
155.6659504819169
 20
156.1700370007824
 10
167.2959038210232
 20
142.2142996995829
 10
167.2959038210232
 20
142.2142996995829
 10
167.2959038210232
 20
142.2142996995829
 10
179.4667371513139
 20
156.8192652449781
 10
179.4667371513139
 20
156.8192652449781
 10
179.4667371513139
 20
156.8192652449781
 10
179.4667371513139
 20
165.9938990317463
 10
179.4667371513139
 20
165.9938990317463
 10
179.4667371513139
 20
165.9938990317463
 10
169.463902409891
 20
153.990669596813
 10
169.463902409891
 20
153.990669596813
 10
168.9278455523861
 20
153.347298014942
 10
168.1334065334875
 20
152.9752277025347
 10
167.2959038210232
 20
152.9752277025347
 10
166.4584011085597
 20
152.9752277025347
 10
165.6639620896611
 20
153.347298014942
 10
165.1279052321555
 20
153.990669596813
 10
165.1279052321555
 20
153.990669596813
 10
153.4979518930491
 20
167.946406898011
 10
153.4979518930491
 20
167.946406898011
 10
153.4979518930491
 20
167.946406898011
 10
141.8679985539427
 20
153.990669596813
 10
141.8679985539427
 20
153.990669596813
 10
141.3319416964385
 20
153.347298014942
 10
140.5375026775392
 20
152.9752277025347
 10
139.6999999650747
 20
152.9752277025347
 10
138.8624972526108
 20
152.9752277025347
 10
138.0680582337122
 20
153.347298014942
 10
137.5320013762069
 20
153.990669596813
 10
137.5320013762069
 20
153.990669596813
 10
125.9020480371006
 20
167.946406898011
 10
125.9020480371006
 20
167.946406898011
 10
125.9020480371006
 20
167.946406898011
 10
114.2720946979948
 20
153.990669596813
 10
114.2720946979948
 20
153.990669596813
 10
113.7360378404896
 20
153.347298014942
 10
112.941598821591
 20
152.9752277025347
 10
112.1040961091271
 20
152.9752277025347
 10
111.2665933966622
 20
152.9752277025347
 10
110.4721543777636
 20
153.347298014942
 10
109.9360975202594
 20
153.990669596813
 10
109.9360975202594
 20
153.990669596813
 10
94.94304196845174
 20
171.9823362589818
 10
94.94304196845174
 20
171.9823362589818
 10
93.94499780637518
 20
173.1798514496553
 10
94.10691729418193
 20
174.9594155225607
 10
95.30443248485477
 20
175.957287429863
 10
96.50160316597845
 20
176.9546425728425
 10
98.28133949365883
 20
176.7932398493596
 10
99.27903914618719
 20
175.595896913461
 10
99.27903914618719
 20
175.595896913461
 10
112.1040961091271
 20
160.2059663617532
 10
112.1040961091271
 20
160.2059663617532
 10
112.1040961091271
 20
160.2059663617532
 10
123.7340494482328
 20
174.1617036629508
 10
123.7340494482328
 20
174.1617036629508
 10
124.270106305738
 20
174.8050752448219
 10
125.0645453246366
 20
175.1771455572292
 10
125.9020480371006
 20
175.1771455572292
 10
126.7395507495651
 20
175.1771455572292
 10
127.5339897684641
 20
174.8050752448219
 10
128.0700466259683
 20
174.1617036629508
 10
128.0700466259683
 20
174.1617036629508
 10
139.6999999650747
 20
160.2059663617532
 10
139.6999999650747
 20
160.2059663617532
 10
139.6999999650747
 20
160.2059663617532
 10
151.3299533041814
 20
174.1617036629508
 10
151.3299533041814
 20
174.1617036629508
 10
151.8660101616863
 20
174.8050752448219
 10
152.6604491805849
 20
175.1771455572292
 10
153.4979518930491
 20
175.1771455572292
 10
154.3354546055127
 20
175.1771455572292
 10
155.1298936244113
 20
174.8050752448219
 10
155.6659504819169
 20
174.1617036629508
 10
155.6659504819169
 20
174.1617036629508
 10
167.2959038210232
 20
160.2059663617532
 10
167.2959038210232
 20
160.2059663617532
 10
167.2959038210232
 20
160.2059663617532
 10
180.1209607839635
 20
175.595896913461
 10
180.1209607839635
 20
175.595896913461
 10
180.881637867106
 20
176.5086749622773
 10
182.1325520378002
 20
176.8473278484764
 10
183.2497965036667
 20
176.4427013837341
 10
184.3670409695326
 20
176.038247173767
 10
185.1111815943472
 20
174.9773300190831
 10
185.1111815943472
 20
173.7891165862204
 10
185.1111815943472
 20
173.7891165862204
 10
185.1111815943472
 20
155.797449924052
 10
185.1111815943472
 20
155.797449924052
 10
185.1111815943472
 20
155.1371973743045
 10
184.8796711777384
 20
154.4979599070161
 10
184.4569579616989
 20
153.990669596813
 10
184.4569579616989
 20
153.990669596813
 10
169.463902409891
 20
135.9990029346449
 10
169.463902409891
 20
135.9990029346449
 10
168.9278455523861
 20
135.3556313527735
 10
168.1334065334875
 20
134.9835610403663
 10
167.2959038210232
 20
134.9835610403663
 10
166.4584011085597
 20
134.9835610403663
 10
165.6639620896611
 20
135.3556313527735
 10
165.1279052321555
 20
135.9990029346449
 10
165.1279052321555
 20
135.9990029346449
 10
153.4979518930491
 20
149.9547402358422
 10
153.4979518930491
 20
149.9547402358422
 10
153.4979518930491
 20
149.9547402358422
 10
141.8679985539427
 20
135.9990029346449
 10
141.8679985539427
 20
135.9990029346449
 10
141.3319416964385
 20
135.3556313527735
 10
140.5375026775392
 20
134.9835610403663
 10
139.6999999650747
 20
134.9835610403663
 10
138.8624972526108
 20
134.9835610403663
 10
138.0680582337122
 20
135.3556313527735
 10
137.5320013762069
 20
135.9990029346449
 10
137.5320013762069
 20
135.9990029346449
 10
125.9020480371006
 20
149.9547402358422
 10
125.9020480371006
 20
149.9547402358422
 10
125.9020480371006
 20
149.9547402358422
 10
114.2720946979948
 20
135.9990029346449
 10
114.2720946979948
 20
135.9990029346449
 10
113.7360378404896
 20
135.3556313527735
 10
112.941598821591
 20
134.9835610403663
 10
112.1040961091271
 20
134.9835610403663
 10
111.2665933966622
 20
134.9835610403663
 10
110.4721543777636
 20
135.3556313527735
 10
109.9360975202594
 20
135.9990029346449
 10
109.9360975202594
 20
135.9990029346449
 10
99.93326277883581
 20
148.0022323695778
 10
99.93326277883581
 20
148.0022323695778
 10
99.93326277883581
 20
148.0022323695778
 10
99.93326277883581
 20
138.827598582808
 10
99.93326277883581
 20
138.827598582808
 10
99.93326277883581
 20
138.827598582808
 10
112.1040961091271
 20
124.2226330374144
 10
112.1040961091271
 20
124.2226330374144
 10
112.1040961091271
 20
124.2226330374144
 10
123.7340494482328
 20
138.178370338614
 10
123.7340494482328
 20
138.178370338614
 10
124.270106305738
 20
138.8217419204831
 10
125.0645453246366
 20
139.1938122328904
 10
125.9020480371006
 20
139.1938122328904
 10
126.7395507495651
 20
139.1938122328904
 10
127.5339897684641
 20
138.8217419204831
 10
128.0700466259683
 20
138.178370338614
 10
128.0700466259683
 20
138.178370338614
 10
139.6999999650747
 20
124.2226330374144
 10
139.6999999650747
 20
124.2226330374144
 10
139.6999999650747
 20
124.2226330374144
 10
151.3299533041814
 20
138.178370338614
 10
151.3299533041814
 20
138.178370338614
 10
151.8660101616863
 20
138.8217419204831
 10
152.6604491805849
 20
139.1938122328904
 10
153.4979518930491
 20
139.1938122328904
 10
154.3354546055127
 20
139.1938122328904
 10
155.1298936244113
 20
138.8217419204831
 10
155.6659504819169
 20
138.178370338614
 10
155.6659504819169
 20
138.178370338614
 10
167.2959038210232
 20
124.2226330374144
 10
167.2959038210232
 20
124.2226330374144
 10
167.2959038210232
 20
124.2226330374144
 10
180.1209607839635
 20
139.6125635891225
 10
180.1209607839635
 20
139.6125635891225
 10
180.881637867106
 20
140.5253416379404
 10
182.1325520378002
 20
140.8641667789144
 10
183.2497965036667
 20
140.4593680593972
 10
184.3670409695326
 20
140.0549138494283
 10
185.1111815943472
 20
138.9939966947462
 10
185.1111815943472
 20
137.8057832618836
 10
185.1111815943472
 20
137.8057832618836
 10
185.1111815943472
 20
118.3799233492047
 10
185.1111815943472
 20
118.3799233492047
 10
185.1111815943472
 20
117.7198430542305
 10
184.8796711777384
 20
117.0804333321687
 10
184.4569579616989
 20
116.5733152767409
 10
184.4569579616989
 20
116.5733152767409
 10
169.463902409891
 20
98.5816486145709
 10
169.463902409891
 20
98.5816486145709
 10
168.9278455523861
 20
97.93810477792621
 10
168.1334065334875
 20
97.56603446551924
 10
167.2959038210232
 20
97.56603446551924
 10
166.4584011085597
 20
97.56603446551924
 10
165.6639620896611
 20
97.93810477792621
 10
165.1279052321555
 20
98.5816486145709
 10
165.1279052321555
 20
98.5816486145709
 10
153.4979518930491
 20
112.5373859157701
 10
153.4979518930491
 20
112.5373859157701
 10
153.4979518930491
 20
112.5373859157701
 10
141.8679985539427
 20
98.5816486145709
 10
141.8679985539427
 20
98.5816486145709
 10
141.3319416964385
 20
97.93810477792621
 10
140.5375026775392
 20
97.56603446551924
 10
139.6999999650747
 20
97.56603446551924
 10
138.8624972526108
 20
97.56603446551924
 10
138.0680582337122
 20
97.93810477792621
 10
137.5320013762069
 20
98.5816486145709
 10
137.5320013762069
 20
98.5816486145709
 10
125.9020480371006
 20
112.5373859157701
 10
125.9020480371006
 20
112.5373859157701
 10
125.9020480371006
 20
112.5373859157701
 10
114.2720946979948
 20
98.5816486145709
 10
114.2720946979948
 20
98.5816486145709
 10
113.7360378404896
 20
97.93810477792621
 10
112.941598821591
 20
97.56603446551924
 10
112.1040961091271
 20
97.56603446551924
 10
111.2665933966622
 20
97.56603446551924
 10
110.4721543777636
 20
97.93810477792621
 10
109.9360975202594
 20
98.5816486145709
 10
109.9360975202594
 20
98.5816486145709
 10
99.93326277883581
 20
110.5847057947305
 10
99.93326277883581
 20
110.5847057947305
 10
99.93326277883581
 20
110.5847057947305
 10
99.93326277883581
 20
99.97587875745214
 10
99.93326277883581
 20
99.97587875745214
 10
99.93326277883581
 20
99.97587875745214
 10
112.1040961091271
 20
85.37074095728399
 10
112.1040961091271
 20
85.37074095728399
 10
112.1040961091271
 20
85.37074095728399
 10
123.7340494482328
 20
99.32647825848319
 10
123.7340494482328
 20
99.32647825848319
 10
124.270106305738
 20
99.97002209512722
 10
125.0645453246366
 20
100.3420924075348
 10
125.9020480371006
 20
100.3420924075348
 10
126.7395507495651
 20
100.3420924075348
 10
127.5339897684641
 20
99.97002209512722
 10
128.0700466259683
 20
99.32647825848319
 10
128.0700466259683
 20
99.32647825848319
 10
139.6999999650747
 20
85.37074095728399
 10
139.6999999650747
 20
85.37074095728399
 10
139.6999999650747
 20
85.37074095728399
 10
151.3299533041814
 20
99.32647825848319
 10
151.3299533041814
 20
99.32647825848319
 10
151.8660101616863
 20
99.97002209512722
 10
152.6604491805849
 20
100.3420924075348
 10
153.4979518930491
 20
100.3420924075348
 10
154.3354546055127
 20
100.3420924075348
 10
155.1298936244113
 20
99.97002209512722
 10
155.6659504819169
 20
99.32647825848319
 10
155.6659504819169
 20
99.32647825848319
 10
167.2959038210232
 20
85.37074095728399
 10
167.2959038210232
 20
85.37074095728399
 10
167.2959038210232
 20
85.37074095728399
 10
180.1209607839635
 20
100.7606715089914
 10
180.1209607839635
 20
100.7606715089914
 10
180.881637867106
 20
101.6736218125826
 10
182.1325520378002
 20
102.012274698784
 10
183.2497965036667
 20
101.607820488815
 10
184.3670409695326
 20
101.2033662788473
 10
185.1111815943472
 20
100.1422768693903
 10
185.1111815943472
 20
98.95406343652768
 10
185.1111815943472
 20
98.95406343652768
 10
185.1111815943472
 20
79.52820352384877
 10
185.1111815943472
 20
79.52820352384877
 10
185.1111815943472
 20
78.86812322887491
 10
184.8796711777384
 20
78.22871350681318
 10
184.4569579616989
 20
77.72159545138312
 10
184.4569579616989
 20
77.72159545138312
 10
169.463902409891
 20
59.72992878921502
 10
169.463902409891
 20
59.72992878921502
 10
168.9278455523861
 20
59.08638495257034
 10
168.1334065334875
 20
58.71431464016337
 10
167.2959038210232
 20
58.71431464016337
 10
166.4584011085597
 20
58.71431464016337
 10
165.6639620896611
 20
59.08638495257034
 10
165.1279052321555
 20
59.72992878921502
 10
165.1279052321555
 20
59.72992878921502
 10
153.4979518930491
 20
73.6860105999621
 10
153.4979518930491
 20
73.6860105999621
 10
153.4979518930491
 20
73.6860105999621
 10
141.8679985539427
 20
59.72992878921502
 10
141.8679985539427
 20
59.72992878921502
 10
141.3319416964385
 20
59.08638495257034
 10
140.5375026775392
 20
58.71431464016337
 10
139.6999999650747
 20
58.71431464016337
 10
138.8624972526108
 20
58.71431464016337
 10
138.0680582337122
 20
59.08638495257034
 10
137.5320013762069
 20
59.72992878921502
 10
137.5320013762069
 20
59.72992878921502
 10
125.9020480371006
 20
73.6860105999621
 10
125.9020480371006
 20
73.6860105999621
 10
125.9020480371006
 20
73.6860105999621
 10
114.2720946979948
 20
59.72992878921502
 10
114.2720946979948
 20
59.72992878921502
 10
113.7360378404896
 20
59.08638495257034
 10
112.941598821591
 20
58.71431464016337
 10
112.1040961091271
 20
58.71431464016337
 10
111.2665933966622
 20
58.71431464016337
 10
110.4721543777636
 20
59.08638495257034
 10
109.9360975202594
 20
59.72992878921502
 10
109.9360975202594
 20
59.72992878921502
 10
99.93326277883581
 20
71.73298596937461
 10
99.93326277883581
 20
71.73298596937461
 10
99.93326277883581
 20
71.73298596937461
 10
99.93326277883581
 20
61.12450344164479
 10
99.93326277883581
 20
61.12450344164479
 10
99.93326277883581
 20
61.12450344164479
 10
112.1040961091271
 20
46.51936564147599
 10
112.1040961091271
 20
46.51936564147599
 10
112.1040961091271
 20
46.51936564147599
 10
123.7340494482328
 20
60.47510294267391
 10
123.7340494482328
 20
60.47510294267391
 10
124.270106305738
 20
61.11864677931987
 10
125.0645453246366
 20
61.49071709172685
 10
125.9020480371006
 20
61.49071709172685
 10
126.7395507495651
 20
61.49071709172685
 10
127.5339897684641
 20
61.11864677931987
 10
128.0700466259683
 20
60.47510294267391
 10
128.0700466259683
 20
60.47510294267391
 10
139.6999999650747
 20
46.51936564147599
 10
139.6999999650747
 20
46.51936564147599
 10
139.6999999650747
 20
46.51936564147599
 10
151.3299533041814
 20
60.47510294267391
 10
151.3299533041814
 20
60.47510294267391
 10
151.8660101616863
 20
61.11864677931987
 10
152.6604491805849
 20
61.49071709172685
 10
153.4979518930491
 20
61.49071709172685
 10
154.3354546055127
 20
61.49071709172685
 10
155.1298936244113
 20
61.11864677931987
 10
155.6659504819169
 20
60.47510294267391
 10
155.6659504819169
 20
60.47510294267391
 10
167.2959038210232
 20
46.51936564147599
 10
167.2959038210232
 20
46.51936564147599
 10
167.2959038210232
 20
46.51936564147599
 10
180.1209607839635
 20
61.90929619318406
 10
180.1209607839635
 20
61.90929619318406
 10
181.1190049460397
 20
63.10715589340543
 10
182.8987412737204
 20
63.26873087166365
 10
184.0955674452956
 20
62.27068670958613
 10
185.2930826359684
 20
61.27298705705842
 10
185.4550021237752
 20
59.49325072937835
 10
184.4569579616989
 20
58.29608004825467
 10
184.4569579616989
 20
58.29608004825467
 10
169.463902409891
 20
40.30441338608593
 10
169.463902409891
 20
40.30441338608593
 10
168.9278455523861
 20
39.66086954943997
 10
168.1334065334875
 20
39.28879923703427
 10
167.2959038210232
 20
39.28879923703427
 97
        0
 75
     2
 76
     1
 98
        0
  0
ENDBLK
  5
49
330
46
100
AcDbEntity
  8
0
100
AcDbBlockEnd
  0
ENDSEC
  0
SECTION
  2
ENTITIES
  0
INSERT
  5
42
330
1F
100
AcDbEntity
  8
LAYER_1
100
AcDbBlockReference
  2
BLOCK_2
 10
0.0
 20
0.0
 30
0.0
  0
INSERT
  5
47
330
1F
100
AcDbEntity
  8
LAYER_1
100
AcDbBlockReference
  2
BLOCK_3
 10
0.0
 20
0.0
 30
0.0
  0
ENDSEC
  0
SECTION
  2
OBJECTS
  0
DICTIONARY
  5
C
330
0
100
AcDbDictionary
  3
ACAD_GROUP
350
D
  3
ACAD_LAYOUT
350
1A
  3
ACAD_MATERIAL
350
3B
  3
ACAD_MLEADERSTYLE
350
6E
  3
ACAD_MLINESTYLE
350
17
  3
ACAD_PLOTSETTINGS
350
19
  3
ACAD_VISUALSTYLE
350
2A
  3
ACDBHEADERROUNDTRIPXREC
350
4C
  3
ACDBVARIABLEDICTIONARY
350
6C
  0
DICTIONARY
  5
D
102
{ACAD_REACTORS
330
C
102
}
330
C
100
AcDbDictionary
  0
DICTIONARY
  5
1A
102
{ACAD_REACTORS
330
C
102
}
330
C
100
AcDbDictionary
  0
DICTIONARY
  5
3B
102
{ACAD_REACTORS
330
C
102
}
330
C
100
AcDbDictionary
  3
BYBLOCK
350
3D
  3
BYLAYER
350
3C
  3
GLOBAL
350
3E
  0
DICTIONARY
  5
6E
102
{ACAD_REACTORS
330
C
102
}
330
C
100
AcDbDictionary
  0
DICTIONARY
  5
17
102
{ACAD_REACTORS
330
C
102
}
330
C
100
AcDbDictionary
  3
STANDARD
350
18
  0
DICTIONARY
  5
19
102
{ACAD_REACTORS
330
C
102
}
330
C
100
AcDbDictionary
  0
DICTIONARY
  5
2A
102
{ACAD_REACTORS
330
C
102
}
330
C
100
AcDbDictionary
  3
2DWIREFRAME
350
2F
  3
3DWIREFRAME
350
30
  3
3D_HIDDEN
350
31
  3
BASIC
350
32
  3
BRIGHTEN
350
36
  3
COLORCHANGE
350
3A
  3
CONCEPTUAL
350
34
  3
DIM
350
35
  3
FACEPATTERN
350
39
  3
FLAT
350
2B
  3
FLATWITHEDGES
350
2C
  3
GOURAUD
350
2D
  3
GOURAUDWITHEDGES
350
2E
  3
LINEPATTERN
350
38
  3
REALISTIC
350
33
  3
THICKEN
350
37
  0
DICTIONARY
  5
4C
102
{ACAD_REACTORS
330
C
102
}
330
C
100
AcDbDictionary
  3
CEPSNTYPE
350
55
  3
DIMSTYLEDATA
350
6B
  3
FINGERPRINTGUID
350
56
  3
HYPERLINKBASE
350
4F
  3
INSUNITS
350
54
  3
LAYOUTDICT
350
51
  3
LWETCUNION
350
53
  3
PLOTSETDICT
350
52
  3
PSVPSCALE
350
58
  3
PUCSBASE
350
5B
  3
PUCSORGBACK
350
61
  3
PUCSORGBOTTOM
350
5D
  3
PUCSORGFRONT
350
60
  3
PUCSORGLEFT
350
5E
  3
PUCSORGRIGHT
350
5F
  3
PUCSORGTOP
350
5C
  3
PUCSORTHOREF
350
59
  3
PUCSORTHOVIEW
350
5A
  3
STYLESHEET
350
50
  3
TSTACKALIGN
350
4D
  3
TSTACKSIZE
350
4E
  3
UCSBASE
350
64
  3
UCSORGBACK
350
6A
  3
UCSORGBOTTOM
350
66
  3
UCSORGFRONT
350
69
  3
UCSORGLEFT
350
67
  3
UCSORGRIGHT
350
68
  3
UCSORGTOP
350
65
  3
UCSORTHOREF
350
62
  3
UCSORTHOVIEW
350
63
  3
VERSIONGUID
350
57
  0
DICTIONARY
  5
6C
102
{ACAD_REACTORS
330
C
102
}
330
C
100
AcDbDictionary
  3
DIMASSOC
350
6F
  3
HIDETEXT
350
70
  0
MATERIAL
  5
3D
102
{ACAD_REACTORS
330
3B
102
}
102
{ACAD_XDICTIONARY
360
73
102
}
330
3B
100
AcDbMaterial
  1
ByBlock
  0
MATERIAL
  5
3C
102
{ACAD_REACTORS
330
3B
102
}
102
{ACAD_XDICTIONARY
360
71
102
}
330
3B
100
AcDbMaterial
  1
ByLayer
  0
MATERIAL
  5
3E
102
{ACAD_REACTORS
330
3B
102
}
102
{ACAD_XDICTIONARY
360
75
102
}
330
3B
100
AcDbMaterial
  1
Global
  0
MLINESTYLE
  5
18
102
{ACAD_REACTORS
330
17
102
}
330
17
100
AcDbMlineStyle
  2
Standard
 70
     0
  3

 62
   256
 51
90.0
 52
90.0
 71
     2
 49
0.5
 62
   256
  6
BYLAYER
 49
-0.5
 62
   256
  6
BYLAYER
  0
ACAD_PROXY_OBJECT
  5
2F
102
{ACAD_REACTORS
330
2A
102
}
330
2A
100
AcDbProxyObject
 90
      499
 91
      501
 93
      436
310
42CC9915DA5C99599C985B595049028333333333333E3BF0000000000000FB0107901411070040501600405405064090741402480A0340
1001
ACAD
1000
AcDbSavedByObjectVersion
1070
     0
  0
ACAD_PROXY_OBJECT
  5
30
102
{ACAD_REACTORS
330
2A
102
}
330
2A
100
AcDbProxyObject
 90
      499
 91
      501
 93
      436
310
42CCD915DA5C99599C985B595059028333333333333E3BF0000000000000FB0107901411070040501600405405064090741402480A0340
1001
ACAD
1000
AcDbSavedByObjectVersion
1070
     0
  0
ACAD_PROXY_OBJECT
  5
31
102
{ACAD_REACTORS
330
2A
102
}
330
2A
100
AcDbProxyObject
 90
      499
 91
      501
 93
      500
310
424CD108121A5919195B90640502408333333333333E3BF0000000000000FB01079024090700405020000000000001110200405405064090740C02480A0340
1001
ACAD
1000
AcDbSavedByObjectVersion
1070
     0
  0
ACAD_PROXY_OBJECT
  5
32
102
{ACAD_REACTORS
330
2A
102
}
330
2A
100
AcDbProxyObject
 90
      499
 91
      501
 93
      388
310
4150985CDA58D07406404333333333333E3BF0000000000000FB0107A41107004050150841D405064090741402480A0350
1001
ACAD
1000
AcDbSavedByObjectVersion
1070
     0
  0
ACAD_PROXY_OBJECT
  5
36
102
{ACAD_REACTORS
330
2A
102
}
330
2A
100
AcDbProxyObject
 90
      499
 91
      501
 93
      428
310
42109C9A59DA1D195B90C409028333333333333E3BF0000000000000FB010790141107004050150841D405064090741402480A029950
1001
ACAD
1000
AcDbSavedByObjectVersion
1070
     0
  0
ACAD_PROXY_OBJECT
  5
3A
102
{ACAD_REACTORS
330
2A
102
}
330
2A
100
AcDbProxyObject
 90
      499
 91
      501
 93
      452
310
42D0DBDB1BDC90DA185B99D95104090240C333333333333E3BF0000000000000FB0108901411070040501508421405064090741402480A0350
1001
ACAD
1000
AcDbSavedByObjectVersion
1070
     0
  0
ACAD_PROXY_OBJECT
  5
34
102
{ACAD_REACTORS
330
2A
102
}
330
2A
100
AcDbProxyObject
 90
      499
 91
      501
 93
      500
310
4290DBDB98D95C1D1D585B10940D028333333333333E3BF0000000000000FB0107902409070040501000000000000111010841D405064090740C02480A0340
1001
ACAD
1000
AcDbSavedByObjectVersion
1070
     0
  0
ACAD_PROXY_OBJECT
  5
35
102
{ACAD_REACTORS
330
2A
102
}
330
2A
100
AcDbProxyObject
 90
      499
 91
      501
 93
      412
310
40D11A5B50B409028333333333333E3BF0000000000000FB010790141107004050150841D405064090741402480A02677FFFFFD0
1001
ACAD
1000
AcDbSavedByObjectVersion
1070
     0
  0
ACAD_PROXY_OBJECT
  5
39
102
{ACAD_REACTORS
330
2A
102
}
330
2A
100
AcDbProxyObject
 90
      499
 91
      501
 93
      444
310
42D19858D95C185D1D195C9B90F409028333333333333E3BF0000000000000FB010790141107004050150841D405064090741402480A0350
1001
ACAD
1000
AcDbSavedByObjectVersion
1070
     0
  0
ACAD_PROXY_OBJECT
  5
2B
102
{ACAD_REACTORS
330
2A
102
}
330
2A
100
AcDbProxyObject
 90
      499
 91
      501
 93
      388
310
41119B185D240901404333333333333E3BF0000000000000F9010740A41107004050150841D405064090741402480A1B50
1001
ACAD
1000
AcDbSavedByObjectVersion
1070
     0
  0
ACAD_PROXY_OBJECT
  5
2C
102
{ACAD_REACTORS
330
2A
102
}
330
2A
100
AcDbProxyObject
 90
      499
 91
      501
 93
      476
310
43519B185D15DA5D1A115919D95CD0140901404333333333333E3BF0000000000000F9010740901411070040501600405405064090741402480A1B50
1001
ACAD
1000
AcDbSavedByObjectVersion
1070
     0
  0
ACAD_PROXY_OBJECT
  5
2D
102
{ACAD_REACTORS
330
2A
102
}
330
2A
100
AcDbProxyObject
 90
      499
 91
      501
 93
      412
310
41D1DBDD5C985D5910240902404333333333333E3BF0000000000000F9010740A411070040501641D405064090741402480A1B50
1001
ACAD
1000
AcDbSavedByObjectVersion
1070
     0
  0
ACAD_PROXY_OBJECT
  5
2E
102
{ACAD_REACTORS
330
2A
102
}
330
2A
100
AcDbProxyObject
 90
      499
 91
      501
 93
      500
310
4411DBDD5C985D5915DA5D1A115919D95CD0340902404333333333333E3BF0000000000000F9010740901411070040501600405405064090741402480A1B50
1001
ACAD
1000
AcDbSavedByObjectVersion
1070
     0
  0
ACAD_PROXY_OBJECT
  5
38
102
{ACAD_REACTORS
330
2A
102
}
330
2A
100
AcDbProxyObject
 90
      499
 91
      501
 93
      444
310
42D31A5B995C185D1D195C9B90E409028333333333333E3BF0000000000000FB010790141107004050750841D405064090741402483A0350
1001
ACAD
1000
AcDbSavedByObjectVersion
1070
     0
  0
ACAD_PROXY_OBJECT
  5
33
102
{ACAD_REACTORS
330
2A
102
}
330
2A
100
AcDbProxyObject
 90
      499
 91
      501
 93
      420
310
425499585B1A5CDD1A58D08409028333333333333E3BF0000000000000FB01079019070040501508421405064090741402480A1B40
1001
ACAD
1000
AcDbSavedByObjectVersion
1070
     0
  0
ACAD_PROXY_OBJECT
  5
37
102
{ACAD_REACTORS
330
2A
102
}
330
2A
100
AcDbProxyObject
 90
      499
 91
      501
 93
      412
310
41D51A1A58DAD95B90D409028333333333333E3BF0000000000000FB010790141107004050150C41D405064090741402480A0350
1001
ACAD
1000
AcDbSavedByObjectVersion
1070
     0
  0
XRECORD
  5
55
102
{ACAD_REACTORS
330
4C
102
}
330
4C
100
AcDbXrecord
 90
        0
  0
XRECORD
  5
6B
102
{ACAD_REACTORS
330
4C
102
}
330
4C
100
AcDbXrecord
1000
DSTYLE
1002
{
1070
   340
340
11
1002
}
  0
XRECORD
  5
56
102
{ACAD_REACTORS
330
4C
102
}
330
4C
100
AcDbXrecord
  1
{167272C9-61D6-499E-56BB-75E1B7645AE5}
  0
XRECORD
  5
4F
102
{ACAD_REACTORS
330
4C
102
}
330
4C
100
AcDbXrecord
  1

  0
XRECORD
  5
54
102
{ACAD_REACTORS
330
4C
102
}
330
4C
100
AcDbXrecord
 90
        1
  0
XRECORD
  5
51
102
{ACAD_REACTORS
330
4C
102
}
330
4C
100
AcDbXrecord
340
1A
  0
XRECORD
  5
53
102
{ACAD_REACTORS
330
4C
102
}
330
4C
100
AcDbXrecord
 90
    10269
  0
XRECORD
  5
52
102
{ACAD_REACTORS
330
4C
102
}
330
4C
100
AcDbXrecord
340
19
  0
XRECORD
  5
58
102
{ACAD_REACTORS
330
4C
102
}
330
4C
100
AcDbXrecord
 40
0.0
  0
XRECORD
  5
5B
102
{ACAD_REACTORS
330
4C
102
}
330
4C
100
AcDbXrecord
340
0
  0
XRECORD
  5
61
102
{ACAD_REACTORS
330
4C
102
}
330
4C
100
AcDbXrecord
 10
0.0
 20
0.0
 30
0.0
  0
XRECORD
  5
5D
102
{ACAD_REACTORS
330
4C
102
}
330
4C
100
AcDbXrecord
 10
0.0
 20
0.0
 30
0.0
  0
XRECORD
  5
60
102
{ACAD_REACTORS
330
4C
102
}
330
4C
100
AcDbXrecord
 10
0.0
 20
0.0
 30
0.0
  0
XRECORD
  5
5E
102
{ACAD_REACTORS
330
4C
102
}
330
4C
100
AcDbXrecord
 10
0.0
 20
0.0
 30
0.0
  0
XRECORD
  5
5F
102
{ACAD_REACTORS
330
4C
102
}
330
4C
100
AcDbXrecord
 10
0.0
 20
0.0
 30
0.0
  0
XRECORD
  5
5C
102
{ACAD_REACTORS
330
4C
102
}
330
4C
100
AcDbXrecord
 10
0.0
 20
0.0
 30
0.0
  0
XRECORD
  5
59
102
{ACAD_REACTORS
330
4C
102
}
330
4C
100
AcDbXrecord
340
0
  0
XRECORD
  5
5A
102
{ACAD_REACTORS
330
4C
102
}
330
4C
100
AcDbXrecord
 70
     0
  0
XRECORD
  5
50
102
{ACAD_REACTORS
330
4C
102
}
330
4C
100
AcDbXrecord
  1

  0
XRECORD
  5
4D
102
{ACAD_REACTORS
330
4C
102
}
330
4C
100
AcDbXrecord
 90
        1
  0
XRECORD
  5
4E
102
{ACAD_REACTORS
330
4C
102
}
330
4C
100
AcDbXrecord
 90
       70
  0
XRECORD
  5
64
102
{ACAD_REACTORS
330
4C
102
}
330
4C
100
AcDbXrecord
340
0
  0
XRECORD
  5
6A
102
{ACAD_REACTORS
330
4C
102
}
330
4C
100
AcDbXrecord
 10
0.0
 20
0.0
 30
0.0
  0
XRECORD
  5
66
102
{ACAD_REACTORS
330
4C
102
}
330
4C
100
AcDbXrecord
 10
0.0
 20
0.0
 30
0.0
  0
XRECORD
  5
69
102
{ACAD_REACTORS
330
4C
102
}
330
4C
100
AcDbXrecord
 10
0.0
 20
0.0
 30
0.0
  0
XRECORD
  5
67
102
{ACAD_REACTORS
330
4C
102
}
330
4C
100
AcDbXrecord
 10
0.0
 20
0.0
 30
0.0
  0
XRECORD
  5
68
102
{ACAD_REACTORS
330
4C
102
}
330
4C
100
AcDbXrecord
 10
0.0
 20
0.0
 30
0.0
  0
XRECORD
  5
65
102
{ACAD_REACTORS
330
4C
102
}
330
4C
100
AcDbXrecord
 10
0.0
 20
0.0
 30
0.0
  0
XRECORD
  5
62
102
{ACAD_REACTORS
330
4C
102
}
330
4C
100
AcDbXrecord
340
0
  0
XRECORD
  5
63
102
{ACAD_REACTORS
330
4C
102
}
330
4C
100
AcDbXrecord
 70
     0
  0
XRECORD
  5
57
102
{ACAD_REACTORS
330
4C
102
}
330
4C
100
AcDbXrecord
  1
{FAEB1C32-E019-11D5-929B-00C0DF256EC4}
  0
DICTIONARYVAR
  5
6F
102
{ACAD_REACTORS
330
6C
102
}
330
6C
100
DictionaryVariables
280
     0
  1
2
  0
DICTIONARYVAR
  5
70
102
{ACAD_REACTORS
330
6C
102
}
330
6C
100
DictionaryVariables
280
     0
  1
1
  0
DICTIONARY
  5
73
330
3D
100
AcDbDictionary
280
     1
  3
ACAD_XREC_ROUNDTRIP
360
74
  0
DICTIONARY
  5
71
330
3C
100
AcDbDictionary
280
     1
  3
ACAD_XREC_ROUNDTRIP
360
72
  0
DICTIONARY
  5
75
330
3E
100
AcDbDictionary
280
     1
  3
ACAD_XREC_ROUNDTRIP
360
76
  0
XRECORD
  5
74
102
{ACAD_REACTORS
330
73
102
}
330
73
100
AcDbXrecord
102
MATERIAL
148
0.0
149
0.0
149
0.0
 93
        0
 94
      127
282
     0
 72
     1
 77
     1
171
     1
175
     1
179
     1
273
     0
  0
XRECORD
  5
72
102
{ACAD_REACTORS
330
71
102
}
330
71
100
AcDbXrecord
102
MATERIAL
148
0.0
149
0.0
149
0.0
 93
        0
 94
      127
282
     0
 72
     1
 77
     1
171
     1
175
     1
179
     1
273
     0
  0
XRECORD
  5
76
102
{ACAD_REACTORS
330
75
102
}
330
75
100
AcDbXrecord
102
MATERIAL
148
0.0
149
0.0
149
0.0
 93
        0
 94
      127
282
     0
 72
     1
 77
     1
171
     1
175
     1
179
     1
273
     0
  0
ENDSEC
  0
EOF
