  0
SECTION
  2
HEADER
  9
$ACADVER
  1
AC1014
  9
$ACADMAINTVER
 70
     9
  9
$DWGCODEPAGE
  3
UNDEFINED
  9
$INSBASE
 10
0.0
 20
0.0
 30
0.0
  9
$EXTMIN
 10
1.000000000000000E+20
 20
1.000000000000000E+20
 30
1.000000000000000E+20
  9
$EXTMAX
 10
-1.000000000000000E+20
 20
-1.000000000000000E+20
 30
-1.000000000000000E+20
  9
$LIMMIN
 10
0.0
 20
0.0
  9
$LIMMAX
 10
12.0
 20
9.0
  9
$ORTHOMODE
 70
     0
  9
$REGENMODE
 70
     1
  9
$FILLMODE
 70
     1
  9
$QTEXTMODE
 70
     0
  9
$MIRRTEXT
 70
     1
  9
$DRAGMODE
 70
     2
  9
$LTSCALE
 40
1.0
  9
$OSMODE
 70
    37
  9
$ATTMODE
 70
     1
  9
$TEXTSIZE
 40
0.2
  9
$TRACEWID
 40
0.05
  9
$TEXTSTYLE
  7
STANDARD
  9
$CLAYER
  8
0
  9
$CELTYPE
  6
BYLAYER
  9
$CECOLOR
 62
   256
  9
$CELTSCALE
 40
1.0
  9
$DELOBJ
 70
     1
  9
$DISPSILH
 70
     0
  9
$DIMSCALE
 40
1.0
  9
$DIMASZ
 40
0.18
  9
$DIMEXO
 40
0.0625
  9
$DIMDLI
 40
0.38
  9
$DIMRND
 40
0.0
  9
$DIMDLE
 40
0.0
  9
$DIMEXE
 40
0.18
  9
$DIMTP
 40
0.0
  9
$DIMTM
 40
0.0
  9
$DIMTXT
 40
0.18
  9
$DIMCEN
 40
0.09
  9
$DIMTSZ
 40
0.0
  9
$DIMTOL
 70
     0
  9
$DIMLIM
 70
     0
  9
$DIMTIH
 70
     1
  9
$DIMTOH
 70
     1
  9
$DIMSE1
 70
     0
  9
$DIMSE2
 70
     0
  9
$DIMTAD
 70
     0
  9
$DIMZIN
 70
     0
  9
$DIMBLK
  1

  9
$DIMASO
 70
     1
  9
$DIMSHO
 70
     1
  9
$DIMPOST
  1

  9
$DIMAPOST
  1

  9
$DIMALT
 70
     0
  9
$DIMALTD
 70
     2
  9
$DIMALTF
 40
25.4
  9
$DIMLFAC
 40
1.0
  9
$DIMTOFL
 70
     0
  9
$DIMTVP
 40
0.0
  9
$DIMTIX
 70
     0
  9
$DIMSOXD
 70
     0
  9
$DIMSAH
 70
     0
  9
$DIMBLK1
  1

  9
$DIMBLK2
  1

  9
$DIMSTYLE
  2
STANDARD
  9
$DIMCLRD
 70
     0
  9
$DIMCLRE
 70
     0
  9
$DIMCLRT
 70
     0
  9
$DIMTFAC
 40
1.0
  9
$DIMGAP
 40
0.09
  9
$DIMJUST
 70
     0
  9
$DIMSD1
 70
     0
  9
$DIMSD2
 70
     0
  9
$DIMTOLJ
 70
     1
  9
$DIMTZIN
 70
     0
  9
$DIMALTZ
 70
     0
  9
$DIMALTTZ
 70
     0
  9
$DIMFIT
 70
     3
  9
$DIMUPT
 70
     0
  9
$DIMUNIT
 70
     2
  9
$DIMDEC
 70
     4
  9
$DIMTDEC
 70
     4
  9
$DIMALTU
 70
     2
  9
$DIMALTTD
 70
     2
  9
$DIMTXSTY
  7
STANDARD
  9
$DIMAUNIT
 70
     0
  9
$LUNITS
 70
     2
  9
$LUPREC
 70
     4
  9
$SKETCHINC
 40
0.1
  9
$FILLETRAD
 40
0.5
  9
$AUNITS
 70
     0
  9
$AUPREC
 70
     0
  9
$MENU
  1
.
  9
$ELEVATION
 40
0.0
  9
$PELEVATION
 40
0.0
  9
$THICKNESS
 40
0.0
  9
$LIMCHECK
 70
     0
  9
$CHAMFERA
 40
0.5
  9
$CHAMFERB
 40
0.5
  9
$CHAMFERC
 40
1.0
  9
$CHAMFERD
 40
0.0
  9
$SKPOLY
 70
     0
  9
$TDCREATE
 40
2458248.836724525
  9
$TDUPDATE
 40
2458248.836724525
  9
$TDINDWG
 40
0.0000000116
  9
$TDUSRTIMER
 40
0.0000000116
  9
$USRTIMER
 70
     1
  9
$ANGBASE
 50
0.0
  9
$ANGDIR
 70
     0
  9
$PDMODE
 70
     0
  9
$PDSIZE
 40
0.0
  9
$PLINEWID
 40
0.0
  9
$COORDS
 70
     1
  9
$SPLFRAME
 70
     0
  9
$SPLINETYPE
 70
     6
  9
$SPLINESEGS
 70
     8
  9
$ATTDIA
 70
     0
  9
$ATTREQ
 70
     1
  9
$HANDLING
 70
     1
  9
$HANDSEED
  5
F8
  9
$SURFTAB1
 70
     6
  9
$SURFTAB2
 70
     6
  9
$SURFTYPE
 70
     6
  9
$SURFU
 70
     6
  9
$SURFV
 70
     6
  9
$UCSNAME
  2

  9
$UCSORG
 10
0.0
 20
0.0
 30
0.0
  9
$UCSXDIR
 10
1.0
 20
0.0
 30
0.0
  9
$UCSYDIR
 10
0.0
 20
1.0
 30
0.0
  9
$PUCSNAME
  2

  9
$PUCSORG
 10
0.0
 20
0.0
 30
0.0
  9
$PUCSXDIR
 10
1.0
 20
0.0
 30
0.0
  9
$PUCSYDIR
 10
0.0
 20
1.0
 30
0.0
  9
$USERI1
 70
     0
  9
$USERI2
 70
     0
  9
$USERI3
 70
     0
  9
$USERI4
 70
     0
  9
$USERI5
 70
     0
  9
$USERR1
 40
0.0
  9
$USERR2
 40
0.0
  9
$USERR3
 40
0.0
  9
$USERR4
 40
0.0
  9
$USERR5
 40
0.0
  9
$WORLDVIEW
 70
     1
  9
$SHADEDGE
 70
     3
  9
$SHADEDIF
 70
    70
  9
$TILEMODE
 70
     1
  9
$MAXACTVP
 70
    64
  9
$PINSBASE
 10
0.0
 20
0.0
 30
0.0
  9
$PLIMCHECK
 70
     0
  9
$PEXTMIN
 10
1.000000000000000E+20
 20
1.000000000000000E+20
 30
1.000000000000000E+20
  9
$PEXTMAX
 10
-1.000000000000000E+20
 20
-1.000000000000000E+20
 30
-1.000000000000000E+20
  9
$PLIMMIN
 10
0.0
 20
0.0
  9
$PLIMMAX
 10
12.0
 20
9.0
  9
$UNITMODE
 70
     0
  9
$VISRETAIN
 70
     1
  9
$PLINEGEN
 70
     0
  9
$PSLTSCALE
 70
     1
  9
$TREEDEPTH
 70
  3020
  9
$PICKSTYLE
 70
     1
  9
$CMLSTYLE
  2
STANDARD
  9
$CMLJUST
 70
     0
  9
$CMLSCALE
 40
1.0
  9
$PROXYGRAPHICS
 70
     1
  9
$MEASUREMENT
 70
     0
  0
ENDSEC
  0
SECTION
  2
CLASSES
  0
CLASS
  1
ACDBDICTIONARYWDFLT
  2
AcDbDictionaryWithDefault
  3
ObjectDBX Classes
 90
        0
280
     0
281
     0
  0
CLASS
  1
VISUALSTYLE
  2
AcDbVisualStyle
  3
ObjectDBX Classes
 90
     4095
280
     0
281
     0
  0
CLASS
  1
MATERIAL
  2
AcDbMaterial
  3
ObjectDBX Classes
 90
     1153
280
     0
281
     0
  0
CLASS
  1
SUN
  2
AcDbSun
  3
SCENEOE
 90
     1024
280
     0
281
     0
  0
CLASS
  1
DICTIONARYVAR
  2
AcDbDictionaryVar
  3
ObjectDBX Classes
 90
        0
280
     0
281
     0
  0
CLASS
  1
XRECORD
  2
AcDbXrecord
  3
AutoCAD 2000
 90
        0
280
     0
281
     0
  0
CLASS
  1
LWPOLYLINE
  2
AcDbPolyline
  3
AutoCAD 2000
 90
        0
280
     0
281
     1
  0
CLASS
  1
HATCH
  2
AcDbHatch
  3
AutoCAD 2000
 90
        0
280
     0
281
     1
  0
CLASS
  1
ACDBPLACEHOLDER
  2
AcDbPlaceHolder
  3
ObjectDBX Classes
 90
        0
280
     0
281
     0
  0
CLASS
  1
LAYOUT
  2
AcDbLayout
  3
ObjectDBX Classes
 90
        0
280
     0
281
     0
  0
ENDSEC
  0
SECTION
  2
TABLES
  0
TABLE
  2
VPORT
  5
8
330
0
100
AcDbSymbolTable
 70
     1
  0
VPORT
  5
29
330
8
100
AcDbSymbolTableRecord
100
AcDbViewportTableRecord
  2
*ACTIVE
 70
     0
 10
0.0
 20
0.0
 11
1.0
 21
1.0
 12
0.0
 22
0.0
 13
0.0
 23
0.0
 14
0.5
 24
0.5
 15
0.5
 25
0.5
 16
0.0
 26
0.0
 36
1.0
 17
139.699999965075
 27
-107.9499999730125
 37
0.0
 40
215.899999946025
 41
1.294117647058823
 42
50.0
 43
0.0
 44
0.0
 50
0.0
 51
0.0
 71
     0
 72
   100
 73
     1
 74
     3
 75
     0
 76
     0
 77
     0
 78
     0
  0
ENDTAB
  0
TABLE
  2
LTYPE
  5
5
330
0
100
AcDbSymbolTable
 70
     1
  0
LTYPE
  5
14
330
5
100
AcDbSymbolTableRecord
100
AcDbLinetypeTableRecord
  2
BYBLOCK
 70
     0
  3

 72
    65
 73
     0
 40
0.0
  0
LTYPE
  5
15
330
5
100
AcDbSymbolTableRecord
100
AcDbLinetypeTableRecord
  2
BYLAYER
 70
     0
  3

 72
    65
 73
     0
 40
0.0
  0
LTYPE
  5
16
330
5
100
AcDbSymbolTableRecord
100
AcDbLinetypeTableRecord
  2
CONTINUOUS
 70
     0
  3
Solid line
 72
    65
 73
     0
 40
0.0
  0
ENDTAB
  0
TABLE
  2
LAYER
  5
2
330
0
100
AcDbSymbolTable
 70
     2
  0
LAYER
  5
10
330
2
100
AcDbSymbolTableRecord
100
AcDbLayerTableRecord
  2
0
 70
     0
 62
     7
  6
CONTINUOUS
  0
LAYER
  5
40
330
2
100
AcDbSymbolTableRecord
100
AcDbLayerTableRecord
  2
LAYER_1
 70
     0
 62
     7
  6
CONTINUOUS
  0
ENDTAB
  0
TABLE
  2
STYLE
  5
3
330
0
100
AcDbSymbolTable
 70
     1
  0
STYLE
  5
11
330
3
100
AcDbSymbolTableRecord
100
AcDbTextStyleTableRecord
  2
STANDARD
 70
     0
 40
0.0
 41
1.0
 50
0.0
 71
     0
 42
0.2
  3
txt
  4

  0
ENDTAB
  0
TABLE
  2
VIEW
  5
6
330
0
100
AcDbSymbolTable
 70
     0
  0
ENDTAB
  0
TABLE
  2
UCS
  5
7
330
0
100
AcDbSymbolTable
 70
     0
  0
ENDTAB
  0
TABLE
  2
APPID
  5
9
330
0
100
AcDbSymbolTable
 70
     1
  0
APPID
  5
12
330
9
100
AcDbSymbolTableRecord
100
AcDbRegAppTableRecord
  2
ACAD
 70
     0
  0
ENDTAB
  0
TABLE
  2
DIMSTYLE
  5
A
330
0
100
AcDbSymbolTable
 70
     1
  0
DIMSTYLE
105
27
330
A
100
AcDbSymbolTableRecord
100
AcDbDimStyleTableRecord
  2
STANDARD
 70
     0
  3

  4

  5

  6

  7

 40
1.0
 41
0.18
 42
0.0625
 43
0.38
 44
0.18
 45
0.0
 46
0.0
 47
0.0
 48
0.0
140
0.18
141
0.09
142
0.0
143
25.4
144
1.0
145
0.0
146
1.0
147
0.09
 71
     0
 72
     0
 73
     1
 74
     1
 75
     0
 76
     0
 77
     0
 78
     0
170
     0
171
     2
172
     0
173
     0
174
     0
175
     0
176
     0
177
     0
178
     0
270
     2
271
     4
272
     4
273
     2
274
     2
340
11
275
     0
280
     0
281
     0
282
     0
283
     1
284
     0
285
     0
286
     0
287
     3
288
     0
  0
ENDTAB
  0
TABLE
  2
BLOCK_RECORD
  5
1
330
0
100
AcDbSymbolTable
 70
     1
  0
BLOCK_RECORD
  5
1F
330
1
100
AcDbSymbolTableRecord
100
AcDbBlockTableRecord
  2
*MODEL_SPACE
  0
BLOCK_RECORD
  5
1B
330
1
100
AcDbSymbolTableRecord
100
AcDbBlockTableRecord
  2
*PAPER_SPACE
  0
ENDTAB
  0
ENDSEC
  0
SECTION
  2
BLOCKS
  0
BLOCK
  5
20
330
1F
100
AcDbEntity
  8
0
100
AcDbBlockBegin
  2
*MODEL_SPACE
 70
     0
 10
0.0
 20
0.0
 30
0.0
  3
*MODEL_SPACE
  1

  0
ENDBLK
  5
21
330
1F
100
AcDbEntity
  8
0
100
AcDbBlockEnd
  0
BLOCK
  5
1C
330
1B
100
AcDbEntity
 67
     1
  8
0
100
AcDbBlockBegin
  2
*PAPER_SPACE
 70
     0
 10
0.0
 20
0.0
 30
0.0
  3
*PAPER_SPACE
  1

  0
ENDBLK
  5
1D
330
1B
100
AcDbEntity
 67
     1
  8
0
100
AcDbBlockEnd
  0
ENDSEC
  0
SECTION
  2
ENTITIES
  0
SPLINE
  5
41
330
1F
100
AcDbEntity
  8
LAYER_1
100
AcDbSpline
210
0.0
220
0.0
230
1.0
 70
    11
 71
     3
 72
   227
 73
   223
 74
     0
 42
0.0000000001
 43
0.0000000001
 12
1.0
 22
0.0
 32
0.0
 13
1.0
 23
0.0
 33
0.0
 40
0.0
 40
0.0
 40
0.0
 40
0.0
 40
1.0
 40
1.0
 40
1.0
 40
2.0
 40
2.0
 40
2.0
 40
3.0
 40
3.0
 40
3.0
 40
4.0
 40
4.0
 40
4.0
 40
5.0
 40
5.0
 40
5.0
 40
6.0
 40
6.0
 40
6.0
 40
7.0
 40
7.0
 40
7.0
 40
8.0
 40
8.0
 40
8.0
 40
9.0
 40
9.0
 40
9.0
 40
10.0
 40
10.0
 40
10.0
 40
11.0
 40
11.0
 40
11.0
 40
12.0
 40
12.0
 40
12.0
 40
13.0
 40
13.0
 40
13.0
 40
14.0
 40
14.0
 40
14.0
 40
15.0
 40
15.0
 40
15.0
 40
16.0
 40
16.0
 40
16.0
 40
17.0
 40
17.0
 40
17.0
 40
18.0
 40
18.0
 40
18.0
 40
19.0
 40
19.0
 40
19.0
 40
20.0
 40
20.0
 40
20.0
 40
21.0
 40
21.0
 40
21.0
 40
22.0
 40
22.0
 40
22.0
 40
23.0
 40
23.0
 40
23.0
 40
24.0
 40
24.0
 40
24.0
 40
25.0
 40
25.0
 40
25.0
 40
26.0
 40
26.0
 40
26.0
 40
27.0
 40
27.0
 40
27.0
 40
28.0
 40
28.0
 40
28.0
 40
29.0
 40
29.0
 40
29.0
 40
30.0
 40
30.0
 40
30.0
 40
31.0
 40
31.0
 40
31.0
 40
32.0
 40
32.0
 40
32.0
 40
33.0
 40
33.0
 40
33.0
 40
34.0
 40
34.0
 40
34.0
 40
35.0
 40
35.0
 40
35.0
 40
36.0
 40
36.0
 40
36.0
 40
37.0
 40
37.0
 40
37.0
 40
38.0
 40
38.0
 40
38.0
 40
39.0
 40
39.0
 40
39.0
 40
40.0
 40
40.0
 40
40.0
 40
41.0
 40
41.0
 40
41.0
 40
42.0
 40
42.0
 40
42.0
 40
43.0
 40
43.0
 40
43.0
 40
44.0
 40
44.0
 40
44.0
 40
45.0
 40
45.0
 40
45.0
 40
46.0
 40
46.0
 40
46.0
 40
47.0
 40
47.0
 40
47.0
 40
48.0
 40
48.0
 40
48.0
 40
49.0
 40
49.0
 40
49.0
 40
50.0
 40
50.0
 40
50.0
 40
51.0
 40
51.0
 40
51.0
 40
52.0
 40
52.0
 40
52.0
 40
53.0
 40
53.0
 40
53.0
 40
54.0
 40
54.0
 40
54.0
 40
55.0
 40
55.0
 40
55.0
 40
56.0
 40
56.0
 40
56.0
 40
57.0
 40
57.0
 40
57.0
 40
58.0
 40
58.0
 40
58.0
 40
59.0
 40
59.0
 40
59.0
 40
60.0
 40
60.0
 40
60.0
 40
61.0
 40
61.0
 40
61.0
 40
62.0
 40
62.0
 40
62.0
 40
63.0
 40
63.0
 40
63.0
 40
64.0
 40
64.0
 40
64.0
 40
65.0
 40
65.0
 40
65.0
 40
66.0
 40
66.0
 40
66.0
 40
67.0
 40
67.0
 40
67.0
 40
68.0
 40
68.0
 40
68.0
 40
69.0
 40
69.0
 40
69.0
 40
70.0
 40
70.0
 40
70.0
 40
71.0
 40
71.0
 40
71.0
 40
72.0
 40
72.0
 40
72.0
 40
73.0
 40
73.0
 40
73.0
 40
74.0
 40
74.0
 40
74.0
 40
74.0
 10
206.4132941786347
 20
-107.9433388334199
 30
0.0
 10
206.4092461914395
 20
-107.8855473566548
 30
0.0
 10
206.4072006659951
 20
-107.8277989435833
 30
0.0
 10
206.3991262234516
 20
-107.7704596356007
 30
0.0
 10
206.3913316949162
 20
-107.7151012575221
 30
0.0
 10
206.3776374403623
 20
-107.6606041533148
 30
0.0
 10
206.3660317749464
 20
-107.6056333484782
 30
0.0
 10
206.3536294311995
 20
-107.5467868112208
 30
0.0
 10
206.3428635078081
 20
-107.4878541465763
 30
0.0
 10
206.3261547947046
 20
-107.4299765424241
 30
0.0
 10
206.3113839478116
 20
-107.378924533702
 30
0.0
 10
206.2911655436826
 20
-107.3292290313273
 30
0.0
 10
206.2729926649978
 20
-107.2788875735491
 30
0.0
 10
206.251267031594
 20
-107.2185984025572
 30
0.0
 10
206.2306825860696
 20
-107.1582015723314
 30
0.0
 10
206.2041984145268
 20
-107.0995057580015
 30
0.0
 10
206.1994614082346
 20
-107.0889982167715
 30
0.0
 10
206.196834522927
 20
-107.0779523793719
 30
0.0
 10
206.1919252618606
 20
-107.0674879018354
 30
0.0
 10
206.1734940010145
 20
-107.0281276859165
 30
0.0
 10
206.1492922052306
 20
-106.9929661801201
 30
0.0
 10
206.1289876737144
 20
-106.9549194068549
 30
0.0
 10
206.0994029162348
 20
-106.8994964332359
 30
0.0
 10
206.0710454740219
 20
-106.8438366093024
 30
0.0
 10
206.0370466879518
 20
-106.790437629281
 30
0.0
 10
206.0046412585437
 20
-106.7394717479461
 30
0.0
 10
205.9679725234726
 20
-106.692489258266
 30
0.0
 10
205.9321865941195
 20
-106.6443871125532
 30
0.0
 10
205.90507799902
 20
-106.6079336959499
 30
0.0
 10
205.8822327095834
 20
-106.5691979035876
 30
0.0
 10
205.852927866112
 20
-106.5340148659445
 30
0.0
 10
205.852927866112
 20
-106.5340148659445
 30
0.0
 10
191.5891990285321
 20
-89.41774696657772
 30
0.0
 10
191.5891990285321
 20
-89.41774696657772
 30
0.0
 10
191.5891990285321
 20
-89.41774696657772
 30
0.0
 10
205.852927866112
 20
-72.30147906721096
 30
0.0
 10
205.852927866112
 20
-72.30147906721096
 30
0.0
 10
206.4661548624865
 20
-71.56526216201307
 30
0.0
 10
206.5984465291201
 20
-70.54086301947403
 30
0.0
 10
206.1919252618606
 20
-69.6730434667396
 30
0.0
 10
205.7857485041496
 20
-68.80539616877942
 30
0.0
 10
204.9137948368329
 20
-68.25108030520272
 30
0.0
 10
203.9557137823849
 20
-68.25108030520272
 30
0.0
 10
203.9557137823849
 20
-68.25108030520272
 30
0.0
 10
171.9683467113887
 20
-68.25108030520272
 30
0.0
 10
171.9683467113887
 20
-68.25108030520272
 30
0.0
 10
171.9683467113887
 20
-68.25108030520272
 30
0.0
 10
170.9568666769193
 20
-68.25108030520272
 30
0.0
 10
170.9568666769193
 20
-68.25108030520272
 30
0.0
 10
170.9568666769193
 20
-68.25108030520272
 30
0.0
 10
141.0689407946344
 20
-68.25108030520272
 30
0.0
 10
141.0689407946344
 20
-68.25108030520272
 30
0.0
 10
141.0689407946344
 20
-68.25108030520272
 30
0.0
 10
138.9694996059228
 20
-68.25108030520272
 30
0.0
 10
138.9694996059228
 20
-68.25108030520272
 30
0.0
 10
138.9694996059228
 20
-68.25108030520272
 30
0.0
 10
109.0815737236378
 20
-68.25108030520272
 30
0.0
 10
109.0815737236378
 20
-68.25108030520272
 30
0.0
 10
109.0815737236378
 20
-68.25108030520272
 30
0.0
 10
108.0700936891685
 20
-68.25108030520272
 30
0.0
 10
108.0700936891685
 20
-68.25108030520272
 30
0.0
 10
108.0700936891685
 20
-68.25108030520272
 30
0.0
 10
76.08272661817226
 20
-68.25108030520272
 30
0.0
 10
76.08272661817226
 20
-68.25108030520272
 30
0.0
 10
75.12447330895002
 20
-68.25108030520272
 30
0.0
 10
74.25286415118181
 20
-68.80539616877942
 30
0.0
 10
73.84634288392233
 20
-69.6730434667396
 30
0.0
 10
73.43999387143711
 20
-70.54086301947403
 30
0.0
 10
73.5722855380707
 20
-71.56526216201307
 30
0.0
 10
74.18568478921944
 20
-72.30147906721096
 30
0.0
 10
74.18568478921944
 20
-72.30147906721096
 30
0.0
 10
88.44924137202509
 20
-89.41774696657772
 30
0.0
 10
88.44924137202509
 20
-89.41774696657772
 30
0.0
 10
88.44924137202509
 20
-89.41774696657772
 30
0.0
 10
74.18568478921944
 20
-106.5340148659445
 30
0.0
 10
74.18568478921944
 20
-106.5340148659445
 30
0.0
 10
74.15760726101466
 20
-106.5677337380064
 30
0.0
 10
74.13577396837688
 20
-106.6048977055535
 30
0.0
 10
74.10972043376968
 20
-106.6397792973417
 30
0.0
 10
74.07231961590794
 20
-106.6897547137246
 30
0.0
 10
74.03420824710236
 20
-106.738782728849
 30
0.0
 10
74.00048937504047
 20
-106.7918802630154
 30
0.0
 10
73.96812700932591
 20
-106.8428030806568
 30
0.0
 10
73.94112607346027
 20
-106.8959006148232
 30
0.0
 10
73.91279016309409
 20
-106.9486751712879
 30
0.0
 10
73.8912367844645
 20
-106.9887459381507
 30
0.0
 10
73.865807673414
 20
-107.0259529693914
 30
0.0
 10
73.84634288392233
 20
-107.0674879018354
 30
0.0
 10
73.84117524069445
 20
-107.0785122073882
 30
0.0
 10
73.83839763245948
 20
-107.0901609364977
 30
0.0
 10
73.83340224400587
 20
-107.1012498375909
 30
0.0
 10
73.80812385588284
 20
-107.1574048940005
 30
0.0
 10
73.78857293900406
 20
-107.2152179026123
 30
0.0
 10
73.76762245208437
 20
-107.2728371246031
 30
0.0
 10
73.74843757660089
 20
-107.325590149221
 30
0.0
 10
73.72729330306016
 20
-107.3776756865886
 30
0.0
 10
73.71187650076368
 20
-107.4311823258439
 30
0.0
 10
73.695684551983
 20
-107.4873589141003
 30
0.0
 10
73.68539232922082
 20
-107.544590562849
 30
0.0
 10
73.67322683578853
 20
-107.6016714886702
 30
0.0
 10
73.66121206528372
 20
-107.6581279909347
 30
0.0
 10
73.6472163648749
 20
-107.7141323244168
 30
0.0
 10
73.63920651787168
 20
-107.7709979317702
 30
0.0
 10
73.63121820271526
 20
-107.8277343480429
 30
0.0
 10
73.62923727281124
 20
-107.8848798694045
 30
0.0
 10
73.62521081746286
 20
-107.9420469226129
 30
0.0
 10
73.62116283026769
 20
-107.9997738038376
 30
0.0
 10
73.61506931762815
 20
-108.0572638347477
 30
0.0
 10
73.61509084947494
 20
-108.1149691841256
 30
0.0
 10
73.61506931762815
 20
-108.1726745335036
 30
0.0
 10
73.62116283026769
 20
-108.2301645644137
 30
0.0
 10
73.62521081746286
 20
-108.2878914456384
 30
0.0
 10
73.62923727281124
 20
-108.3450584988468
 30
0.0
 10
73.63121820271526
 20
-108.4022040202083
 30
0.0
 10
73.63920651787168
 20
-108.4589404364811
 30
0.0
 10
73.6472163648749
 20
-108.5158060438345
 30
0.0
 10
73.66121206528372
 20
-108.5718103773166
 30
0.0
 10
73.67322683578853
 20
-108.6282668795811
 30
0.0
 10
73.68539232922082
 20
-108.6853478054023
 30
0.0
 10
73.695684551983
 20
-108.742579454151
 30
0.0
 10
73.71187650076368
 20
-108.7987560424074
 30
0.0
 10
73.72729330306016
 20
-108.8522626816627
 30
0.0
 10
73.74843757660089
 20
-108.9043482190303
 30
0.0
 10
73.76762245208437
 20
-108.9571012436482
 30
0.0
 10
73.78857293900406
 20
-109.014720465639
 30
0.0
 10
73.80812385588284
 20
-109.0725334742508
 30
0.0
 10
73.83340224400587
 20
-109.1286885306604
 30
0.0
 10
73.83839763245948
 20
-109.1397774317536
 30
0.0
 10
73.84117524069445
 20
-109.1514261608631
 30
0.0
 10
73.84634288392233
 20
-109.1624504664159
 30
0.0
 10
73.865807673414
 20
-109.2039853988599
 30
0.0
 10
73.8912367844645
 20
-109.2411924301006
 30
0.0
 10
73.91279016309409
 20
-109.2812631969634
 30
0.0
 10
73.94112607346027
 20
-109.3340377534281
 30
0.0
 10
73.96812700932591
 20
-109.3871352875945
 30
0.0
 10
74.00048937504047
 20
-109.4380581052358
 30
0.0
 10
74.03420824710236
 20
-109.4911556394023
 30
0.0
 10
74.07231961590794
 20
-109.5401836545267
 30
0.0
 10
74.10972043376968
 20
-109.5901590709096
 30
0.0
 10
74.13577396837688
 20
-109.6250406626978
 30
0.0
 10
74.15760726101466
 20
-109.6622046302449
 30
0.0
 10
74.18568478921944
 20
-109.6959235023068
 30
0.0
 10
74.18568478921944
 20
-109.6959235023068
 30
0.0
 10
88.44924137202509
 20
-126.8121914016736
 30
0.0
 10
88.44924137202509
 20
-126.8121914016736
 30
0.0
 10
88.44924137202509
 20
-126.8121914016736
 30
0.0
 10
74.18568478921944
 20
-143.9284593010403
 30
0.0
 10
74.18568478921944
 20
-143.9284593010403
 30
0.0
 10
73.5722855380707
 20
-144.6646762062382
 30
0.0
 10
73.43999387143711
 20
-145.6890753487773
 30
0.0
 10
73.84634288392233
 20
-146.5568949015117
 30
0.0
 10
74.25286415118181
 20
-147.4245421994719
 30
0.0
 10
75.12447330895002
 20
-147.9788580630486
 30
0.0
 10
76.08272661817226
 20
-147.9788580630486
 30
0.0
 10
76.08272661817226
 20
-147.9788580630486
 30
0.0
 10
108.0700936891685
 20
-147.9788580630486
 30
0.0
 10
108.0700936891685
 20
-147.9788580630486
 30
0.0
 10
108.0700936891685
 20
-147.9788580630486
 30
0.0
 10
109.0815737236378
 20
-147.9788580630486
 30
0.0
 10
109.0815737236378
 20
-147.9788580630486
 30
0.0
 10
109.0815737236378
 20
-147.9788580630486
 30
0.0
 10
138.9694996059228
 20
-147.9788580630486
 30
0.0
 10
138.9694996059228
 20
-147.9788580630486
 30
0.0
 10
138.9694996059228
 20
-147.9788580630486
 30
0.0
 10
141.0689407946344
 20
-147.9788580630486
 30
0.0
 10
141.0689407946344
 20
-147.9788580630486
 30
0.0
 10
141.0689407946344
 20
-147.9788580630486
 30
0.0
 10
170.9568666769193
 20
-147.9788580630486
 30
0.0
 10
170.9568666769193
 20
-147.9788580630486
 30
0.0
 10
170.9568666769193
 20
-147.9788580630486
 30
0.0
 10
171.9683467113887
 20
-147.9788580630486
 30
0.0
 10
171.9683467113887
 20
-147.9788580630486
 30
0.0
 10
171.9683467113887
 20
-147.9788580630486
 30
0.0
 10
203.9557137823849
 20
-147.9788580630486
 30
0.0
 10
203.9557137823849
 20
-147.9788580630486
 30
0.0
 10
204.9137948368329
 20
-147.9788580630486
 30
0.0
 10
205.7857485041496
 20
-147.4245421994719
 30
0.0
 10
206.1919252618606
 20
-146.5568949015117
 30
0.0
 10
206.5984465291201
 20
-145.6890753487773
 30
0.0
 10
206.4661548624865
 20
-144.6646762062382
 30
0.0
 10
205.852927866112
 20
-143.9284593010403
 30
0.0
 10
205.852927866112
 20
-143.9284593010403
 30
0.0
 10
191.5891990285321
 20
-126.8121914016736
 30
0.0
 10
191.5891990285321
 20
-126.8121914016736
 30
0.0
 10
191.5891990285321
 20
-126.8121914016736
 30
0.0
 10
205.852927866112
 20
-109.6959235023068
 30
0.0
 10
205.852927866112
 20
-109.6959235023068
 30
0.0
 10
205.8822327095834
 20
-109.6607404646637
 30
0.0
 10
205.90507799902
 20
-109.6220046723014
 30
0.0
 10
205.9321865941195
 20
-109.5855512556981
 30
0.0
 10
205.9679725234726
 20
-109.5374491099853
 30
0.0
 10
206.0046412585437
 20
-109.4904666203052
 30
0.0
 10
206.0370466879518
 20
-109.4395007389703
 30
0.0
 10
206.0710454740219
 20
-109.3861017589489
 30
0.0
 10
206.0994029162348
 20
-109.3304419350154
 30
0.0
 10
206.1289876737144
 20
-109.2750189613964
 30
0.0
 10
206.1492922052306
 20
-109.2369721881312
 30
0.0
 10
206.1734940010145
 20
-109.2018106823348
 30
0.0
 10
206.1919252618606
 20
-109.1624504664159
 30
0.0
 10
206.196834522927
 20
-109.1519859888794
 30
0.0
 10
206.1994614082346
 20
-109.1409401514798
 30
0.0
 10
206.2041984145268
 20
-109.1304326102498
 30
0.0
 10
206.2306825860696
 20
-109.0717367959199
 30
0.0
 10
206.251267031594
 20
-109.0113399656941
 30
0.0
 10
206.2729926649978
 20
-108.9510507947022
 30
0.0
 10
206.2911655436826
 20
-108.900709336924
 30
0.0
 10
206.3113839478116
 20
-108.8510138345493
 30
0.0
 10
206.3261547947046
 20
-108.7999618258272
 30
0.0
 10
206.3428635078081
 20
-108.742084221675
 30
0.0
 10
206.3536294311995
 20
-108.6831515570305
 30
0.0
 10
206.3660317749464
 20
-108.624305019773
 30
0.0
 10
206.3776374403623
 20
-108.5693342149365
 30
0.0
 10
206.3913316949162
 20
-108.5148371107292
 30
0.0
 10
206.3991262234516
 20
-108.4594787326506
 30
0.0
 10
206.4072006659951
 20
-108.402139424668
 30
0.0
 10
206.4092461914395
 20
-108.3443910115965
 30
0.0
 10
206.4132941786347
 20
-108.2865995348314
 30
0.0
 10
206.4172991021363
 20
-108.2293032905424
 30
0.0
 10
206.4233495510822
 20
-108.1722438965679
 30
0.0
 10
206.4233280192354
 20
-108.1149691841256
 30
0.0
 10
206.4233495510822
 20
-108.0576944716834
 30
0.0
 10
206.4172991021363
 20
-108.0006350777089
 30
0.0
 10
206.4132941786347
 20
-107.9433388334199
 30
0.0
  0
POLYLINE
  5
42
330
1F
100
AcDbEntity
  8
LAYER_1
100
AcDb2dPolyline
 66
     1
 10
0.0
 20
0.0
 30
0.0
  0
VERTEX
  5
43
330
42
100
AcDbEntity
  8
LAYER_1
100
AcDbVertex
100
AcDb2dVertex
 10
198.6833396517586
 20
-105.6455247402986
 30
0.0
  0
VERTEX
  5
44
330
42
100
AcDbEntity
  8
LAYER_1
100
AcDbVertex
100
AcDb2dVertex
 10
176.2292408075457
 20
-105.6455247402986
 30
0.0
  0
VERTEX
  5
45
330
42
100
AcDbEntity
  8
LAYER_1
100
AcDbVertex
100
AcDb2dVertex
 10
187.4561179748779
 20
-92.17296208090629
 30
0.0
  0
VERTEX
  5
46
330
42
100
AcDbEntity
  8
LAYER_1
100
AcDbVertex
100
AcDb2dVertex
 10
198.6833396517586
 20
-105.6455247402986
 30
0.0
  0
SEQEND
  5
47
330
42
100
AcDbEntity
  8
LAYER_1
  0
POLYLINE
  5
48
330
1F
100
AcDbEntity
  8
LAYER_1
100
AcDb2dPolyline
 66
     1
 10
0.0
 20
0.0
 30
0.0
  0
VERTEX
  5
49
330
48
100
AcDbEntity
  8
LAYER_1
100
AcDbVertex
100
AcDb2dVertex
 10
171.4625851623072
 20
-141.0449143798862
 30
0.0
  0
VERTEX
  5
4A
330
48
100
AcDbEntity
  8
LAYER_1
100
AcDbVertex
100
AcDb2dVertex
 10
159.6018319575359
 20
-126.8121914016736
 30
0.0
  0
VERTEX
  5
4B
330
48
100
AcDbEntity
  8
LAYER_1
100
AcDbVertex
100
AcDb2dVertex
 10
171.4625851623072
 20
-112.5794684234609
 30
0.0
  0
VERTEX
  5
4C
330
48
100
AcDbEntity
  8
LAYER_1
100
AcDbVertex
100
AcDb2dVertex
 10
183.3230369212236
 20
-126.8121914016736
 30
0.0
  0
VERTEX
  5
4D
330
48
100
AcDbEntity
  8
LAYER_1
100
AcDbVertex
100
AcDb2dVertex
 10
171.4625851623072
 20
-141.0449143798862
 30
0.0
  0
SEQEND
  5
4E
330
48
100
AcDbEntity
  8
LAYER_1
  0
POLYLINE
  5
4F
330
1F
100
AcDbEntity
  8
LAYER_1
100
AcDb2dPolyline
 66
     1
 10
0.0
 20
0.0
 30
0.0
  0
VERTEX
  5
50
330
4F
100
AcDbEntity
  8
LAYER_1
100
AcDbVertex
100
AcDb2dVertex
 10
140.0191771365849
 20
-140.3921333809717
 30
0.0
  0
VERTEX
  5
51
330
4F
100
AcDbEntity
  8
LAYER_1
100
AcDbVertex
100
AcDb2dVertex
 10
128.7024260407812
 20
-126.8121914016736
 30
0.0
  0
VERTEX
  5
52
330
4F
100
AcDbEntity
  8
LAYER_1
100
AcDbVertex
100
AcDb2dVertex
 10
140.0191771365849
 20
-113.2322494223754
 30
0.0
  0
VERTEX
  5
53
330
4F
100
AcDbEntity
  8
LAYER_1
100
AcDbVertex
100
AcDb2dVertex
 10
151.3356698502274
 20
-126.8121914016736
 30
0.0
  0
VERTEX
  5
54
330
4F
100
AcDbEntity
  8
LAYER_1
100
AcDbVertex
100
AcDb2dVertex
 10
140.0191771365849
 20
-140.3921333809717
 30
0.0
  0
SEQEND
  5
55
330
4F
100
AcDbEntity
  8
LAYER_1
  0
POLYLINE
  5
56
330
1F
100
AcDbEntity
  8
LAYER_1
100
AcDb2dPolyline
 66
     1
 10
0.0
 20
0.0
 30
0.0
  0
VERTEX
  5
57
330
56
100
AcDbEntity
  8
LAYER_1
100
AcDbVertex
100
AcDb2dVertex
 10
108.5758337064032
 20
-141.045129698354
 30
0.0
  0
VERTEX
  5
58
330
56
100
AcDbEntity
  8
LAYER_1
100
AcDbVertex
100
AcDb2dVertex
 10
96.71505896978502
 20
-126.8121914016736
 30
0.0
  0
VERTEX
  5
59
330
56
100
AcDbEntity
  8
LAYER_1
100
AcDbVertex
100
AcDb2dVertex
 10
108.5758337064032
 20
-112.5792531049931
 30
0.0
  0
VERTEX
  5
5A
330
56
100
AcDbEntity
  8
LAYER_1
100
AcDbVertex
100
AcDb2dVertex
 10
120.4366084430213
 20
-126.8121914016736
 30
0.0
  0
VERTEX
  5
5B
330
56
100
AcDbEntity
  8
LAYER_1
100
AcDbVertex
100
AcDb2dVertex
 10
108.5758337064032
 20
-141.045129698354
 30
0.0
  0
SEQEND
  5
5C
330
56
100
AcDbEntity
  8
LAYER_1
  0
POLYLINE
  5
5D
330
1F
100
AcDbEntity
  8
LAYER_1
100
AcDb2dPolyline
 66
     1
 10
0.0
 20
0.0
 30
0.0
  0
VERTEX
  5
5E
330
5D
100
AcDbEntity
  8
LAYER_1
100
AcDbVertex
100
AcDb2dVertex
 10
108.5758337064032
 20
-75.18480866989725
 30
0.0
  0
VERTEX
  5
5F
330
5D
100
AcDbEntity
  8
LAYER_1
100
AcDbVertex
100
AcDb2dVertex
 10
120.4366084430213
 20
-89.41774696657772
 30
0.0
  0
VERTEX
  5
60
330
5D
100
AcDbEntity
  8
LAYER_1
100
AcDbVertex
100
AcDb2dVertex
 10
108.5758337064032
 20
-103.6506852632582
 30
0.0
  0
VERTEX
  5
61
330
5D
100
AcDbEntity
  8
LAYER_1
100
AcDbVertex
100
AcDb2dVertex
 10
96.71505896978502
 20
-89.41774696657772
 30
0.0
  0
VERTEX
  5
62
330
5D
100
AcDbEntity
  8
LAYER_1
100
AcDbVertex
100
AcDb2dVertex
 10
108.5758337064032
 20
-75.18480866989725
 30
0.0
  0
SEQEND
  5
63
330
5D
100
AcDbEntity
  8
LAYER_1
  0
POLYLINE
  5
64
330
1F
100
AcDbEntity
  8
LAYER_1
100
AcDb2dPolyline
 66
     1
 10
0.0
 20
0.0
 30
0.0
  0
VERTEX
  5
65
330
64
100
AcDbEntity
  8
LAYER_1
100
AcDbVertex
100
AcDb2dVertex
 10
140.0191771365849
 20
-75.83780498727957
 30
0.0
  0
VERTEX
  5
66
330
64
100
AcDbEntity
  8
LAYER_1
100
AcDbVertex
100
AcDb2dVertex
 10
151.3356698502274
 20
-89.41774696657772
 30
0.0
  0
VERTEX
  5
67
330
64
100
AcDbEntity
  8
LAYER_1
100
AcDbVertex
100
AcDb2dVertex
 10
140.0191771365849
 20
-102.9976889458759
 30
0.0
  0
VERTEX
  5
68
330
64
100
AcDbEntity
  8
LAYER_1
100
AcDbVertex
100
AcDb2dVertex
 10
128.7024260407812
 20
-89.41774696657772
 30
0.0
  0
VERTEX
  5
69
330
64
100
AcDbEntity
  8
LAYER_1
100
AcDbVertex
100
AcDb2dVertex
 10
140.0191771365849
 20
-75.83780498727957
 30
0.0
  0
SEQEND
  5
6A
330
64
100
AcDbEntity
  8
LAYER_1
  0
POLYLINE
  5
6B
330
1F
100
AcDbEntity
  8
LAYER_1
100
AcDb2dPolyline
 66
     1
 10
0.0
 20
0.0
 30
0.0
  0
VERTEX
  5
6C
330
6B
100
AcDbEntity
  8
LAYER_1
100
AcDbVertex
100
AcDb2dVertex
 10
171.4625851623072
 20
-75.18502398836507
 30
0.0
  0
VERTEX
  5
6D
330
6B
100
AcDbEntity
  8
LAYER_1
100
AcDbVertex
100
AcDb2dVertex
 10
183.3230369212236
 20
-89.41774696657772
 30
0.0
  0
VERTEX
  5
6E
330
6B
100
AcDbEntity
  8
LAYER_1
100
AcDbVertex
100
AcDb2dVertex
 10
171.4625851623072
 20
-103.6504699447904
 30
0.0
  0
VERTEX
  5
6F
330
6B
100
AcDbEntity
  8
LAYER_1
100
AcDbVertex
100
AcDb2dVertex
 10
159.6018319575359
 20
-89.41774696657772
 30
0.0
  0
VERTEX
  5
70
330
6B
100
AcDbEntity
  8
LAYER_1
100
AcDbVertex
100
AcDb2dVertex
 10
171.4625851623072
 20
-75.18502398836507
 30
0.0
  0
SEQEND
  5
71
330
6B
100
AcDbEntity
  8
LAYER_1
  0
POLYLINE
  5
72
330
1F
100
AcDbEntity
  8
LAYER_1
100
AcDb2dPolyline
 66
     1
 10
0.0
 20
0.0
 30
0.0
  0
VERTEX
  5
73
330
72
100
AcDbEntity
  8
LAYER_1
100
AcDbVertex
100
AcDb2dVertex
 10
166.6959725807623
 20
-105.6455247402986
 30
0.0
  0
VERTEX
  5
74
330
72
100
AcDbEntity
  8
LAYER_1
100
AcDbVertex
100
AcDb2dVertex
 10
144.2418737365495
 20
-105.6455247402986
 30
0.0
  0
VERTEX
  5
75
330
72
100
AcDbEntity
  8
LAYER_1
100
AcDbVertex
100
AcDb2dVertex
 10
155.4687509038816
 20
-92.17296208090629
 30
0.0
  0
VERTEX
  5
76
330
72
100
AcDbEntity
  8
LAYER_1
100
AcDbVertex
100
AcDb2dVertex
 10
166.6959725807623
 20
-105.6455247402986
 30
0.0
  0
SEQEND
  5
77
330
72
100
AcDbEntity
  8
LAYER_1
  0
POLYLINE
  5
78
330
1F
100
AcDbEntity
  8
LAYER_1
100
AcDb2dPolyline
 66
     1
 10
0.0
 20
0.0
 30
0.0
  0
VERTEX
  5
79
330
78
100
AcDbEntity
  8
LAYER_1
100
AcDbVertex
100
AcDb2dVertex
 10
135.7965666640077
 20
-105.6455247402986
 30
0.0
  0
VERTEX
  5
7A
330
78
100
AcDbEntity
  8
LAYER_1
100
AcDbVertex
100
AcDb2dVertex
 10
113.3424678197948
 20
-105.6455247402986
 30
0.0
  0
VERTEX
  5
7B
330
78
100
AcDbEntity
  8
LAYER_1
100
AcDbVertex
100
AcDb2dVertex
 10
124.5695172419013
 20
-92.17296208090629
 30
0.0
  0
VERTEX
  5
7C
330
78
100
AcDbEntity
  8
LAYER_1
100
AcDbVertex
100
AcDb2dVertex
 10
135.7965666640077
 20
-105.6455247402986
 30
0.0
  0
SEQEND
  5
7D
330
78
100
AcDbEntity
  8
LAYER_1
  0
POLYLINE
  5
7E
330
1F
100
AcDbEntity
  8
LAYER_1
100
AcDb2dPolyline
 66
     1
 10
0.0
 20
0.0
 30
0.0
  0
VERTEX
  5
7F
330
7E
100
AcDbEntity
  8
LAYER_1
100
AcDbVertex
100
AcDb2dVertex
 10
113.3424678197948
 20
-110.5844136279527
 30
0.0
  0
VERTEX
  5
80
330
7E
100
AcDbEntity
  8
LAYER_1
100
AcDbVertex
100
AcDb2dVertex
 10
135.7965666640077
 20
-110.5844136279527
 30
0.0
  0
VERTEX
  5
81
330
7E
100
AcDbEntity
  8
LAYER_1
100
AcDbVertex
100
AcDb2dVertex
 10
124.5695172419013
 20
-124.056976287345
 30
0.0
  0
VERTEX
  5
82
330
7E
100
AcDbEntity
  8
LAYER_1
100
AcDbVertex
100
AcDb2dVertex
 10
113.3424678197948
 20
-110.5844136279527
 30
0.0
  0
SEQEND
  5
83
330
7E
100
AcDbEntity
  8
LAYER_1
  0
POLYLINE
  5
84
330
1F
100
AcDbEntity
  8
LAYER_1
100
AcDb2dPolyline
 66
     1
 10
0.0
 20
0.0
 30
0.0
  0
VERTEX
  5
85
330
84
100
AcDbEntity
  8
LAYER_1
100
AcDbVertex
100
AcDb2dVertex
 10
144.2418737365495
 20
-110.5844136279527
 30
0.0
  0
VERTEX
  5
86
330
84
100
AcDbEntity
  8
LAYER_1
100
AcDbVertex
100
AcDb2dVertex
 10
166.6959725807623
 20
-110.5844136279527
 30
0.0
  0
VERTEX
  5
87
330
84
100
AcDbEntity
  8
LAYER_1
100
AcDbVertex
100
AcDb2dVertex
 10
155.4687509038816
 20
-124.056976287345
 30
0.0
  0
VERTEX
  5
88
330
84
100
AcDbEntity
  8
LAYER_1
100
AcDbVertex
100
AcDb2dVertex
 10
144.2418737365495
 20
-110.5844136279527
 30
0.0
  0
SEQEND
  5
89
330
84
100
AcDbEntity
  8
LAYER_1
  0
POLYLINE
  5
8A
330
1F
100
AcDbEntity
  8
LAYER_1
100
AcDb2dPolyline
 66
     1
 10
0.0
 20
0.0
 30
0.0
  0
VERTEX
  5
8B
330
8A
100
AcDbEntity
  8
LAYER_1
100
AcDbVertex
100
AcDb2dVertex
 10
198.6833396517586
 20
-73.18996919285689
 30
0.0
  0
VERTEX
  5
8C
330
8A
100
AcDbEntity
  8
LAYER_1
100
AcDbVertex
100
AcDb2dVertex
 10
187.4561179748779
 20
-86.66253185224917
 30
0.0
  0
VERTEX
  5
8D
330
8A
100
AcDbEntity
  8
LAYER_1
100
AcDbVertex
100
AcDb2dVertex
 10
176.2292408075457
 20
-73.18996919285689
 30
0.0
  0
VERTEX
  5
8E
330
8A
100
AcDbEntity
  8
LAYER_1
100
AcDbVertex
100
AcDb2dVertex
 10
198.6833396517586
 20
-73.18996919285689
 30
0.0
  0
SEQEND
  5
8F
330
8A
100
AcDbEntity
  8
LAYER_1
  0
POLYLINE
  5
90
330
1F
100
AcDbEntity
  8
LAYER_1
100
AcDb2dPolyline
 66
     1
 10
0.0
 20
0.0
 30
0.0
  0
VERTEX
  5
91
330
90
100
AcDbEntity
  8
LAYER_1
100
AcDbVertex
100
AcDb2dVertex
 10
166.6959725807623
 20
-73.18996919285689
 30
0.0
  0
VERTEX
  5
92
330
90
100
AcDbEntity
  8
LAYER_1
100
AcDbVertex
100
AcDb2dVertex
 10
155.4687509038816
 20
-86.66253185224917
 30
0.0
  0
VERTEX
  5
93
330
90
100
AcDbEntity
  8
LAYER_1
100
AcDbVertex
100
AcDb2dVertex
 10
144.2418737365495
 20
-73.18996919285689
 30
0.0
  0
VERTEX
  5
94
330
90
100
AcDbEntity
  8
LAYER_1
100
AcDbVertex
100
AcDb2dVertex
 10
166.6959725807623
 20
-73.18996919285689
 30
0.0
  0
SEQEND
  5
95
330
90
100
AcDbEntity
  8
LAYER_1
  0
POLYLINE
  5
96
330
1F
100
AcDbEntity
  8
LAYER_1
100
AcDb2dPolyline
 66
     1
 10
0.0
 20
0.0
 30
0.0
  0
VERTEX
  5
97
330
96
100
AcDbEntity
  8
LAYER_1
100
AcDbVertex
100
AcDb2dVertex
 10
135.7965666640077
 20
-73.18996919285689
 30
0.0
  0
VERTEX
  5
98
330
96
100
AcDbEntity
  8
LAYER_1
100
AcDbVertex
100
AcDb2dVertex
 10
124.5695172419013
 20
-86.66253185224917
 30
0.0
  0
VERTEX
  5
99
330
96
100
AcDbEntity
  8
LAYER_1
100
AcDbVertex
100
AcDb2dVertex
 10
113.3424678197948
 20
-73.18996919285689
 30
0.0
  0
VERTEX
  5
9A
330
96
100
AcDbEntity
  8
LAYER_1
100
AcDbVertex
100
AcDb2dVertex
 10
135.7965666640077
 20
-73.18996919285689
 30
0.0
  0
SEQEND
  5
9B
330
96
100
AcDbEntity
  8
LAYER_1
  0
POLYLINE
  5
9C
330
1F
100
AcDbEntity
  8
LAYER_1
100
AcDb2dPolyline
 66
     1
 10
0.0
 20
0.0
 30
0.0
  0
VERTEX
  5
9D
330
9C
100
AcDbEntity
  8
LAYER_1
100
AcDbVertex
100
AcDb2dVertex
 10
81.35510074879862
 20
-73.18996919285689
 30
0.0
  0
VERTEX
  5
9E
330
9C
100
AcDbEntity
  8
LAYER_1
100
AcDbVertex
100
AcDb2dVertex
 10
103.8091995930115
 20
-73.18996919285689
 30
0.0
  0
VERTEX
  5
9F
330
9C
100
AcDbEntity
  8
LAYER_1
100
AcDbVertex
100
AcDb2dVertex
 10
92.58215017090505
 20
-86.66253185224917
 30
0.0
  0
VERTEX
  5
A0
330
9C
100
AcDbEntity
  8
LAYER_1
100
AcDbVertex
100
AcDb2dVertex
 10
81.35510074879862
 20
-73.18996919285689
 30
0.0
  0
SEQEND
  5
A1
330
9C
100
AcDbEntity
  8
LAYER_1
  0
POLYLINE
  5
A2
330
1F
100
AcDbEntity
  8
LAYER_1
100
AcDb2dPolyline
 66
     1
 10
0.0
 20
0.0
 30
0.0
  0
VERTEX
  5
A3
330
A2
100
AcDbEntity
  8
LAYER_1
100
AcDbVertex
100
AcDb2dVertex
 10
92.58215017090505
 20
-92.17296208090629
 30
0.0
  0
VERTEX
  5
A4
330
A2
100
AcDbEntity
  8
LAYER_1
100
AcDbVertex
100
AcDb2dVertex
 10
103.8091995930115
 20
-105.6455247402986
 30
0.0
  0
VERTEX
  5
A5
330
A2
100
AcDbEntity
  8
LAYER_1
100
AcDbVertex
100
AcDb2dVertex
 10
81.35510074879862
 20
-105.6455247402986
 30
0.0
  0
VERTEX
  5
A6
330
A2
100
AcDbEntity
  8
LAYER_1
100
AcDbVertex
100
AcDb2dVertex
 10
92.58215017090505
 20
-92.17296208090629
 30
0.0
  0
SEQEND
  5
A7
330
A2
100
AcDbEntity
  8
LAYER_1
  0
POLYLINE
  5
A8
330
1F
100
AcDbEntity
  8
LAYER_1
100
AcDb2dPolyline
 66
     1
 10
0.0
 20
0.0
 30
0.0
  0
VERTEX
  5
A9
330
A8
100
AcDbEntity
  8
LAYER_1
100
AcDbVertex
100
AcDb2dVertex
 10
81.35510074879862
 20
-110.5844136279527
 30
0.0
  0
VERTEX
  5
AA
330
A8
100
AcDbEntity
  8
LAYER_1
100
AcDbVertex
100
AcDb2dVertex
 10
103.8091995930115
 20
-110.5844136279527
 30
0.0
  0
VERTEX
  5
AB
330
A8
100
AcDbEntity
  8
LAYER_1
100
AcDbVertex
100
AcDb2dVertex
 10
92.58215017090505
 20
-124.056976287345
 30
0.0
  0
VERTEX
  5
AC
330
A8
100
AcDbEntity
  8
LAYER_1
100
AcDbVertex
100
AcDb2dVertex
 10
81.35510074879862
 20
-110.5844136279527
 30
0.0
  0
SEQEND
  5
AD
330
A8
100
AcDbEntity
  8
LAYER_1
  0
POLYLINE
  5
AE
330
1F
100
AcDbEntity
  8
LAYER_1
100
AcDb2dPolyline
 66
     1
 10
0.0
 20
0.0
 30
0.0
  0
VERTEX
  5
AF
330
AE
100
AcDbEntity
  8
LAYER_1
100
AcDbVertex
100
AcDb2dVertex
 10
81.35510074879862
 20
-143.0399691753944
 30
0.0
  0
VERTEX
  5
B0
330
AE
100
AcDbEntity
  8
LAYER_1
100
AcDbVertex
100
AcDb2dVertex
 10
92.58215017090505
 20
-129.5674065160021
 30
0.0
  0
VERTEX
  5
B1
330
AE
100
AcDbEntity
  8
LAYER_1
100
AcDbVertex
100
AcDb2dVertex
 10
103.8091995930115
 20
-143.0399691753944
 30
0.0
  0
VERTEX
  5
B2
330
AE
100
AcDbEntity
  8
LAYER_1
100
AcDbVertex
100
AcDb2dVertex
 10
81.35510074879862
 20
-143.0399691753944
 30
0.0
  0
SEQEND
  5
B3
330
AE
100
AcDbEntity
  8
LAYER_1
  0
POLYLINE
  5
B4
330
1F
100
AcDbEntity
  8
LAYER_1
100
AcDb2dPolyline
 66
     1
 10
0.0
 20
0.0
 30
0.0
  0
VERTEX
  5
B5
330
B4
100
AcDbEntity
  8
LAYER_1
100
AcDbVertex
100
AcDb2dVertex
 10
113.3424678197948
 20
-143.0399691753944
 30
0.0
  0
VERTEX
  5
B6
330
B4
100
AcDbEntity
  8
LAYER_1
100
AcDbVertex
100
AcDb2dVertex
 10
124.5695172419013
 20
-129.5674065160021
 30
0.0
  0
VERTEX
  5
B7
330
B4
100
AcDbEntity
  8
LAYER_1
100
AcDbVertex
100
AcDb2dVertex
 10
135.7965666640077
 20
-143.0399691753944
 30
0.0
  0
VERTEX
  5
B8
330
B4
100
AcDbEntity
  8
LAYER_1
100
AcDbVertex
100
AcDb2dVertex
 10
113.3424678197948
 20
-143.0399691753944
 30
0.0
  0
SEQEND
  5
B9
330
B4
100
AcDbEntity
  8
LAYER_1
  0
POLYLINE
  5
BA
330
1F
100
AcDbEntity
  8
LAYER_1
100
AcDb2dPolyline
 66
     1
 10
0.0
 20
0.0
 30
0.0
  0
VERTEX
  5
BB
330
BA
100
AcDbEntity
  8
LAYER_1
100
AcDbVertex
100
AcDb2dVertex
 10
144.2418737365495
 20
-143.0399691753944
 30
0.0
  0
VERTEX
  5
BC
330
BA
100
AcDbEntity
  8
LAYER_1
100
AcDbVertex
100
AcDb2dVertex
 10
155.4687509038816
 20
-129.5674065160021
 30
0.0
  0
VERTEX
  5
BD
330
BA
100
AcDbEntity
  8
LAYER_1
100
AcDbVertex
100
AcDb2dVertex
 10
166.6959725807623
 20
-143.0399691753944
 30
0.0
  0
VERTEX
  5
BE
330
BA
100
AcDbEntity
  8
LAYER_1
100
AcDbVertex
100
AcDb2dVertex
 10
144.2418737365495
 20
-143.0399691753944
 30
0.0
  0
SEQEND
  5
BF
330
BA
100
AcDbEntity
  8
LAYER_1
  0
POLYLINE
  5
C0
330
1F
100
AcDbEntity
  8
LAYER_1
100
AcDb2dPolyline
 66
     1
 10
0.0
 20
0.0
 30
0.0
  0
VERTEX
  5
C1
330
C0
100
AcDbEntity
  8
LAYER_1
100
AcDbVertex
100
AcDb2dVertex
 10
198.6833396517586
 20
-143.0399691753944
 30
0.0
  0
VERTEX
  5
C2
330
C0
100
AcDbEntity
  8
LAYER_1
100
AcDbVertex
100
AcDb2dVertex
 10
176.2292408075457
 20
-143.0399691753944
 30
0.0
  0
VERTEX
  5
C3
330
C0
100
AcDbEntity
  8
LAYER_1
100
AcDbVertex
100
AcDb2dVertex
 10
187.4561179748779
 20
-129.5674065160021
 30
0.0
  0
VERTEX
  5
C4
330
C0
100
AcDbEntity
  8
LAYER_1
100
AcDbVertex
100
AcDb2dVertex
 10
198.6833396517586
 20
-143.0399691753944
 30
0.0
  0
SEQEND
  5
C5
330
C0
100
AcDbEntity
  8
LAYER_1
  0
POLYLINE
  5
C6
330
1F
100
AcDbEntity
  8
LAYER_1
100
AcDb2dPolyline
 66
     1
 10
0.0
 20
0.0
 30
0.0
  0
VERTEX
  5
C7
330
C6
100
AcDbEntity
  8
LAYER_1
100
AcDbVertex
100
AcDb2dVertex
 10
187.4561179748779
 20
-124.056976287345
 30
0.0
  0
VERTEX
  5
C8
330
C6
100
AcDbEntity
  8
LAYER_1
100
AcDbVertex
100
AcDb2dVertex
 10
176.2292408075457
 20
-110.5844136279527
 30
0.0
  0
VERTEX
  5
C9
330
C6
100
AcDbEntity
  8
LAYER_1
100
AcDbVertex
100
AcDb2dVertex
 10
198.6833396517586
 20
-110.5844136279527
 30
0.0
  0
VERTEX
  5
CA
330
C6
100
AcDbEntity
  8
LAYER_1
100
AcDbVertex
100
AcDb2dVertex
 10
187.4561179748779
 20
-124.056976287345
 30
0.0
  0
SEQEND
  5
CB
330
C6
100
AcDbEntity
  8
LAYER_1
  0
HATCH
  5
CC
330
1F
100
AcDbEntity
  8
LAYER_1
 62
     7
100
AcDbHatch
 10
0.0
 20
0.0
 30
0.0
210
0.0
220
0.0
230
1.0
  2
SOLID
 70
     1
 71
     0
 91
       23
 92
        1
 93
        1
 72
     4
 94
        3
 73
     0
 74
     1
 95
      227
 96
      223
 40
0.0
 40
0.0
 40
0.0
 40
0.0
 40
1.0
 40
1.0
 40
1.0
 40
2.0
 40
2.0
 40
2.0
 40
3.0
 40
3.0
 40
3.0
 40
4.0
 40
4.0
 40
4.0
 40
5.0
 40
5.0
 40
5.0
 40
6.0
 40
6.0
 40
6.0
 40
7.0
 40
7.0
 40
7.0
 40
8.0
 40
8.0
 40
8.0
 40
9.0
 40
9.0
 40
9.0
 40
10.0
 40
10.0
 40
10.0
 40
11.0
 40
11.0
 40
11.0
 40
12.0
 40
12.0
 40
12.0
 40
13.0
 40
13.0
 40
13.0
 40
14.0
 40
14.0
 40
14.0
 40
15.0
 40
15.0
 40
15.0
 40
16.0
 40
16.0
 40
16.0
 40
17.0
 40
17.0
 40
17.0
 40
18.0
 40
18.0
 40
18.0
 40
19.0
 40
19.0
 40
19.0
 40
20.0
 40
20.0
 40
20.0
 40
21.0
 40
21.0
 40
21.0
 40
22.0
 40
22.0
 40
22.0
 40
23.0
 40
23.0
 40
23.0
 40
24.0
 40
24.0
 40
24.0
 40
25.0
 40
25.0
 40
25.0
 40
26.0
 40
26.0
 40
26.0
 40
27.0
 40
27.0
 40
27.0
 40
28.0
 40
28.0
 40
28.0
 40
29.0
 40
29.0
 40
29.0
 40
30.0
 40
30.0
 40
30.0
 40
31.0
 40
31.0
 40
31.0
 40
32.0
 40
32.0
 40
32.0
 40
33.0
 40
33.0
 40
33.0
 40
34.0
 40
34.0
 40
34.0
 40
35.0
 40
35.0
 40
35.0
 40
36.0
 40
36.0
 40
36.0
 40
37.0
 40
37.0
 40
37.0
 40
38.0
 40
38.0
 40
38.0
 40
39.0
 40
39.0
 40
39.0
 40
40.0
 40
40.0
 40
40.0
 40
41.0
 40
41.0
 40
41.0
 40
42.0
 40
42.0
 40
42.0
 40
43.0
 40
43.0
 40
43.0
 40
44.0
 40
44.0
 40
44.0
 40
45.0
 40
45.0
 40
45.0
 40
46.0
 40
46.0
 40
46.0
 40
47.0
 40
47.0
 40
47.0
 40
48.0
 40
48.0
 40
48.0
 40
49.0
 40
49.0
 40
49.0
 40
50.0
 40
50.0
 40
50.0
 40
51.0
 40
51.0
 40
51.0
 40
52.0
 40
52.0
 40
52.0
 40
53.0
 40
53.0
 40
53.0
 40
54.0
 40
54.0
 40
54.0
 40
55.0
 40
55.0
 40
55.0
 40
56.0
 40
56.0
 40
56.0
 40
57.0
 40
57.0
 40
57.0
 40
58.0
 40
58.0
 40
58.0
 40
59.0
 40
59.0
 40
59.0
 40
60.0
 40
60.0
 40
60.0
 40
61.0
 40
61.0
 40
61.0
 40
62.0
 40
62.0
 40
62.0
 40
63.0
 40
63.0
 40
63.0
 40
64.0
 40
64.0
 40
64.0
 40
65.0
 40
65.0
 40
65.0
 40
66.0
 40
66.0
 40
66.0
 40
67.0
 40
67.0
 40
67.0
 40
68.0
 40
68.0
 40
68.0
 40
69.0
 40
69.0
 40
69.0
 40
70.0
 40
70.0
 40
70.0
 40
71.0
 40
71.0
 40
71.0
 40
72.0
 40
72.0
 40
72.0
 40
73.0
 40
73.0
 40
73.0
 40
74.0
 40
74.0
 40
74.0
 40
74.0
 10
206.4132941786347
 20
-107.9433388334199
 10
206.4092461914395
 20
-107.8855473566548
 10
206.4072006659951
 20
-107.8277989435833
 10
206.3991262234516
 20
-107.7704596356007
 10
206.3913316949162
 20
-107.7151012575221
 10
206.3776374403623
 20
-107.6606041533148
 10
206.3660317749464
 20
-107.6056333484782
 10
206.3536294311995
 20
-107.5467868112208
 10
206.3428635078081
 20
-107.4878541465763
 10
206.3261547947046
 20
-107.4299765424241
 10
206.3113839478116
 20
-107.378924533702
 10
206.2911655436826
 20
-107.3292290313273
 10
206.2729926649978
 20
-107.2788875735491
 10
206.251267031594
 20
-107.2185984025572
 10
206.2306825860696
 20
-107.1582015723314
 10
206.2041984145268
 20
-107.0995057580015
 10
206.1994614082346
 20
-107.0889982167715
 10
206.196834522927
 20
-107.0779523793719
 10
206.1919252618606
 20
-107.0674879018354
 10
206.1734940010145
 20
-107.0281276859165
 10
206.1492922052306
 20
-106.9929661801201
 10
206.1289876737144
 20
-106.9549194068549
 10
206.0994029162348
 20
-106.8994964332359
 10
206.0710454740219
 20
-106.8438366093024
 10
206.0370466879518
 20
-106.790437629281
 10
206.0046412585437
 20
-106.7394717479461
 10
205.9679725234726
 20
-106.692489258266
 10
205.9321865941195
 20
-106.6443871125532
 10
205.90507799902
 20
-106.6079336959499
 10
205.8822327095834
 20
-106.5691979035876
 10
205.852927866112
 20
-106.5340148659445
 10
205.852927866112
 20
-106.5340148659445
 10
191.5891990285321
 20
-89.41774696657772
 10
191.5891990285321
 20
-89.41774696657772
 10
191.5891990285321
 20
-89.41774696657772
 10
205.852927866112
 20
-72.30147906721096
 10
205.852927866112
 20
-72.30147906721096
 10
206.4661548624865
 20
-71.56526216201307
 10
206.5984465291201
 20
-70.54086301947403
 10
206.1919252618606
 20
-69.6730434667396
 10
205.7857485041496
 20
-68.80539616877942
 10
204.9137948368329
 20
-68.25108030520272
 10
203.9557137823849
 20
-68.25108030520272
 10
203.9557137823849
 20
-68.25108030520272
 10
171.9683467113887
 20
-68.25108030520272
 10
171.9683467113887
 20
-68.25108030520272
 10
171.9683467113887
 20
-68.25108030520272
 10
170.9568666769193
 20
-68.25108030520272
 10
170.9568666769193
 20
-68.25108030520272
 10
170.9568666769193
 20
-68.25108030520272
 10
141.0689407946344
 20
-68.25108030520272
 10
141.0689407946344
 20
-68.25108030520272
 10
141.0689407946344
 20
-68.25108030520272
 10
138.9694996059228
 20
-68.25108030520272
 10
138.9694996059228
 20
-68.25108030520272
 10
138.9694996059228
 20
-68.25108030520272
 10
109.0815737236378
 20
-68.25108030520272
 10
109.0815737236378
 20
-68.25108030520272
 10
109.0815737236378
 20
-68.25108030520272
 10
108.0700936891685
 20
-68.25108030520272
 10
108.0700936891685
 20
-68.25108030520272
 10
108.0700936891685
 20
-68.25108030520272
 10
76.08272661817226
 20
-68.25108030520272
 10
76.08272661817226
 20
-68.25108030520272
 10
75.12447330895002
 20
-68.25108030520272
 10
74.25286415118181
 20
-68.80539616877942
 10
73.84634288392233
 20
-69.6730434667396
 10
73.43999387143711
 20
-70.54086301947403
 10
73.5722855380707
 20
-71.56526216201307
 10
74.18568478921944
 20
-72.30147906721096
 10
74.18568478921944
 20
-72.30147906721096
 10
88.44924137202509
 20
-89.41774696657772
 10
88.44924137202509
 20
-89.41774696657772
 10
88.44924137202509
 20
-89.41774696657772
 10
74.18568478921944
 20
-106.5340148659445
 10
74.18568478921944
 20
-106.5340148659445
 10
74.15760726101466
 20
-106.5677337380064
 10
74.13577396837688
 20
-106.6048977055535
 10
74.10972043376968
 20
-106.6397792973417
 10
74.07231961590794
 20
-106.6897547137246
 10
74.03420824710236
 20
-106.738782728849
 10
74.00048937504047
 20
-106.7918802630154
 10
73.96812700932591
 20
-106.8428030806568
 10
73.94112607346027
 20
-106.8959006148232
 10
73.91279016309409
 20
-106.9486751712879
 10
73.8912367844645
 20
-106.9887459381507
 10
73.865807673414
 20
-107.0259529693914
 10
73.84634288392233
 20
-107.0674879018354
 10
73.84117524069445
 20
-107.0785122073882
 10
73.83839763245948
 20
-107.0901609364977
 10
73.83340224400587
 20
-107.1012498375909
 10
73.80812385588284
 20
-107.1574048940005
 10
73.78857293900406
 20
-107.2152179026123
 10
73.76762245208437
 20
-107.2728371246031
 10
73.74843757660089
 20
-107.325590149221
 10
73.72729330306016
 20
-107.3776756865886
 10
73.71187650076368
 20
-107.4311823258439
 10
73.695684551983
 20
-107.4873589141003
 10
73.68539232922082
 20
-107.544590562849
 10
73.67322683578853
 20
-107.6016714886702
 10
73.66121206528372
 20
-107.6581279909347
 10
73.6472163648749
 20
-107.7141323244168
 10
73.63920651787168
 20
-107.7709979317702
 10
73.63121820271526
 20
-107.8277343480429
 10
73.62923727281124
 20
-107.8848798694045
 10
73.62521081746286
 20
-107.9420469226129
 10
73.62116283026769
 20
-107.9997738038376
 10
73.61506931762815
 20
-108.0572638347477
 10
73.61509084947494
 20
-108.1149691841256
 10
73.61506931762815
 20
-108.1726745335036
 10
73.62116283026769
 20
-108.2301645644137
 10
73.62521081746286
 20
-108.2878914456384
 10
73.62923727281124
 20
-108.3450584988468
 10
73.63121820271526
 20
-108.4022040202083
 10
73.63920651787168
 20
-108.4589404364811
 10
73.6472163648749
 20
-108.5158060438345
 10
73.66121206528372
 20
-108.5718103773166
 10
73.67322683578853
 20
-108.6282668795811
 10
73.68539232922082
 20
-108.6853478054023
 10
73.695684551983
 20
-108.742579454151
 10
73.71187650076368
 20
-108.7987560424074
 10
73.72729330306016
 20
-108.8522626816627
 10
73.74843757660089
 20
-108.9043482190303
 10
73.76762245208437
 20
-108.9571012436482
 10
73.78857293900406
 20
-109.014720465639
 10
73.80812385588284
 20
-109.0725334742508
 10
73.83340224400587
 20
-109.1286885306604
 10
73.83839763245948
 20
-109.1397774317536
 10
73.84117524069445
 20
-109.1514261608631
 10
73.84634288392233
 20
-109.1624504664159
 10
73.865807673414
 20
-109.2039853988599
 10
73.8912367844645
 20
-109.2411924301006
 10
73.91279016309409
 20
-109.2812631969634
 10
73.94112607346027
 20
-109.3340377534281
 10
73.96812700932591
 20
-109.3871352875945
 10
74.00048937504047
 20
-109.4380581052358
 10
74.03420824710236
 20
-109.4911556394023
 10
74.07231961590794
 20
-109.5401836545267
 10
74.10972043376968
 20
-109.5901590709096
 10
74.13577396837688
 20
-109.6250406626978
 10
74.15760726101466
 20
-109.6622046302449
 10
74.18568478921944
 20
-109.6959235023068
 10
74.18568478921944
 20
-109.6959235023068
 10
88.44924137202509
 20
-126.8121914016736
 10
88.44924137202509
 20
-126.8121914016736
 10
88.44924137202509
 20
-126.8121914016736
 10
74.18568478921944
 20
-143.9284593010403
 10
74.18568478921944
 20
-143.9284593010403
 10
73.5722855380707
 20
-144.6646762062382
 10
73.43999387143711
 20
-145.6890753487773
 10
73.84634288392233
 20
-146.5568949015117
 10
74.25286415118181
 20
-147.4245421994719
 10
75.12447330895002
 20
-147.9788580630486
 10
76.08272661817226
 20
-147.9788580630486
 10
76.08272661817226
 20
-147.9788580630486
 10
108.0700936891685
 20
-147.9788580630486
 10
108.0700936891685
 20
-147.9788580630486
 10
108.0700936891685
 20
-147.9788580630486
 10
109.0815737236378
 20
-147.9788580630486
 10
109.0815737236378
 20
-147.9788580630486
 10
109.0815737236378
 20
-147.9788580630486
 10
138.9694996059228
 20
-147.9788580630486
 10
138.9694996059228
 20
-147.9788580630486
 10
138.9694996059228
 20
-147.9788580630486
 10
141.0689407946344
 20
-147.9788580630486
 10
141.0689407946344
 20
-147.9788580630486
 10
141.0689407946344
 20
-147.9788580630486
 10
170.9568666769193
 20
-147.9788580630486
 10
170.9568666769193
 20
-147.9788580630486
 10
170.9568666769193
 20
-147.9788580630486
 10
171.9683467113887
 20
-147.9788580630486
 10
171.9683467113887
 20
-147.9788580630486
 10
171.9683467113887
 20
-147.9788580630486
 10
203.9557137823849
 20
-147.9788580630486
 10
203.9557137823849
 20
-147.9788580630486
 10
204.9137948368329
 20
-147.9788580630486
 10
205.7857485041496
 20
-147.4245421994719
 10
206.1919252618606
 20
-146.5568949015117
 10
206.5984465291201
 20
-145.6890753487773
 10
206.4661548624865
 20
-144.6646762062382
 10
205.852927866112
 20
-143.9284593010403
 10
205.852927866112
 20
-143.9284593010403
 10
191.5891990285321
 20
-126.8121914016736
 10
191.5891990285321
 20
-126.8121914016736
 10
191.5891990285321
 20
-126.8121914016736
 10
205.852927866112
 20
-109.6959235023068
 10
205.852927866112
 20
-109.6959235023068
 10
205.8822327095834
 20
-109.6607404646637
 10
205.90507799902
 20
-109.6220046723014
 10
205.9321865941195
 20
-109.5855512556981
 10
205.9679725234726
 20
-109.5374491099853
 10
206.0046412585437
 20
-109.4904666203052
 10
206.0370466879518
 20
-109.4395007389703
 10
206.0710454740219
 20
-109.3861017589489
 10
206.0994029162348
 20
-109.3304419350154
 10
206.1289876737144
 20
-109.2750189613964
 10
206.1492922052306
 20
-109.2369721881312
 10
206.1734940010145
 20
-109.2018106823348
 10
206.1919252618606
 20
-109.1624504664159
 10
206.196834522927
 20
-109.1519859888794
 10
206.1994614082346
 20
-109.1409401514798
 10
206.2041984145268
 20
-109.1304326102498
 10
206.2306825860696
 20
-109.0717367959199
 10
206.251267031594
 20
-109.0113399656941
 10
206.2729926649978
 20
-108.9510507947022
 10
206.2911655436826
 20
-108.900709336924
 10
206.3113839478116
 20
-108.8510138345493
 10
206.3261547947046
 20
-108.7999618258272
 10
206.3428635078081
 20
-108.742084221675
 10
206.3536294311995
 20
-108.6831515570305
 10
206.3660317749464
 20
-108.624305019773
 10
206.3776374403623
 20
-108.5693342149365
 10
206.3913316949162
 20
-108.5148371107292
 10
206.3991262234516
 20
-108.4594787326506
 10
206.4072006659951
 20
-108.402139424668
 10
206.4092461914395
 20
-108.3443910115965
 10
206.4132941786347
 20
-108.2865995348314
 10
206.4172991021363
 20
-108.2293032905424
 10
206.4233495510822
 20
-108.1722438965679
 10
206.4233280192354
 20
-108.1149691841256
 10
206.4233495510822
 20
-108.0576944716834
 10
206.4172991021363
 20
-108.0006350777089
 10
206.4132941786347
 20
-107.9433388334199
 97
        0
 92
        1
 93
        3
 72
     1
 10
198.6833396517586
 20
-105.6455247402986
 11
176.2292408075457
 21
-105.6455247402986
 72
     1
 10
176.2292408075457
 20
-105.6455247402986
 11
187.4561179748779
 21
-92.17296208090629
 72
     1
 10
187.4561179748779
 20
-92.17296208090629
 11
198.6833396517586
 21
-105.6455247402986
 97
        0
 92
        1
 93
        4
 72
     1
 10
171.4625851623072
 20
-141.0449143798862
 11
159.6018319575359
 21
-126.8121914016736
 72
     1
 10
159.6018319575359
 20
-126.8121914016736
 11
171.4625851623072
 21
-112.5794684234609
 72
     1
 10
171.4625851623072
 20
-112.5794684234609
 11
183.3230369212236
 21
-126.8121914016736
 72
     1
 10
183.3230369212236
 20
-126.8121914016736
 11
171.4625851623072
 21
-141.0449143798862
 97
        0
 92
        1
 93
        4
 72
     1
 10
140.0191771365849
 20
-140.3921333809717
 11
128.7024260407812
 21
-126.8121914016736
 72
     1
 10
128.7024260407812
 20
-126.8121914016736
 11
140.0191771365849
 21
-113.2322494223754
 72
     1
 10
140.0191771365849
 20
-113.2322494223754
 11
151.3356698502274
 21
-126.8121914016736
 72
     1
 10
151.3356698502274
 20
-126.8121914016736
 11
140.0191771365849
 21
-140.3921333809717
 97
        0
 92
        1
 93
        4
 72
     1
 10
108.5758337064032
 20
-141.045129698354
 11
96.71505896978502
 21
-126.8121914016736
 72
     1
 10
96.71505896978502
 20
-126.8121914016736
 11
108.5758337064032
 21
-112.5792531049931
 72
     1
 10
108.5758337064032
 20
-112.5792531049931
 11
120.4366084430213
 21
-126.8121914016736
 72
     1
 10
120.4366084430213
 20
-126.8121914016736
 11
108.5758337064032
 21
-141.045129698354
 97
        0
 92
        1
 93
        4
 72
     1
 10
108.5758337064032
 20
-75.18480866989725
 11
120.4366084430213
 21
-89.41774696657772
 72
     1
 10
120.4366084430213
 20
-89.41774696657772
 11
108.5758337064032
 21
-103.6506852632582
 72
     1
 10
108.5758337064032
 20
-103.6506852632582
 11
96.71505896978502
 21
-89.41774696657772
 72
     1
 10
96.71505896978502
 20
-89.41774696657772
 11
108.5758337064032
 21
-75.18480866989725
 97
        0
 92
        1
 93
        4
 72
     1
 10
140.0191771365849
 20
-75.83780498727957
 11
151.3356698502274
 21
-89.41774696657772
 72
     1
 10
151.3356698502274
 20
-89.41774696657772
 11
140.0191771365849
 21
-102.9976889458759
 72
     1
 10
140.0191771365849
 20
-102.9976889458759
 11
128.7024260407812
 21
-89.41774696657772
 72
     1
 10
128.7024260407812
 20
-89.41774696657772
 11
140.0191771365849
 21
-75.83780498727957
 97
        0
 92
        1
 93
        4
 72
     1
 10
171.4625851623072
 20
-75.18502398836507
 11
183.3230369212236
 21
-89.41774696657772
 72
     1
 10
183.3230369212236
 20
-89.41774696657772
 11
171.4625851623072
 21
-103.6504699447904
 72
     1
 10
171.4625851623072
 20
-103.6504699447904
 11
159.6018319575359
 21
-89.41774696657772
 72
     1
 10
159.6018319575359
 20
-89.41774696657772
 11
171.4625851623072
 21
-75.18502398836507
 97
        0
 92
        1
 93
        3
 72
     1
 10
166.6959725807623
 20
-105.6455247402986
 11
144.2418737365495
 21
-105.6455247402986
 72
     1
 10
144.2418737365495
 20
-105.6455247402986
 11
155.4687509038816
 21
-92.17296208090629
 72
     1
 10
155.4687509038816
 20
-92.17296208090629
 11
166.6959725807623
 21
-105.6455247402986
 97
        0
 92
        1
 93
        3
 72
     1
 10
135.7965666640077
 20
-105.6455247402986
 11
113.3424678197948
 21
-105.6455247402986
 72
     1
 10
113.3424678197948
 20
-105.6455247402986
 11
124.5695172419013
 21
-92.17296208090629
 72
     1
 10
124.5695172419013
 20
-92.17296208090629
 11
135.7965666640077
 21
-105.6455247402986
 97
        0
 92
        1
 93
        3
 72
     1
 10
113.3424678197948
 20
-110.5844136279527
 11
135.7965666640077
 21
-110.5844136279527
 72
     1
 10
135.7965666640077
 20
-110.5844136279527
 11
124.5695172419013
 21
-124.056976287345
 72
     1
 10
124.5695172419013
 20
-124.056976287345
 11
113.3424678197948
 21
-110.5844136279527
 97
        0
 92
        1
 93
        3
 72
     1
 10
144.2418737365495
 20
-110.5844136279527
 11
166.6959725807623
 21
-110.5844136279527
 72
     1
 10
166.6959725807623
 20
-110.5844136279527
 11
155.4687509038816
 21
-124.056976287345
 72
     1
 10
155.4687509038816
 20
-124.056976287345
 11
144.2418737365495
 21
-110.5844136279527
 97
        0
 92
        1
 93
        3
 72
     1
 10
198.6833396517586
 20
-73.18996919285689
 11
187.4561179748779
 21
-86.66253185224917
 72
     1
 10
187.4561179748779
 20
-86.66253185224917
 11
176.2292408075457
 21
-73.18996919285689
 72
     1
 10
176.2292408075457
 20
-73.18996919285689
 11
198.6833396517586
 21
-73.18996919285689
 97
        0
 92
        1
 93
        3
 72
     1
 10
166.6959725807623
 20
-73.18996919285689
 11
155.4687509038816
 21
-86.66253185224917
 72
     1
 10
155.4687509038816
 20
-86.66253185224917
 11
144.2418737365495
 21
-73.18996919285689
 72
     1
 10
144.2418737365495
 20
-73.18996919285689
 11
166.6959725807623
 21
-73.18996919285689
 97
        0
 92
        1
 93
        3
 72
     1
 10
135.7965666640077
 20
-73.18996919285689
 11
124.5695172419013
 21
-86.66253185224917
 72
     1
 10
124.5695172419013
 20
-86.66253185224917
 11
113.3424678197948
 21
-73.18996919285689
 72
     1
 10
113.3424678197948
 20
-73.18996919285689
 11
135.7965666640077
 21
-73.18996919285689
 97
        0
 92
        1
 93
        3
 72
     1
 10
81.35510074879862
 20
-73.18996919285689
 11
103.8091995930115
 21
-73.18996919285689
 72
     1
 10
103.8091995930115
 20
-73.18996919285689
 11
92.58215017090505
 21
-86.66253185224917
 72
     1
 10
92.58215017090505
 20
-86.66253185224917
 11
81.35510074879862
 21
-73.18996919285689
 97
        0
 92
        1
 93
        3
 72
     1
 10
92.58215017090505
 20
-92.17296208090629
 11
103.8091995930115
 21
-105.6455247402986
 72
     1
 10
103.8091995930115
 20
-105.6455247402986
 11
81.35510074879862
 21
-105.6455247402986
 72
     1
 10
81.35510074879862
 20
-105.6455247402986
 11
92.58215017090505
 21
-92.17296208090629
 97
        0
 92
        1
 93
        3
 72
     1
 10
81.35510074879862
 20
-110.5844136279527
 11
103.8091995930115
 21
-110.5844136279527
 72
     1
 10
103.8091995930115
 20
-110.5844136279527
 11
92.58215017090505
 21
-124.056976287345
 72
     1
 10
92.58215017090505
 20
-124.056976287345
 11
81.35510074879862
 21
-110.5844136279527
 97
        0
 92
        1
 93
        3
 72
     1
 10
81.35510074879862
 20
-143.0399691753944
 11
92.58215017090505
 21
-129.5674065160021
 72
     1
 10
92.58215017090505
 20
-129.5674065160021
 11
103.8091995930115
 21
-143.0399691753944
 72
     1
 10
103.8091995930115
 20
-143.0399691753944
 11
81.35510074879862
 21
-143.0399691753944
 97
        0
 92
        1
 93
        3
 72
     1
 10
113.3424678197948
 20
-143.0399691753944
 11
124.5695172419013
 21
-129.5674065160021
 72
     1
 10
124.5695172419013
 20
-129.5674065160021
 11
135.7965666640077
 21
-143.0399691753944
 72
     1
 10
135.7965666640077
 20
-143.0399691753944
 11
113.3424678197948
 21
-143.0399691753944
 97
        0
 92
        1
 93
        3
 72
     1
 10
144.2418737365495
 20
-143.0399691753944
 11
155.4687509038816
 21
-129.5674065160021
 72
     1
 10
155.4687509038816
 20
-129.5674065160021
 11
166.6959725807623
 21
-143.0399691753944
 72
     1
 10
166.6959725807623
 20
-143.0399691753944
 11
144.2418737365495
 21
-143.0399691753944
 97
        0
 92
        1
 93
        3
 72
     1
 10
198.6833396517586
 20
-143.0399691753944
 11
176.2292408075457
 21
-143.0399691753944
 72
     1
 10
176.2292408075457
 20
-143.0399691753944
 11
187.4561179748779
 21
-129.5674065160021
 72
     1
 10
187.4561179748779
 20
-129.5674065160021
 11
198.6833396517586
 21
-143.0399691753944
 97
        0
 92
        1
 93
        3
 72
     1
 10
187.4561179748779
 20
-124.056976287345
 11
176.2292408075457
 21
-110.5844136279527
 72
     1
 10
176.2292408075457
 20
-110.5844136279527
 11
198.6833396517586
 21
-110.5844136279527
 72
     1
 10
198.6833396517586
 20
-110.5844136279527
 11
187.4561179748779
 21
-124.056976287345
 97
        0
 75
     2
 76
     1
 98
        0
  0
ENDSEC
  0
SECTION
  2
OBJECTS
  0
DICTIONARY
  5
C
330
0
100
AcDbDictionary
  3
ACAD_GROUP
350
D
  3
ACAD_LAYOUT
350
1A
  3
ACAD_MATERIAL
350
3B
  3
ACAD_MLEADERSTYLE
350
EF
  3
ACAD_MLINESTYLE
350
17
  3
ACAD_PLOTSETTINGS
350
19
  3
ACAD_VISUALSTYLE
350
2A
  3
ACDBHEADERROUNDTRIPXREC
350
CD
  3
ACDBVARIABLEDICTIONARY
350
ED
  0
DICTIONARY
  5
D
102
{ACAD_REACTORS
330
C
102
}
330
C
100
AcDbDictionary
  0
DICTIONARY
  5
1A
102
{ACAD_REACTORS
330
C
102
}
330
C
100
AcDbDictionary
  0
DICTIONARY
  5
3B
102
{ACAD_REACTORS
330
C
102
}
330
C
100
AcDbDictionary
  3
BYBLOCK
350
3D
  3
BYLAYER
350
3C
  3
GLOBAL
350
3E
  0
DICTIONARY
  5
EF
102
{ACAD_REACTORS
330
C
102
}
330
C
100
AcDbDictionary
  0
DICTIONARY
  5
17
102
{ACAD_REACTORS
330
C
102
}
330
C
100
AcDbDictionary
  3
STANDARD
350
18
  0
DICTIONARY
  5
19
102
{ACAD_REACTORS
330
C
102
}
330
C
100
AcDbDictionary
  0
DICTIONARY
  5
2A
102
{ACAD_REACTORS
330
C
102
}
330
C
100
AcDbDictionary
  3
2DWIREFRAME
350
2F
  3
3DWIREFRAME
350
30
  3
3D_HIDDEN
350
31
  3
BASIC
350
32
  3
BRIGHTEN
350
36
  3
COLORCHANGE
350
3A
  3
CONCEPTUAL
350
34
  3
DIM
350
35
  3
FACEPATTERN
350
39
  3
FLAT
350
2B
  3
FLATWITHEDGES
350
2C
  3
GOURAUD
350
2D
  3
GOURAUDWITHEDGES
350
2E
  3
LINEPATTERN
350
38
  3
REALISTIC
350
33
  3
THICKEN
350
37
  0
DICTIONARY
  5
CD
102
{ACAD_REACTORS
330
C
102
}
330
C
100
AcDbDictionary
  3
CEPSNTYPE
350
D6
  3
DIMSTYLEDATA
350
EC
  3
FINGERPRINTGUID
350
D7
  3
HYPERLINKBASE
350
D0
  3
INSUNITS
350
D5
  3
LAYOUTDICT
350
D2
  3
LWETCUNION
350
D4
  3
PLOTSETDICT
350
D3
  3
PSVPSCALE
350
D9
  3
PUCSBASE
350
DC
  3
PUCSORGBACK
350
E2
  3
PUCSORGBOTTOM
350
DE
  3
PUCSORGFRONT
350
E1
  3
PUCSORGLEFT
350
DF
  3
PUCSORGRIGHT
350
E0
  3
PUCSORGTOP
350
DD
  3
PUCSORTHOREF
350
DA
  3
PUCSORTHOVIEW
350
DB
  3
STYLESHEET
350
D1
  3
TSTACKALIGN
350
CE
  3
TSTACKSIZE
350
CF
  3
UCSBASE
350
E5
  3
UCSORGBACK
350
EB
  3
UCSORGBOTTOM
350
E7
  3
UCSORGFRONT
350
EA
  3
UCSORGLEFT
350
E8
  3
UCSORGRIGHT
350
E9
  3
UCSORGTOP
350
E6
  3
UCSORTHOREF
350
E3
  3
UCSORTHOVIEW
350
E4
  3
VERSIONGUID
350
D8
  0
DICTIONARY
  5
ED
102
{ACAD_REACTORS
330
C
102
}
330
C
100
AcDbDictionary
  3
DIMASSOC
350
F0
  3
HIDETEXT
350
F1
  0
MATERIAL
  5
3D
102
{ACAD_REACTORS
330
3B
102
}
102
{ACAD_XDICTIONARY
360
F4
102
}
330
3B
100
AcDbMaterial
  1
ByBlock
  0
MATERIAL
  5
3C
102
{ACAD_REACTORS
330
3B
102
}
102
{ACAD_XDICTIONARY
360
F2
102
}
330
3B
100
AcDbMaterial
  1
ByLayer
  0
MATERIAL
  5
3E
102
{ACAD_REACTORS
330
3B
102
}
102
{ACAD_XDICTIONARY
360
F6
102
}
330
3B
100
AcDbMaterial
  1
Global
  0
MLINESTYLE
  5
18
102
{ACAD_REACTORS
330
17
102
}
330
17
100
AcDbMlineStyle
  2
Standard
 70
     0
  3

 62
   256
 51
90.0
 52
90.0
 71
     2
 49
0.5
 62
   256
  6
BYLAYER
 49
-0.5
 62
   256
  6
BYLAYER
  0
ACAD_PROXY_OBJECT
  5
2F
102
{ACAD_REACTORS
330
2A
102
}
330
2A
100
AcDbProxyObject
 90
      499
 91
      501
 93
      436
310
42CC9915DA5C99599C985B595049028333333333333E3BF0000000000000FB0107901411070040501600405405064090741402480A0340
1001
ACAD
1000
AcDbSavedByObjectVersion
1070
     0
  0
ACAD_PROXY_OBJECT
  5
30
102
{ACAD_REACTORS
330
2A
102
}
330
2A
100
AcDbProxyObject
 90
      499
 91
      501
 93
      436
310
42CCD915DA5C99599C985B595059028333333333333E3BF0000000000000FB0107901411070040501600405405064090741402480A0340
1001
ACAD
1000
AcDbSavedByObjectVersion
1070
     0
  0
ACAD_PROXY_OBJECT
  5
31
102
{ACAD_REACTORS
330
2A
102
}
330
2A
100
AcDbProxyObject
 90
      499
 91
      501
 93
      500
310
424CD108121A5919195B90640502408333333333333E3BF0000000000000FB01079024090700405020000000000001110200405405064090740C02480A0340
1001
ACAD
1000
AcDbSavedByObjectVersion
1070
     0
  0
ACAD_PROXY_OBJECT
  5
32
102
{ACAD_REACTORS
330
2A
102
}
330
2A
100
AcDbProxyObject
 90
      499
 91
      501
 93
      388
310
4150985CDA58D07406404333333333333E3BF0000000000000FB0107A41107004050150841D405064090741402480A0350
1001
ACAD
1000
AcDbSavedByObjectVersion
1070
     0
  0
ACAD_PROXY_OBJECT
  5
36
102
{ACAD_REACTORS
330
2A
102
}
330
2A
100
AcDbProxyObject
 90
      499
 91
      501
 93
      428
310
42109C9A59DA1D195B90C409028333333333333E3BF0000000000000FB010790141107004050150841D405064090741402480A029950
1001
ACAD
1000
AcDbSavedByObjectVersion
1070
     0
  0
ACAD_PROXY_OBJECT
  5
3A
102
{ACAD_REACTORS
330
2A
102
}
330
2A
100
AcDbProxyObject
 90
      499
 91
      501
 93
      452
310
42D0DBDB1BDC90DA185B99D95104090240C333333333333E3BF0000000000000FB0108901411070040501508421405064090741402480A0350
1001
ACAD
1000
AcDbSavedByObjectVersion
1070
     0
  0
ACAD_PROXY_OBJECT
  5
34
102
{ACAD_REACTORS
330
2A
102
}
330
2A
100
AcDbProxyObject
 90
      499
 91
      501
 93
      500
310
4290DBDB98D95C1D1D585B10940D028333333333333E3BF0000000000000FB0107902409070040501000000000000111010841D405064090740C02480A0340
1001
ACAD
1000
AcDbSavedByObjectVersion
1070
     0
  0
ACAD_PROXY_OBJECT
  5
35
102
{ACAD_REACTORS
330
2A
102
}
330
2A
100
AcDbProxyObject
 90
      499
 91
      501
 93
      412
310
40D11A5B50B409028333333333333E3BF0000000000000FB010790141107004050150841D405064090741402480A02677FFFFFD0
1001
ACAD
1000
AcDbSavedByObjectVersion
1070
     0
  0
ACAD_PROXY_OBJECT
  5
39
102
{ACAD_REACTORS
330
2A
102
}
330
2A
100
AcDbProxyObject
 90
      499
 91
      501
 93
      444
310
42D19858D95C185D1D195C9B90F409028333333333333E3BF0000000000000FB010790141107004050150841D405064090741402480A0350
1001
ACAD
1000
AcDbSavedByObjectVersion
1070
     0
  0
ACAD_PROXY_OBJECT
  5
2B
102
{ACAD_REACTORS
330
2A
102
}
330
2A
100
AcDbProxyObject
 90
      499
 91
      501
 93
      388
310
41119B185D240901404333333333333E3BF0000000000000F9010740A41107004050150841D405064090741402480A1B50
1001
ACAD
1000
AcDbSavedByObjectVersion
1070
     0
  0
ACAD_PROXY_OBJECT
  5
2C
102
{ACAD_REACTORS
330
2A
102
}
330
2A
100
AcDbProxyObject
 90
      499
 91
      501
 93
      476
310
43519B185D15DA5D1A115919D95CD0140901404333333333333E3BF0000000000000F9010740901411070040501600405405064090741402480A1B50
1001
ACAD
1000
AcDbSavedByObjectVersion
1070
     0
  0
ACAD_PROXY_OBJECT
  5
2D
102
{ACAD_REACTORS
330
2A
102
}
330
2A
100
AcDbProxyObject
 90
      499
 91
      501
 93
      412
310
41D1DBDD5C985D5910240902404333333333333E3BF0000000000000F9010740A411070040501641D405064090741402480A1B50
1001
ACAD
1000
AcDbSavedByObjectVersion
1070
     0
  0
ACAD_PROXY_OBJECT
  5
2E
102
{ACAD_REACTORS
330
2A
102
}
330
2A
100
AcDbProxyObject
 90
      499
 91
      501
 93
      500
310
4411DBDD5C985D5915DA5D1A115919D95CD0340902404333333333333E3BF0000000000000F9010740901411070040501600405405064090741402480A1B50
1001
ACAD
1000
AcDbSavedByObjectVersion
1070
     0
  0
ACAD_PROXY_OBJECT
  5
38
102
{ACAD_REACTORS
330
2A
102
}
330
2A
100
AcDbProxyObject
 90
      499
 91
      501
 93
      444
310
42D31A5B995C185D1D195C9B90E409028333333333333E3BF0000000000000FB010790141107004050750841D405064090741402483A0350
1001
ACAD
1000
AcDbSavedByObjectVersion
1070
     0
  0
ACAD_PROXY_OBJECT
  5
33
102
{ACAD_REACTORS
330
2A
102
}
330
2A
100
AcDbProxyObject
 90
      499
 91
      501
 93
      420
310
425499585B1A5CDD1A58D08409028333333333333E3BF0000000000000FB01079019070040501508421405064090741402480A1B40
1001
ACAD
1000
AcDbSavedByObjectVersion
1070
     0
  0
ACAD_PROXY_OBJECT
  5
37
102
{ACAD_REACTORS
330
2A
102
}
330
2A
100
AcDbProxyObject
 90
      499
 91
      501
 93
      412
310
41D51A1A58DAD95B90D409028333333333333E3BF0000000000000FB010790141107004050150C41D405064090741402480A0350
1001
ACAD
1000
AcDbSavedByObjectVersion
1070
     0
  0
XRECORD
  5
D6
102
{ACAD_REACTORS
330
CD
102
}
330
CD
100
AcDbXrecord
 90
        0
  0
XRECORD
  5
EC
102
{ACAD_REACTORS
330
CD
102
}
330
CD
100
AcDbXrecord
1000
DSTYLE
1002
{
1070
   340
340
11
1002
}
  0
XRECORD
  5
D7
102
{ACAD_REACTORS
330
CD
102
}
330
CD
100
AcDbXrecord
  1
{FA70CDB3-7D4E-CE3D-DF85-FA7777BF8ED5}
  0
XRECORD
  5
D0
102
{ACAD_REACTORS
330
CD
102
}
330
CD
100
AcDbXrecord
  1

  0
XRECORD
  5
D5
102
{ACAD_REACTORS
330
CD
102
}
330
CD
100
AcDbXrecord
 90
        1
  0
XRECORD
  5
D2
102
{ACAD_REACTORS
330
CD
102
}
330
CD
100
AcDbXrecord
340
1A
  0
XRECORD
  5
D4
102
{ACAD_REACTORS
330
CD
102
}
330
CD
100
AcDbXrecord
 90
    10269
  0
XRECORD
  5
D3
102
{ACAD_REACTORS
330
CD
102
}
330
CD
100
AcDbXrecord
340
19
  0
XRECORD
  5
D9
102
{ACAD_REACTORS
330
CD
102
}
330
CD
100
AcDbXrecord
 40
0.0
  0
XRECORD
  5
DC
102
{ACAD_REACTORS
330
CD
102
}
330
CD
100
AcDbXrecord
340
0
  0
XRECORD
  5
E2
102
{ACAD_REACTORS
330
CD
102
}
330
CD
100
AcDbXrecord
 10
0.0
 20
0.0
 30
0.0
  0
XRECORD
  5
DE
102
{ACAD_REACTORS
330
CD
102
}
330
CD
100
AcDbXrecord
 10
0.0
 20
0.0
 30
0.0
  0
XRECORD
  5
E1
102
{ACAD_REACTORS
330
CD
102
}
330
CD
100
AcDbXrecord
 10
0.0
 20
0.0
 30
0.0
  0
XRECORD
  5
DF
102
{ACAD_REACTORS
330
CD
102
}
330
CD
100
AcDbXrecord
 10
0.0
 20
0.0
 30
0.0
  0
XRECORD
  5
E0
102
{ACAD_REACTORS
330
CD
102
}
330
CD
100
AcDbXrecord
 10
0.0
 20
0.0
 30
0.0
  0
XRECORD
  5
DD
102
{ACAD_REACTORS
330
CD
102
}
330
CD
100
AcDbXrecord
 10
0.0
 20
0.0
 30
0.0
  0
XRECORD
  5
DA
102
{ACAD_REACTORS
330
CD
102
}
330
CD
100
AcDbXrecord
340
0
  0
XRECORD
  5
DB
102
{ACAD_REACTORS
330
CD
102
}
330
CD
100
AcDbXrecord
 70
     0
  0
XRECORD
  5
D1
102
{ACAD_REACTORS
330
CD
102
}
330
CD
100
AcDbXrecord
  1

  0
XRECORD
  5
CE
102
{ACAD_REACTORS
330
CD
102
}
330
CD
100
AcDbXrecord
 90
        1
  0
XRECORD
  5
CF
102
{ACAD_REACTORS
330
CD
102
}
330
CD
100
AcDbXrecord
 90
       70
  0
XRECORD
  5
E5
102
{ACAD_REACTORS
330
CD
102
}
330
CD
100
AcDbXrecord
340
0
  0
XRECORD
  5
EB
102
{ACAD_REACTORS
330
CD
102
}
330
CD
100
AcDbXrecord
 10
0.0
 20
0.0
 30
0.0
  0
XRECORD
  5
E7
102
{ACAD_REACTORS
330
CD
102
}
330
CD
100
AcDbXrecord
 10
0.0
 20
0.0
 30
0.0
  0
XRECORD
  5
EA
102
{ACAD_REACTORS
330
CD
102
}
330
CD
100
AcDbXrecord
 10
0.0
 20
0.0
 30
0.0
  0
XRECORD
  5
E8
102
{ACAD_REACTORS
330
CD
102
}
330
CD
100
AcDbXrecord
 10
0.0
 20
0.0
 30
0.0
  0
XRECORD
  5
E9
102
{ACAD_REACTORS
330
CD
102
}
330
CD
100
AcDbXrecord
 10
0.0
 20
0.0
 30
0.0
  0
XRECORD
  5
E6
102
{ACAD_REACTORS
330
CD
102
}
330
CD
100
AcDbXrecord
 10
0.0
 20
0.0
 30
0.0
  0
XRECORD
  5
E3
102
{ACAD_REACTORS
330
CD
102
}
330
CD
100
AcDbXrecord
340
0
  0
XRECORD
  5
E4
102
{ACAD_REACTORS
330
CD
102
}
330
CD
100
AcDbXrecord
 70
     0
  0
XRECORD
  5
D8
102
{ACAD_REACTORS
330
CD
102
}
330
CD
100
AcDbXrecord
  1
{FAEB1C32-E019-11D5-929B-00C0DF256EC4}
  0
DICTIONARYVAR
  5
F0
102
{ACAD_REACTORS
330
ED
102
}
330
ED
100
DictionaryVariables
280
     0
  1
2
  0
DICTIONARYVAR
  5
F1
102
{ACAD_REACTORS
330
ED
102
}
330
ED
100
DictionaryVariables
280
     0
  1
1
  0
DICTIONARY
  5
F4
330
3D
100
AcDbDictionary
280
     1
  3
ACAD_XREC_ROUNDTRIP
360
F5
  0
DICTIONARY
  5
F2
330
3C
100
AcDbDictionary
280
     1
  3
ACAD_XREC_ROUNDTRIP
360
F3
  0
DICTIONARY
  5
F6
330
3E
100
AcDbDictionary
280
     1
  3
ACAD_XREC_ROUNDTRIP
360
F7
  0
XRECORD
  5
F5
102
{ACAD_REACTORS
330
F4
102
}
330
F4
100
AcDbXrecord
102
MATERIAL
148
0.0
149
0.0
149
0.0
 93
        0
 94
      127
282
     0
 72
     1
 77
     1
171
     1
175
     1
179
     1
273
     0
  0
XRECORD
  5
F3
102
{ACAD_REACTORS
330
F2
102
}
330
F2
100
AcDbXrecord
102
MATERIAL
148
0.0
149
0.0
149
0.0
 93
        0
 94
      127
282
     0
 72
     1
 77
     1
171
     1
175
     1
179
     1
273
     0
  0
XRECORD
  5
F7
102
{ACAD_REACTORS
330
F6
102
}
330
F6
100
AcDbXrecord
102
MATERIAL
148
0.0
149
0.0
149
0.0
 93
        0
 94
      127
282
     0
 72
     1
 77
     1
171
     1
175
     1
179
     1
273
     0
  0
ENDSEC
  0
EOF
